<?xml version="1.0" encoding="utf-8"?>
<!DOCTYPE svg PUBLIC "-//W3C//DTD SVG 20010904//EN" "http://www.w3.org/TR/2001/REC-SVG-20010904/DTD/svg10.dtd">
<svg version="1.0" width="403.5pt" height="405pt" viewBox="0 0 403.5 405" preserveAspectRatio="xMidYMid meet" xmlns="http://www.w3.org/2000/svg">
  <g transform="translate(0,405)scale(.075,.075)">
    <path id="path1" d="M 2665 -5399 c -698 1 -1317 5 -1375 10 -58 4 -141 13 -185 19 -44 6 -115 20 -157 30 -43 11 -108 31 -145 46 -38 15 -102 47 -144 71 -42 25 -105 67 -140 93 -35 26 -103 88 -150 137 -47 49 -108 122 -136 163 -28 42 -69 112 -92 157 -22 45 -52 122 -66 170 -14 48 -32 127 -40 175 -8 48 -19 160 -25 250 -8 113 -10 567 -7 1488 3 927 7 1351 15 1410 7 47 19 121 27 165 9 44 25 109 37 145 11 36 37 99 58 141 20 42 60 110 89 153 28 42 99 125 159 184 59 60 141 131 182 159 41 28 112 69 157 92 45 22 122 52 170 66 48 14 127 32 175 40 48 8 163 19 255 25 117 8 564 11 1463 8 956 -2 1322 -6 1398 -16 56 -6 136 -19 177 -27 41 -8 104 -24 140 -35 36 -11 100 -37 143 -59 44 -21 114 -62 158 -91 43 -29 127 -102 186 -162 60 -59 131 -143 160 -186 28 -42 68 -112 89 -154 22 -42 50 -117 64 -165 14 -48 32 -128 40 -178 8 -49 19 -160 25 -245 8 -106 10 -581 7 -1490 -3 -907 -8 -1360 -16 -1412 -6 -43 -18 -115 -26 -160 -9 -46 -25 -112 -37 -148 -11 -36 -37 -99 -58 -141 -20 -42 -61 -111 -90 -155 -29 -43 -101 -127 -159 -185 -58 -58 -140 -129 -181 -156 -41 -28 -112 -69 -157 -92 -45 -22 -122 -52 -170 -66 -48 -14 -128 -32 -178 -40 -49 -8 -153 -19 -230 -25 -87 -6 -618 -9 -1410 -9 z " />
  </g>
</svg>