<?xml version="1.0" encoding="utf-8"?>
<!DOCTYPE svg PUBLIC "-//W3C//DTD SVG 20010904//EN" "http://www.w3.org/TR/2001/REC-SVG-20010904/DTD/svg10.dtd">
<svg version="1.0" width="192pt" height="192pt" viewBox="0 0 192 192" preserveAspectRatio="xMidYMid meet" xmlns="http://www.w3.org/2000/svg">
  <g transform="translate(0,192)scale(.075,.075)">
    <path id="path1" d="M 1280 -2480 l -5 0 -140 140 -140 140 -8 0 -8 0 -77 32 -76 31 -85 58 -86 57 -66 69 -65 68 -41 60 -40 60 -25 50 -25 50 -18 50 -18 50 -141 143 -141 142 141 142 141 143 18 50 17 50 39 73 39 73 44 58 44 57 64 59 63 60 58 37 57 38 48 24 47 23 50 18 50 18 143 141 142 141 142 -141 143 -141 50 -18 50 -18 50 -25 50 -25 55 -36 55 -36 63 -60 64 -59 44 -57 44 -58 39 -73 39 -73 17 -50 18 -50 141 -143 141 -142 -141 -142 -141 -143 -18 -50 -17 -50 -39 -73 -39 -73 -44 -58 -44 -57 -64 -59 -63 -60 -58 -38 -58 -39 -72 -33 -72 -33 -26 -7 -26 -6 -139 -140 -139 -139 -5 0 z m 39 527 l 75 5 55 14 56 15 54 24 54 25 62 45 63 45 44 50 43 49 34 56 34 55 23 64 23 63 11 82 11 81 -11 81 -11 82 -23 63 -23 64 -34 57 -34 57 -70 71 -71 70 -57 34 -57 34 -64 23 -63 23 -82 11 -81 11 -81 -11 -82 -11 -63 -23 -64 -23 -57 -34 -57 -34 -71 -70 -70 -71 -34 -57 -34 -57 -23 -64 -23 -63 -11 -82 -11 -81 11 -81 11 -82 23 -63 23 -64 34 -57 34 -57 70 -71 71 -70 57 -34 57 -34 65 -23 65 -24 62 -9 63 -9 74 5 z " />
  </g>
</svg>