<?xml version="1.0" encoding="utf-8"?>
<!DOCTYPE svg PUBLIC "-//W3C//DTD SVG 20010904//EN" "http://www.w3.org/TR/2001/REC-SVG-20010904/DTD/svg10.dtd">
<svg version="1.0" width="192pt" height="192pt" viewBox="0 0 192 192" preserveAspectRatio="xMidYMid meet" xmlns="http://www.w3.org/2000/svg">
  <g transform="translate(0,192)scale(.075,.075)">
    <path id="path1" d="M 1043 -1680 l -48 0 -41 25 -41 24 -26 38 -26 38 -10 28 -11 28 0 67 0 67 23 55 23 55 43 64 43 64 88 101 88 101 67 65 67 65 119 -124 119 -123 65 -87 66 -86 31 -64 32 -64 4 -63 4 -64 -6 -33 -6 -34 -31 -47 -31 -46 -42 -25 -43 -25 -47 0 -48 0 -35 17 -35 16 -59 56 -59 57 -58 -56 -57 -56 -37 -17 -36 -17 -49 0 z " />
  </g>
</svg>