<?xml version="1.0" encoding="utf-8"?>
<!DOCTYPE svg PUBLIC "-//W3C//DTD SVG 20010904//EN" "http://www.w3.org/TR/2001/REC-SVG-20010904/DTD/svg10.dtd">
<svg version="1.0" width="192pt" height="192pt" viewBox="0 0 192 192" preserveAspectRatio="xMidYMid meet" xmlns="http://www.w3.org/2000/svg">
  <g transform="translate(0,192)scale(.075,.075)">
    <path id="path1" d="M 1304 -2245 l -112 -4 -3 3 -4 4 -50 6 -50 6 -35 9 -35 9 -40 12 -40 12 -49 24 -50 24 -105 0 -106 0 -102 102 -103 103 0 105 0 106 -24 50 -24 49 -12 40 -12 40 -9 35 -9 35 -7 50 -7 50 0 95 0 95 7 50 7 50 9 35 9 35 12 40 12 40 24 49 24 50 0 105 0 106 102 102 103 103 105 0 106 0 50 24 49 24 40 12 40 12 35 9 35 9 50 7 50 7 95 1 95 0 50 -8 50 -7 37 -10 38 -10 37 -11 38 -11 49 -24 50 -24 106 0 105 0 103 -103 102 -102 0 -106 0 -105 24 -50 24 -49 12 -40 12 -40 9 -35 9 -35 7 -50 7 -50 0 -95 0 -95 -7 -50 -7 -50 -9 -35 -9 -35 -12 -40 -12 -40 -24 -49 -24 -50 0 -106 0 -105 -103 -103 -102 -102 -106 0 -105 0 -44 -21 -44 -21 -55 -18 -56 -18 -30 -6 -30 -6 -25 -6 -25 -5 -111 -4 z m 6 300 l 115 4 59 21 60 20 23 15 23 15 0 -6 0 -6 34 26 35 26 10 0 9 0 76 76 76 76 0 9 0 10 26 35 26 34 -6 0 -6 0 15 23 15 23 22 65 22 64 0 135 0 135 -22 64 -22 65 -15 23 -15 23 6 0 6 0 -26 34 -26 35 0 10 0 9 -76 76 -76 76 -9 0 -10 0 -35 26 -34 26 0 -6 0 -6 -23 15 -23 15 -65 22 -64 22 -135 0 -135 0 -64 -22 -65 -22 -23 -15 -23 -15 0 6 0 6 -34 -26 -35 -26 -10 0 -9 0 -76 -76 -76 -76 0 -9 0 -10 -26 -35 -26 -34 6 0 6 0 -15 -23 -15 -23 -22 -65 -22 -64 0 -135 0 -135 22 -64 22 -65 15 -23 15 -23 -6 0 -6 0 26 -34 26 -35 0 -10 0 -9 76 -76 76 -76 9 0 10 0 34 -26 34 -26 6 1 5 1 28 -13 27 -14 55 -16 55 -16 25 -5 25 -5 115 4 z " />
  </g>
</svg>