<?xml version="1.0" encoding="utf-8"?>
<!DOCTYPE svg PUBLIC "-//W3C//DTD SVG 20010904//EN" "http://www.w3.org/TR/2001/REC-SVG-20010904/DTD/svg10.dtd">
<svg version="1.0" width="192pt" height="192pt" viewBox="0 0 192 192" preserveAspectRatio="xMidYMid meet" xmlns="http://www.w3.org/2000/svg">
  <g transform="translate(0,192)scale(.075,.075)">
    <path id="path1" d="M 480 -2560 l -195 0 -143 143 -142 142 0 475 0 475 160 -160 160 -160 0 -200 0 -200 98 -98 97 -97 240 0 240 0 -160 -160 -160 -160 -195 0 z M 1800 -2560 l -475 0 160 160 160 160 200 0 200 0 98 98 97 97 0 240 0 240 160 -160 160 -160 0 -195 0 -195 -143 -143 -142 -142 -475 0 z M 2558 -758 l -3 -472 -157 157 -158 158 0 200 0 200 -98 98 -97 97 -240 0 -240 0 160 160 160 160 195 0 195 0 143 -143 142 -142 -2 -473 z M 318 -753 l -3 -237 -157 157 -158 158 0 195 0 195 143 143 142 142 475 0 475 0 -160 -160 -160 -160 -200 0 -200 0 -98 -97 -97 -98 -2 -238 z " />
  </g>
</svg>