<?xml version="1.0" encoding="utf-8"?>
<!DOCTYPE svg PUBLIC "-//W3C//DTD SVG 20010904//EN" "http://www.w3.org/TR/2001/REC-SVG-20010904/DTD/svg10.dtd">
<svg version="1.0" width="750pt" height="750pt" viewBox="0 0 750 750" preserveAspectRatio="xMidYMid meet" xmlns="http://www.w3.org/2000/svg">

  <defs xmlns="http://www.w3.org/2000/svg">
  <linearGradient id="a" xmlns="http://www.w3.org/2000/svg" x1="0" x2="0" y1="0" y2="1"><stop offset="0" stop-color="#313131"/><stop offset="1" stop-color="#141414"/></linearGradient>
  <linearGradient id="b" xmlns="http://www.w3.org/2000/svg" x1="0" x2="0" y1="0" y2="1"><stop offset="0" stop-color="#1ac9fc"/><stop offset="1" stop-color="#1d6ff2"/></linearGradient>
  </defs>

  <g transform="translate(0,750)scale(.075,.075)">
    <path id="path1" d="M 2970 -9990 c -608 9 -766 15 -945 36 -253 30 -396 61 -610 135 -169 58 -416 197 -579 327 -91 72 -256 237 -328 328 -223 281 -370 613 -433 978 -64 368 -68 568 -69 3216 -1 2716 2 2838 84 3252 43 217 159 507 279 697 151 240 367 463 605 626 110 75 365 200 504 246 222 73 369 98 824 139 153 14 5240 14 5413 0 679 -54 1000 -157 1405 -448 87 -62 329 -293 368 -351 10 -14 33 -45 53 -70 19 -25 64 -93 100 -151 209 -342 302 -665 341 -1179 18 -227 17 -5295 0 -5541 -12 -174 -40 -396 -62 -500 -6 -25 -15 -68 -20 -95 -19 -93 -101 -318 -159 -434 -108 -218 -233 -393 -403 -563 -253 -253 -582 -442 -938 -539 -210 -57 -467 -87 -858 -100 -385 -13 -3866 -20 -4572 -9 z " fill='url(#a)'/>
    <path id="path2" d="M 7405 -8413 c 14 14 16 28 11 83 -12 116 -50 229 -114 335 -55 92 -222 253 -308 298 -77 40 -174 67 -241 67 -54 0 -59 -16 -44 -132 37 -299 260 -550 571 -644 91 -28 104 -29 125 -7 z m 197 836 c 165 47 290 123 385 234 l 48 56 -40 31 c -22 17 -80 72 -130 121 -104 103 -165 210 -190 330 -19 90 -19 270 0 360 19 90 90 232 156 313 51 63 178 166 251 203 21 11 38 24 38 29 0 5 -22 60 -48 123 -128 301 -379 626 -547 708 -67 33 -74 34 -185 34 -113 0 -118 -1 -265 -52 -267 -93 -354 -93 -635 2 -251 85 -341 84 -475 -3 -83 -53 -166 -139 -277 -286 -170 -226 -287 -465 -362 -736 -52 -191 -70 -342 -63 -524 9 -216 45 -363 128 -513 158 -287 428 -453 734 -453 114 0 163 11 410 95 88 30 169 55 180 55 11 0 92 -25 180 -55 270 -94 327 -106 485 -101 104 3 155 10 222 29 z " fill="url(#b)" />
  </g>
</svg>