<?xml version="1.0" encoding="UTF-8" standalone="no"?><svg version="1.1" width="360" height="360" xml:space="preserve" viewBox="0 0 360 360" xmlns:xlink="http://www.w3.org/1999/xlink" xmlns="http://www.w3.org/2000/svg" xmlns:svg="http://www.w3.org/2000/svg"><defs><linearGradient id="c" gradientUnits="userSpaceOnUse" x1="180" y1="299.46616" x2="180" y2="54.545658" gradientTransform="scale(1 1.0000233)"><stop offset="0" stop-color="#ff0030"/><stop offset=".25" stop-color="#ff0040"/><stop offset=".5" stop-color="#ff1c51"/><stop offset=".75" stop-color="#ff3661"/><stop offset="1" stop-color="#ff4a70"/></linearGradient><linearGradient xlink:href="#a" id="b" x1="512" y1="0" x2="512" y2="1024" gradientUnits="userSpaceOnUse" gradientTransform="scale(.3515625)"/><linearGradient id="a"><stop offset="0" stop-color="#313131"/><stop offset=".25" stop-color="#2a292b"/><stop offset=".5" stop-color="#222"/><stop offset=".75" stop-color="#1b1a1b"/><stop offset="1" stop-color="#141413"/></linearGradient></defs><path d="M359.99996 247.38409c0 4.30451 0 8.60125-.03244 12.89795-.02134 3.62366-.06255 7.24727-.15656 10.86312-.09973 7.92225-.79555 15.82581-2.0817 23.64361-1.3383 7.82642-3.83478 15.40241-7.41125 22.48534-7.24902 14.23153-18.81857 25.80163-33.04937 33.05098-7.07961 3.57175-14.6525 6.06718-22.46855 7.40382-7.82604 1.29136-15.73034 1.98791-23.65029 2.08184-3.62013.09355-7.24121.14829-10.86253.16415-4.30432.0251-8.60078.0251-12.89728.0251H112.61c-4.29649 0-8.593 0-12.897309-.0213-3.621284-.01424-7.242356-.06561-10.862529-.15656-7.924739-.10114-15.830578-.79962-23.650302-2.08968-7.818208-1.33053-15.393783-3.83502-22.468539-7.40386-14.229299-7.24798-25.79858-18.81512-33.0493639-33.04341-3.5753885-7.08731-6.0733048-14.6685-7.4112359-22.49315-1.28612763-7.81517-1.98200309-15.71613-2.08172243-23.6358-.09395938-3.62366-.14075907-7.24727-.15659897-10.87091C0 255.98079 0 251.69189 0 247.38738V112.61627c0-4.30456 0-8.60908.0323998-12.9136.0144-3.615836.06263959-7.239458.15659897-10.855261.09971934-7.919676.79570276-15.820636 2.08172243-23.635842 1.3382552-7.8264 3.8347677-15.402385 7.4112359-22.49313C16.930978 28.486914 28.500511 16.916763 42.731321 9.667406c7.077597-3.5699049 14.647631-6.0652453 22.460731-7.4037975C73.018072.9800642 80.922361.283536 88.842312.1818001 92.465796.08784 96.089245.04104 99.704844.0252 104.00919 0 108.31351 0 112.60216 0h134.77999c4.30434 0 8.60866 0 12.90515.0252 3.62129.0144 7.24232.06552 10.86252.1566001 7.91995.1018799 15.82425.7982641 23.64246 2.0818084 7.82602 1.3383363 15.39383 3.8349726 22.47638 7.4037975 14.23435 7.247161 25.80701 18.817672 33.05719 33.051031 3.57236 7.085127 6.06765 14.663672 7.40341 22.485318 1.28626 7.817798 1.98211 15.721348 2.08174 23.643654.09401 3.623615.1407 7.247271.15655 10.863071C360 104.01501 360 108.31171 360 112.60842Z" fill="url(#b)"/><path d="M257.8332 54.59c-.87.08-8.6 1.403994-9.53 1.593994L141.335 77.795l-.04.01c-2.79.59-4.98 1.58-6.67 3-2.04 1.71-3.17 4.23-3.6 7.05-.09.6-.24 1.82-.24 3.62v133.88c0 3.13-.25 6.17-2.37 8.76s-4.7718 3.4-7.8418 4.02l-6.99 1.41c-8.84 1.78-14.589996 3.01-19.799992 5.03-4.98 1.93-8.633208 4.355-11.603208 7.475-5.89 6.17-8.27 14.525-7.45 22.365.7 6.69 3.7 13.09 8.87 17.82 3.49 3.2 7.773208 5.605 12.913204 6.635 5.329996 1.07 11.009996.7 19.309996-.98 4.42-.89 8.5368-2.255 12.4768-4.585 3.9-2.3 7.2632-5.37 9.8732-9.11 2.62-3.75 4.31-7.92 5.24-12.35.96-4.57 1.19-8.7 1.19-13.26V142.35399c0-6.22 1.76-7.88399 6.78-9.10399 0 0 88.94-17.94 93.09-18.75 5.79-1.11 8.52.56399 8.52 6.63399V200.505c0 3.14-.03 6.32-2.17 8.92-2.12 2.59-4.73896 3.36826-7.81 3.99l-6.99237 1.41396c-8.843 1.785-14.59495 2.9984-19.80672 5.02408-4.98169 1.93542-8.71295 4.43819-11.68396 7.56696-5.892 6.18733-8.41926 14.6291-7.61658 22.3035.69959 6.68608 3.91771 13.08233 9.08468 17.80957 3.48796 3.19812 7.84541 5.53754 12.9824 6.57693 5.32688 1.06938 11.00355.66931 19.2987-.99971 4.41741-.88948 8.50237-2.17921 12.44006-4.50785 3.89772-2.29865 7.23576-5.36686 9.84424-9.10467 2.61846-3.7478 4.28058-7.91536 5.21004-12.34277.95944-4.56733 1.05262-8.7 1.05262-13.26V64.95c.00843-2.59687-.35165-4.579691-1.04955-6.12896-.44511-.988121-1.02834-1.808231-1.74307-2.44604-1.50466-1.342741-3.5921-2.010249-6.20049-1.785Z" fill="url(#c)"/></svg>