<?xml version="1.0" encoding="UTF-8" standalone="no"?><svg version="1.1" viewBox="0 0 1024 1024" xml:space="preserve" xmlns:xlink="http://www.w3.org/1999/xlink" xmlns="http://www.w3.org/2000/svg" xmlns:svg="http://www.w3.org/2000/svg"><defs><linearGradient id="b"><stop offset="0" stop-color="#66fe80"/><stop offset=".5" stop-color="#33d94f"/><stop offset="1" stop-color="#00b41e"/></linearGradient><linearGradient id="a"><stop offset="0" stop-color="#303030"/><stop offset=".25" stop-color="#292929"/><stop offset=".5" stop-color="#222"/><stop offset=".75" stop-color="#1b1b1b"/><stop offset="1" stop-color="#141414"/></linearGradient><linearGradient xlink:href="#a" id="c" x1="512" y1="0" x2="512" y2="1024" gradientUnits="userSpaceOnUse"/><linearGradient xlink:href="#b" id="d" x1="516.3634" y1="177.12398" x2="516.3634" y2="835.98059" gradientUnits="userSpaceOnUse"/></defs><path d="M1023.9999 703.6703c0 12.24394 0 24.46578-.0923 36.68749-.0607 10.3073-.1779 20.61447-.4453 30.89954-.2837 22.5344-2.2629 45.01565-5.9213 67.25295-3.8067 22.26183-10.9078 43.8113-21.08088 63.9583-20.61945 40.48081-53.52839 73.39129-94.0071 94.01169-20.13757 10.15963-41.67821 17.25773-63.91054 21.05973-22.26075 3.6732-44.74408 5.6545-67.27194 5.9217-10.29726.2661-20.59722.4218-30.89785.4669-12.2434.0714-24.46445.0714-36.68562.0714H320.3129c-12.22115 0-24.44231 0-36.68569-.0606-10.30054-.0405-20.60048-.1866-30.89786-.4453-22.54148-.2877-45.0292-2.2745-67.27197-5.944-22.23846-3.7846-43.78676-10.9085-63.91051-21.05986-40.474453-20.61649-73.382628-53.51855-94.007081-93.99013-10.169994-20.15946-17.275178-41.72376-21.0808488-63.98053C2.8006217 816.28975.82124261 793.81592.53759651 771.28886c-.26726224-10.3073-.40038136-20.61447-.44543709-30.9217C0 728.12315 0 715.9236 0 703.67966V320.33072c0-12.24407 0-24.48805.09215942-36.73201.04096-10.28505.17817485-20.59224.44543709-30.87719.2836461-22.52708 2.26333229-45.00092 5.92134369-67.23084 3.8065928-22.26176 10.9077838-43.81123 21.0808488-63.98046 20.619436-40.480777 53.52833-73.391427 94.007081-94.011821 20.13183-10.154396 41.66437-17.252253 63.8883-21.0596905C207.69585 2.7877383 230.17916.80650253 252.70702.51712013 263.01382.24985607 273.32052.11673607 283.60489.07168 295.84836 0 308.09175 0 320.29058 0h383.3742c12.24346 0 24.48687 0 36.70798.07168 10.30056.04096 20.60038.18636807 30.89785.44544013 22.52786.289792 45.01119 2.27061817 67.24964 5.92158837 22.26069 3.8068235 43.78692 10.9083665 63.93283 21.0596905 40.48882 20.614147 73.40659 53.525823 94.02934 94.011821 10.16138 20.15325 17.25908 41.71 21.05858 63.95824 3.6587 22.23729 5.638 44.7185 5.9214 67.25306.2674 10.30717.4002 20.61446.4453 30.89941.0923 12.24398.0923 24.46572.0923 36.68746Z" fill="url(#c)"/><path d="M277.356 182.62305c-11.30537 4.51366-21.59099 9.49718-30.72905 14.63281-18.75187 10.53863-34.03672 23.28838-44.58398 38.92969-6.72389 9.97136-11.24303 21.28103-13.32422 33.08398-1.2236 6.93943-1.58106 12.70958-1.57422 17.85156.0164 12.33205 2.81635 27.75489 5.58203 40.04493 2.18429 9.70647 4.36272 17.45878 5.16992 20.19336 2.79491 9.46839 5.96218 18.80957 9.28321 27.86914 4.83782 13.19731 10.69106 26.70956 17.24023 40.24609 14.99002 30.98297 32.20131 59.25701 49.22852 84.13281 11.76475 17.18765 23.44141 32.91533 34.23633 46.63086 9.52644 12.10384 15.55601 19.33548 23.83593 29.20313.00035.00041-.00034.00154 0 .00195.00181.00215.00405.00371.00586.00586 8.19899 9.77086 17.14051 19.78212 26.54883 29.90234 8.8027 9.46879 19.41601 20.24599 29.21484 30.0586 7.37392 7.38429 14.28641 14.2656 19.6211 19.39062 5.47435 5.25919 10.90063 10.36284 16.20508 15.23047 7.57953 6.95537 14.90995 13.42836 21.77343 19.1875 9.06658 7.60777 19.60658 16.44777 31.71094 25.97461 13.71552 10.79492 29.40415 22.47158 46.5918 34.23633 24.8758 17.02721 53.14984 34.24045 84.13281 49.23047 13.53653 6.54917 26.84957 12.40046 40.04688 17.23828 9.05957 3.32103 18.3988 6.49022 27.86718 9.28515 6.19699 1.82925 38.36777 10.76752 60.43946 10.79688 5.14198.00684 10.91213-.35842 17.85156-1.58203 11.80295-2.08118 23.31379-6.71166 33.28515-13.43555 15.64131-10.54726 28.29145-25.75985 38.83008-44.51172 5.13563-9.13806 10.01759-19.32158 14.53125-30.62695 2.83713-7.10617 5.12465-13.37282 5.20313-18.98242.07101-5.07502-1.52525-9.49224-6.21094-14.0918-4.9391-4.84831-13.6738-10.44333-29.19726-20.125-4.72925-2.94953-12.92599-7.97817-22-13.70312-9.07402-5.72497-19.02529-12.19704-28.06055-17.93165-19.60991-12.44627-36.06261-22.80628-48.4375-30.32226-5.0085-3.04195-8.9351-5.39508-12.07227-7.23828-3.31657-1.94861-6.1639-3.57249-8.72265-4.88086-5.72941-2.92963-10.68961-4.2558-14.92188-4.13281-3.713.1079-8.53074 1.01081-14.09375 3.35156-4.09587 1.72342-8.06518 3.87388-12.31836 6.22851-7.658 4.23958-16.57353 9.98788-25.32031 14.77539-3.0462 1.66732-6.37827 3.42348-10.07813 5.28907-7.08377 3.57188-13.19905 6.05982-18.97265 7.60156-5.6112 1.49837-10.80909 2.47139-15.93164 2.43555-7.7108-.05395-14.77126-2.07851-20.78125-5.52539-4.79836-2.75198-10.91605-7.0611-19.0918-13.56446-7.46162-5.77155-14.57474-11.97148-21.79883-18.0332-2.84626-2.3883-6.53601-5.60859-10.79101-9.33789-5.0595-4.4344-10.89744-9.58805-16.77149-14.92383-9.13976-8.30224-18.82069-17.04234-26.08789-24.18359-5.61958-5.52218-8.41361-8.06973-18.61914-19.38672-5.69216-6.31208-11.72036-13.11022-17.75781-19.94336-6.03745-6.83314-12.08493-13.70101-17.81836-20.42188-6.06172-7.22409-16.08197-18.68486-21.85352-26.14648-6.50336-8.17575-10.71091-13.3325-13.46289-18.13086-3.44688-6.00999-5.55717-11.0475-5.625-20.74219-.03584-5.12255.93523-10.32044 2.4336-15.93164 1.54174-5.7736 4.23085-12.3884 7.80273-19.47217 1.86559-3.69986 3.66132-6.6328 5.32863-9.679 4.78751-8.74678 10.83558-17.56192 15.07515-25.21992 2.35463-4.25318 4.5051-8.2225 6.22852-12.31836 5.08671-12.089 4.6199-18.57208-.72022-29.01563-1.30837-2.55875-3.33261-5.40608-5.28122-8.72265-1.8432-3.13717-4.32844-7.06377-7.37039-12.07227-2.80104-4.61184-13.30138-21.76218-18.96852-30.81006-7.2749-11.61474-15.45215-25.31233-28.85348-45.78811-5.87556-8.97723-11.19102-17.03397-14.34554-21.89988-5.76129-8.8869-10.15233-15.78705-13.76944-20.9807-2.63117-3.77799-4.85281-6.65298-6.89445-8.73285-8.66977-8.83212-15.92249-6.9474-32.09257-.49152Z" fill="url(#d)"/></svg>