<?xml version="1.0" encoding="utf-8"?>
<!-- Uploaded to: SVG Repo, www.svgrepo.com, Generator: SVG Repo Mixer Tools -->
<svg fill="#000000" width="800px" height="800px" viewBox="0 0 32 32" version="1.1" xmlns="http://www.w3.org/2000/svg">
<title>brightness-keyboard</title>
<path d="M16 16.223c0.414-0 0.75-0.336 0.75-0.75v0-6.473c0-0.414-0.336-0.75-0.75-0.75s-0.75 0.336-0.75 0.75v0 6.473c0 0.414 0.336 0.75 0.75 0.75v0zM7 22.25h-5c-0.414 0-0.75 0.336-0.75 0.75s0.336 0.75 0.75 0.75v0h5c0.414 0 0.75-0.336 0.75-0.75s-0.336-0.75-0.75-0.75v0zM30 22.25h-5c-0.414 0-0.75 0.336-0.75 0.75s0.336 0.75 0.75 0.75v0h5c0.414 0 0.75-0.336 0.75-0.75s-0.336-0.75-0.75-0.75v0zM10.428 17.47l-4.576-4.577c-0.136-0.141-0.327-0.228-0.538-0.228-0.414 0-0.75 0.336-0.75 0.75 0 0.211 0.087 0.402 0.228 0.538l4.576 4.578c0.136 0.135 0.322 0.218 0.528 0.218 0.414 0 0.75-0.336 0.75-0.75 0-0.206-0.083-0.393-0.218-0.529l0 0zM27.211 12.893c-0.136-0.136-0.324-0.22-0.531-0.22s-0.395 0.084-0.531 0.22v0l-4.578 4.577c-0.136 0.136-0.22 0.324-0.22 0.531 0 0.415 0.336 0.751 0.751 0.751 0.207 0 0.395-0.084 0.531-0.22v0l4.578-4.578c0.135-0.136 0.219-0.323 0.219-0.53s-0.084-0.394-0.219-0.53l0 0zM21 22.25h-10c-0.414 0-0.75 0.336-0.75 0.75s0.336 0.75 0.75 0.75v0h10c0.414 0 0.75-0.336 0.75-0.75s-0.336-0.75-0.75-0.75v0z"></path>
</svg>