<?xml version="1.0" encoding="utf-8"?>
<!DOCTYPE svg PUBLIC "-//W3C//DTD SVG 20010904//EN" "http://www.w3.org/TR/2001/REC-SVG-20010904/DTD/svg10.dtd">
<svg version="1.0" width="660.815pt" height="461.242pt" viewBox="0 0 660.815 461.242" preserveAspectRatio="xMidYMid meet" xmlns="http://www.w3.org/2000/svg">
  <g transform="translate(.11,461.308)scale(.075,.075)">
    <path id="path1" d="M 433 -6135 c -206 45 -374 215 -418 422 -22 102 -22 5174 0 5276 43 204 211 375 413 421 46 11 787 14 3967 15 4280 1 3975 5 4108 -58 87 -41 207 -160 248 -246 61 -131 58 46 58 -2767 1 -2219 -1 -2587 -14 -2643 -46 -209 -214 -376 -422 -420 -99 -21 -7844 -21 -7940 0 z m 7932 309 c 59 28 96 65 124 124 20 40 21 58 21 497 l 0 455 -4105 0 -4105 0 0 -452 c 0 -434 1 -455 21 -498 27 -60 64 -98 124 -126 l 50 -24 3910 0 3910 0 50 24 z m 145 3348 c 0 1972 -1 1983 -21 2028 -26 59 -63 97 -121 126 l -48 24 -3912 0 -3913 0 -45 -21 c -60 -27 -98 -64 -126 -124 l -24 -50 0 -1983 0 -1982 4105 0 4105 0 0 1982 z M 4440 -5395 l 0 145 950 0 950 0 0 -145 0 -145 -950 0 -950 0 0 145 z M 3250 -5385 l 0 145 470 0 470 0 0 -145 0 -145 -470 0 -470 0 0 145 z M 960 -5375 l 0 145 570 0 570 0 0 -145 0 -145 -570 0 -570 0 0 145 z M 2450 -5375 l 0 145 230 0 230 0 0 -145 0 -145 -230 0 -230 0 0 145 z M 5200 -3875 c -182 41 -346 180 -406 345 -29 80 -42 183 -32 246 l 9 58 -757 757 -757 757 -56 7 c -236 27 -398 182 -425 405 -8 66 4 144 35 225 31 85 149 203 234 234 196 74 378 34 512 -112 65 -70 105 -165 118 -278 l 7 -56 757 -757 757 -757 58 9 c 113 18 272 -26 375 -104 115 -86 189 -207 218 -351 26 -131 -8 -198 -99 -198 -35 0 -47 9 -152 114 l -114 114 -53 -13 c -30 -7 -82 -21 -116 -32 -60 -18 -63 -20 -74 -61 -6 -23 -19 -73 -30 -112 l -19 -70 109 -110 c 61 -60 115 -123 121 -139 14 -37 -3 -91 -35 -112 -33 -22 -111 -26 -185 -9 z m -9 220 c -95 96 -122 128 -117 142 6 16 39 131 75 270 7 24 20 47 31 53 18 10 306 90 324 90 5 0 63 -53 128 -118 l 120 -117 -7 50 c -10 75 -67 187 -125 249 -30 32 -81 70 -123 93 l -72 38 -138 1 -138 0 -790 790 -789 789 -9 93 c -15 141 -72 227 -189 284 -60 30 -75 33 -152 32 -75 0 -92 -4 -145 -31 -72 -38 -123 -89 -161 -163 -23 -47 -28 -68 -28 -140 -1 -77 2 -92 32 -152 57 -117 143 -174 284 -189 l 93 -9 789 -789 789 -789 1 -139 c 1 -136 2 -139 35 -202 76 -146 232 -253 380 -260 21 -1 3 21 -98 124 z M 4849 -2951 c -27 26 -49 53 -49 60 0 7 11 23 25 36 13 14 29 25 36 25 15 0 109 -94 109 -109 0 -15 -46 -61 -61 -61 -7 0 -34 22 -60 49 z M 4745 -2840 c -27 11 -1085 1072 -1085 1088 0 17 45 62 62 62 16 0 1077 -1058 1088 -1085 15 -38 -27 -80 -65 -65 z M 3151 -1544 c -171 46 -262 206 -215 375 15 54 27 73 78 125 52 51 71 63 125 78 241 67 446 -154 366 -394 -46 -137 -211 -223 -354 -184 z m 173 128 c 114 66 117 249 6 322 -102 68 -242 23 -286 -91 -33 -87 4 -193 83 -234 56 -29 144 -28 197 3 z " />
  </g>
</svg>