<?xml version="1.0" encoding="UTF-8" standalone="no"?>
<svg
   id="Layer_1"
   data-name="Layer 1"
   viewBox="0 0 767.40668 738.31421"
   version="1.1"
   sodipodi:docname="ubuntu.svg"
   inkscape:version="1.2.2 (b0a8486541, 2022-12-01)"
   xmlns:inkscape="http://www.inkscape.org/namespaces/inkscape"
   xmlns:sodipodi="http://sodipodi.sourceforge.net/DTD/sodipodi-0.dtd"
   xmlns="http://www.w3.org/2000/svg"
   xmlns:svg="http://www.w3.org/2000/svg">
  <sodipodi:namedview
     id="namedview77"
     pagecolor="#ffffff"
     bordercolor="#000000"
     borderopacity="0.25"
     inkscape:showpageshadow="2"
     inkscape:pageopacity="0.0"
     inkscape:pagecheckerboard="0"
     inkscape:deskcolor="#d1d1d1"
     showgrid="false"
     inkscape:zoom="1.0903217"
     inkscape:cx="384.74883"
     inkscape:cy="370.99143"
     inkscape:window-width="927"
     inkscape:window-height="1011"
     inkscape:window-x="20"
     inkscape:window-y="20"
     inkscape:window-maximized="0"
     inkscape:current-layer="Layer_1" />
  <defs
     id="defs62">
    <style
       id="style60">.cls-1{fill:#e9500e;}</style>
  </defs>
  <path
     id="circle196"
     class="cls-1"
     d="M 563.08398,0 A 109.02698,109.02698 0 0 0 454.05664,109.02734 109.02698,109.02698 0 0 0 563.08398,218.05469 109.02698,109.02698 0 0 0 672.11133,109.02734 109.02698,109.02698 0 0 0 563.08398,0 Z M 413.14062,11.042969 C 285.28686,10.307688 164.22246,79.502712 100.61523,191.73828 c 2.767,-0.15186 5.53481,-0.22611 8.30469,-0.22461 a 157.34626,157.34626 0 0 1 82.6836,23.54492 265.90653,265.90653 0 0 1 214.10742,-114.50976 158.0877,158.0877 0 0 1 33.07617,-88.419924 c -8.56892,-0.678603 -17.1229,-1.036919 -25.64649,-1.085937 z M 708.11133,170.72266 a 157.14441,157.14441 0 0 1 -61.31055,71.80273 267.293,267.293 0 0 1 -8.73633,265.48828 156.34677,156.34677 0 0 1 52.17188,81.22656 356.70056,356.70056 0 0 0 17.875,-418.51757 z M 109.02734,239.06641 A 109.02696,109.02696 0 0 0 0,348.09375 109.02696,109.02696 0 0 0 109.02734,457.12109 109.02696,109.02696 0 0 0 218.05469,348.09375 109.02696,109.02696 0 0 0 109.02734,239.06641 Z m 64.82227,251.52148 a 156.94784,156.94784 0 0 1 -93.218751,11.45899 354.93524,354.93524 0 0 0 255.537111,214.16406 359.20777,359.20777 0 0 0 77.41797,7.96679 156.00313,156.00313 0 0 1 -31.92188,-91.15429 c -8.97976,-0.99752 -17.94874,-2.45567 -26.74414,-4.33789 A 265.52505,265.52505 0 0 1 173.84961,490.58789 Z m 364.66992,29.67188 A 109.02698,109.02698 0 0 0 429.49414,629.28711 109.02698,109.02698 0 0 0 538.51953,738.31445 109.02698,109.02698 0 0 0 647.54688,629.28711 109.02698,109.02698 0 0 0 538.51953,520.25977 Z" />
</svg>
