<?xml version="1.0" encoding="UTF-8" standalone="no"?><svg xml:space="preserve" version="1.1" viewBox="0 0 800 800" xmlns:xlink="http://www.w3.org/1999/xlink" xmlns="http://www.w3.org/2000/svg" xmlns:svg="http://www.w3.org/2000/svg"><defs><linearGradient id="a"><stop offset="0" stop-color="#1ac8fb"/><stop offset="1" stop-color="#1d70f1"/></linearGradient><linearGradient xlink:href="#a" id="b" gradientUnits="userSpaceOnUse" gradientTransform="translate(5.5998367 10.15603) scale(.99016962)" x1="398.31082" y1="-10.256859" x2="398.31082" y2="797.68555"/></defs><path d="M799.99992 549.74242c0 9.56558 0 19.11389-.07211 28.6621-.04742 8.05258-.13898 16.10506-.34789 24.14027-.22164 17.605-1.76789 35.16848-4.62601 52.54137-2.97399 17.39205-8.52172 34.22757-16.46944 49.96742-16.10895 31.62563-41.81906 57.33694-73.44305 73.44663-15.73247 7.93721-32.5611 13.4826-49.93011 16.45291-17.39121 2.86969-34.95631 4.41758-52.5562 4.62633-8.04473.20789-16.09158.32953-24.13895.36477C568.85101 800 559.30331 800 549.75552 800H250.24445c-9.54777 0-19.09555 0-28.66069-.04734-8.0473-.03164-16.09413-.14579-24.13896-.34789-17.61053-.22477-35.17906-1.77696-52.55622-4.64375-17.3738-2.95672-34.20841-8.52227-49.930088-16.45302-31.620666-16.10663-57.330178-41.81137-73.443032-73.42979-7.945308-15.74958-13.4962327-32.59669-16.469413-49.98479-2.8580613-17.36705-4.40445121-34.92473-4.62604973-52.524-.20879862-8.05258-.31279793-16.10505-.34799772-24.15758C0 568.84621 0 559.31531 0 549.74973V250.25837c0-9.56567 0-19.13128.07199955-28.69688.032-8.03519.1391991-16.08769.34799772-24.1228.22159852-17.59928 1.76822833-35.15697 4.62604973-52.5241 2.9739007-17.392 8.521706-34.22752 16.469413-49.984731 16.108935-31.625607 41.819008-57.337052 73.443032-73.446735C110.68648 13.550002 127.50878 8.0048016 144.87123 5.030241 162.26238 2.1779205 179.82747.6300801 197.42736.4040001 205.47955.19520005 213.53166.09120005 221.56632.056 231.13153 0 240.69668 0 250.22702 0h299.51109c9.5652 0 19.13037 0 28.67811.056 8.04731.032 16.09405.14560005 24.13894.3480001 17.59989.2264 35.165 1.7739204 52.53879 4.6262409 17.39116 2.9740809 34.20853 8.522161 49.94752 16.452883 31.63189 16.104803 57.3489 41.817049 73.46042 73.446735 7.93858 15.744731 13.48366 32.585941 16.45202 49.967371 2.85836 17.37289 4.40468 34.93633 4.62609 52.54146.20891 8.05247.31266 16.10504.34789 24.14016C800 231.14446 800 240.6927 800 250.24093Z" fill="url(#b)"/><path d="M447.39453 144.77539c-3.4791-.08917-6.95699.35584-10.31641 1.35156-9.01197 2.67112-17.18581 9.31356-23.52929 20.30078l-13.3711 23.11524-10.27929-18.03125c-4.55544-7.8157-13.48021-26.56055-36.60547-26.56055-5.68538 0-11.41998 1.17022-16.7207 4.19922-12.12661 7.0013-18.45481 20.66076-17.3711 33.1875.53468 6.18045 2.51652 12.29063 5.60938 17.70313l34.76953 59.95312-115.63086 200.32031h-89.4043c-10.0005 0-20.71047 3.92584-27.2207 10.29883-6.51022 6.373-10.52149 15.19469-10.52149 24.98438 0 9.78969 4.01127 18.60942 10.52149 24.98242 6.51023 6.37299 17.2202 10.29883 27.2207 10.29883h320.73047c8.81043-16.51263 5.29325-37.20792-6.55078-51.90625-8.87394-11.01249-22.44546-18.65821-38.88281-18.65821H325.36914L474.72852 201.6582c12.19365-18.99883 6.51701-42.39122-10.44532-52.08398-5.28493-3.01997-11.09016-4.65022-16.88867-4.79883zm5.18164 135.85742c-5.36116 4.29222-11.54173 12.79315-16.09765 21.4375-5.82773 11.05747-9.91899 24.52333-10.69336 40.22657-.88715 17.99016 3.12193 38.34537 14.31054 57.7246 28.28774 49.07636 70.91046 122.73828 127.67578 221.17579 9.01855 15.62058 16.96279 20.48413 26.41211 22.68945 9.35167 2.18253 17.45681.80454 25.45118-3.76367 7.20468-4.15962 12.1165-10.11993 14.82421-16.85547 4.14344-10.30696 2.5862-23.36527-3.19726-33.48633l-33.94922-58.9082h48.125c10.0005 0 20.71047-3.92584 27.2207-10.29883 6.51022-6.373 10.52149-15.19273 10.52149-24.98242 0-9.78969-4.01127-18.61138-10.52149-24.98438-6.51023-6.37299-17.2202-10.29687-27.2207-10.29687h-88.93164c-46.18637-79.97892-80.76432-139.93664-103.92969-179.67774zM215.75 545.08203c-.97086-.01423-1.94999-.0135-2.93359.00586-8.20304.16142-15.18448 1.36205-19.73829 3.12305l-23.95703 41.57031c-5.78346 10.12106-7.37 23.17937-3.22656 33.48633 2.70771 6.73554 7.61954 12.69585 14.82422 16.85547 7.99437 4.56821 16.0995 5.9462 25.45117 3.76367 9.44932-2.20532 17.36426-7.06887 26.38281-22.68945 8.74372-15.1626 30.61524-53.06446 30.61524-53.06446-7.87092-10.58555-18.08987-16.84775-28.96094-20.34765-5.23505-1.6854-11.661-2.6035-18.45703-2.70313z" fill="#fff"/></svg>