<?xml version="1.0" encoding="UTF-8" standalone="no"?>
<!-- Created with Inkscape (http://www.inkscape.org/) -->

<svg
   width="148.66351mm"
   height="148.67802mm"
   viewBox="0 0 148.66351 148.67802"
   version="1.1"
   id="svg5"
   inkscape:version="1.1.2 (b8e25be833, 2022-02-05)"
   sodipodi:docname="awa.svg"
   xmlns:inkscape="http://www.inkscape.org/namespaces/inkscape"
   xmlns:sodipodi="http://sodipodi.sourceforge.net/DTD/sodipodi-0.dtd"
   xmlns="http://www.w3.org/2000/svg"
   xmlns:svg="http://www.w3.org/2000/svg">
  <sodipodi:namedview
     id="namedview7"
     pagecolor="#ffffff"
     bordercolor="#666666"
     borderopacity="1.0"
     inkscape:pageshadow="2"
     inkscape:pageopacity="0.0"
     inkscape:pagecheckerboard="0"
     inkscape:document-units="mm"
     showgrid="false"
     inkscape:zoom="0.64052329"
     inkscape:cx="455.09665"
     inkscape:cy="515.20375"
     inkscape:window-width="1920"
     inkscape:window-height="1017"
     inkscape:window-x="-8"
     inkscape:window-y="-8"
     inkscape:window-maximized="1"
     inkscape:current-layer="layer1" />
  <defs
     id="defs2" />
  <g
     inkscape:label="Layer 1"
     inkscape:groupmode="layer"
     id="layer1"
     transform="translate(-11.174503,-8.2697582)">
    <g
       id="g838"
       transform="matrix(0.14517921,0,0,0.14517921,11.174503,8.2697582)">
	<path
   fill="#ffffff"
   enable-background="new    "
   d="M 227.6,0 H 796.5 C 922.1,0 1024,101.9 1024,227.6 v 568.9 c 0,125.7 -101.9,227.6 -227.6,227.6 H 227.6 C 101.9,1024 0,922.1 0,796.4 V 227.6 C 0,101.9 101.9,0 227.6,0 Z"
   id="path824" />

	<g
   id="g836">
		<path
   fill="#fa9012"
   d="m 883.2,413.1 -70.4,-55.6 v 0 -126.4 c 0,-8.6 -3.4,-11 -9.5,-11 h -64.4 c -7,0 -11.3,1.4 -11.3,11 v 59.1 0 C 634.5,216.7 533.6,137 529.8,134 c -7.6,-6 -12.3,-7.6 -17.8,-7.6 -5.4,0 -10.1,1.6 -17.8,7.6 -7.6,6 -343.2,271.1 -353.4,279.1 -12.4,9.8 -8.9,23.9 4.9,23.9 h 65.5 v 355.6 c 0,23 9.2,32.2 31.1,32.2 h 539.4 c 21.9,0 31.1,-9.2 31.1,-32.2 V 436.9 h 65.5 c 13.8,0 17.3,-14 4.9,-23.8 z M 757.6,742.6 c 0,15.9 -8.2,26.9 -24.8,26.9 H 291.1 c -16.6,0 -24.8,-11 -24.8,-26.9 V 410.3 c 0,-19.3 8.4,-31.6 18.1,-39.2 L 496.8,203.4 c 5.6,-4.4 10.4,-6.3 15.1,-6.3 4.7,0 9.5,1.9 15.1,6.4 l 212.4,167.7 c 9.6,7.6 18.1,19.9 18.1,39.2 v 332.2 z"
   id="path826" />

		<path
   fill="#ffab1f"
   d="M 739.6,371.1 527.1,203.3 c -5.6,-4.4 -10.6,-6.3 -15.1,-6.3 -4.6,0 -9.5,1.9 -15.1,6.4 L 284.4,371.1 c -9.6,7.6 -18.1,19.9 -18.1,39.2 v 332.3 c 0,15.9 8.2,26.9 24.8,26.9 h 441.7 c 16.6,0 24.8,-11 24.8,-26.9 V 410.3 c 0,-19.3 -8.4,-31.6 -18,-39.2 z m -37,321.6 c 0,14.8 -8.4,21.7 -20.7,21.7 H 342.2 c -12.3,0 -20.7,-6.9 -20.7,-21.7 V 433.2 c 0,-14.4 3.4,-22.6 13.6,-30.7 5.8,-4.6 160.3,-126.6 164.4,-129.8 4.1,-3.3 8.5,-4.9 12.5,-4.9 4,0 8.4,1.7 12.5,4.9 4.1,3.3 158.6,125.3 164.4,129.8 10.2,8.1 13.6,16.4 13.6,30.7 z"
   id="path828" />

		<path
   fill="#ffbe41"
   d="M 688.9,402.5 C 683.1,398 528.6,275.9 524.5,272.7 c -4.1,-3.3 -8.5,-4.9 -12.5,-4.9 -4,0 -8.4,1.7 -12.5,4.9 -4.1,3.3 -158.6,125.3 -164.4,129.8 -10.2,8.1 -13.6,16.4 -13.6,30.7 v 259.5 c 0,14.8 8.4,21.7 20.7,21.7 h 339.7 c 12.3,0 20.7,-6.9 20.7,-21.7 V 433.2 c -0.1,-14.3 -3.5,-22.6 -13.7,-30.7 z m -41.5,240.3 c 0,11.9 -6.6,16.5 -15.6,16.5 H 392.2 c -9,0 -15.6,-4.6 -15.6,-16.5 V 456.2 c 0,-8.3 0,-14.9 9.1,-22.2 6,-4.8 113.2,-89.4 116.4,-91.9 3.2,-2.5 6.4,-3.8 9.9,-3.8 3.6,0.1 7.1,1.5 9.9,3.8 3.2,2.5 110.4,87.1 116.4,91.9 9.1,7.3 9.1,13.9 9.1,22.2 z"
   id="path830" />

		<path
   fill="#ffd260"
   d="m 638.3,434 c -6,-4.8 -113.2,-89.4 -116.4,-91.9 -2.8,-2.4 -6.3,-3.7 -9.9,-3.8 -3.5,0 -6.7,1.3 -9.9,3.8 -3.2,2.5 -110.5,87.1 -116.4,91.9 -9.1,7.3 -9.1,13.9 -9.1,22.2 v 186.6 c 0,11.9 6.6,16.5 15.6,16.5 h 239.5 c 9,0 15.6,-4.6 15.6,-16.5 V 456.2 c 0.1,-8.4 0.1,-15 -9,-22.2 z m -46,159 c 0,9.2 -4.6,11.2 -11,11.2 H 442.8 c -6.4,0 -11,-2.1 -11,-11.2 V 479.1 c 0,-6.4 2.9,-12.6 7.8,-16.6 2.8,-2.3 63,-49.4 65.1,-51.1 4.2,-3.5 10.4,-3.5 14.6,0 2.2,1.7 62.3,48.8 65.1,51.1 5,4.1 7.9,10.2 7.8,16.6 z"
   id="path832" />

		<path
   fill="#ffe780"
   d="m 512,604.1 h 69.2 c 6.4,0 11,-2.1 11,-11.2 V 479.1 c 0,-6.4 -2.9,-12.6 -7.8,-16.6 -2.8,-2.3 -63,-49.4 -65.1,-51.1 -4.2,-3.5 -10.4,-3.5 -14.6,0 -2.1,1.7 -62.3,48.8 -65.1,51.1 -5,4.1 -7.9,10.2 -7.8,16.6 v 113.8 c 0,9.2 4.6,11.2 11,11.2 z"
   id="path834" />

	</g>

<g
   id="g863">
		<path
   fill="#fa9012"
   d="m 883.2,413.1 -70.4,-55.6 v 0 -126.4 c 0,-8.6 -3.4,-11 -9.5,-11 h -64.4 c -7,0 -11.3,1.4 -11.3,11 v 59.1 0 C 634.5,216.7 533.6,137 529.8,134 c -7.6,-6 -12.3,-7.6 -17.8,-7.6 -5.4,0 -10.1,1.6 -17.8,7.6 -7.6,6 -343.2,271.1 -353.4,279.1 -12.4,9.8 -8.9,23.9 4.9,23.9 h 65.5 v 355.6 c 0,23 9.2,32.2 31.1,32.2 h 539.4 c 21.9,0 31.1,-9.2 31.1,-32.2 V 436.9 h 65.5 c 13.8,0 17.3,-14 4.9,-23.8 z M 757.6,742.6 c 0,15.9 -8.2,26.9 -24.8,26.9 H 291.1 c -16.6,0 -24.8,-11 -24.8,-26.9 V 410.3 c 0,-19.3 8.4,-31.6 18.1,-39.2 L 496.8,203.4 c 5.6,-4.4 10.4,-6.3 15.1,-6.3 4.7,0 9.5,1.9 15.1,6.4 l 212.4,167.7 c 9.6,7.6 18.1,19.9 18.1,39.2 v 332.2 z"
   id="path853" />

		<path
   fill="#ffab1f"
   d="M 739.6,371.1 527.1,203.3 c -5.6,-4.4 -10.6,-6.3 -15.1,-6.3 -4.6,0 -9.5,1.9 -15.1,6.4 L 284.4,371.1 c -9.6,7.6 -18.1,19.9 -18.1,39.2 v 332.3 c 0,15.9 8.2,26.9 24.8,26.9 h 441.7 c 16.6,0 24.8,-11 24.8,-26.9 V 410.3 c 0,-19.3 -8.4,-31.6 -18,-39.2 z m -37,321.6 c 0,14.8 -8.4,21.7 -20.7,21.7 H 342.2 c -12.3,0 -20.7,-6.9 -20.7,-21.7 V 433.2 c 0,-14.4 3.4,-22.6 13.6,-30.7 5.8,-4.6 160.3,-126.6 164.4,-129.8 4.1,-3.3 8.5,-4.9 12.5,-4.9 4,0 8.4,1.7 12.5,4.9 4.1,3.3 158.6,125.3 164.4,129.8 10.2,8.1 13.6,16.4 13.6,30.7 z"
   id="path855" />

		<path
   fill="#ffbe41"
   d="M 688.9,402.5 C 683.1,398 528.6,275.9 524.5,272.7 c -4.1,-3.3 -8.5,-4.9 -12.5,-4.9 -4,0 -8.4,1.7 -12.5,4.9 -4.1,3.3 -158.6,125.3 -164.4,129.8 -10.2,8.1 -13.6,16.4 -13.6,30.7 v 259.5 c 0,14.8 8.4,21.7 20.7,21.7 h 339.7 c 12.3,0 20.7,-6.9 20.7,-21.7 V 433.2 c -0.1,-14.3 -3.5,-22.6 -13.7,-30.7 z m -41.5,240.3 c 0,11.9 -6.6,16.5 -15.6,16.5 H 392.2 c -9,0 -15.6,-4.6 -15.6,-16.5 V 456.2 c 0,-8.3 0,-14.9 9.1,-22.2 6,-4.8 113.2,-89.4 116.4,-91.9 3.2,-2.5 6.4,-3.8 9.9,-3.8 3.6,0.1 7.1,1.5 9.9,3.8 3.2,2.5 110.4,87.1 116.4,91.9 9.1,7.3 9.1,13.9 9.1,22.2 z"
   id="path857" />

		<path
   fill="#ffd260"
   d="m 638.3,434 c -6,-4.8 -113.2,-89.4 -116.4,-91.9 -2.8,-2.4 -6.3,-3.7 -9.9,-3.8 -3.5,0 -6.7,1.3 -9.9,3.8 -3.2,2.5 -110.5,87.1 -116.4,91.9 -9.1,7.3 -9.1,13.9 -9.1,22.2 v 186.6 c 0,11.9 6.6,16.5 15.6,16.5 h 239.5 c 9,0 15.6,-4.6 15.6,-16.5 V 456.2 c 0.1,-8.4 0.1,-15 -9,-22.2 z m -46,159 c 0,9.2 -4.6,11.2 -11,11.2 H 442.8 c -6.4,0 -11,-2.1 -11,-11.2 V 479.1 c 0,-6.4 2.9,-12.6 7.8,-16.6 2.8,-2.3 63,-49.4 65.1,-51.1 4.2,-3.5 10.4,-3.5 14.6,0 2.2,1.7 62.3,48.8 65.1,51.1 5,4.1 7.9,10.2 7.8,16.6 z"
   id="path859" />

		<path
   fill="#ffe780"
   d="m 512,604.1 h 69.2 c 6.4,0 11,-2.1 11,-11.2 V 479.1 c 0,-6.4 -2.9,-12.6 -7.8,-16.6 -2.8,-2.3 -63,-49.4 -65.1,-51.1 -4.2,-3.5 -10.4,-3.5 -14.6,0 -2.1,1.7 -62.3,48.8 -65.1,51.1 -5,4.1 -7.9,10.2 -7.8,16.6 v 113.8 c 0,9.2 4.6,11.2 11,11.2 z"
   id="path861" />

	</g>
</g>
  </g>
</svg>
