<?xml version="1.0" encoding="UTF-8" standalone="no"?><svg width="896.2135" height="896.21344" viewBox="0 0 237.12315 237.12314" version="1.1" xml:space="preserve" xmlns:xlink="http://www.w3.org/1999/xlink" xmlns="http://www.w3.org/2000/svg" xmlns:svg="http://www.w3.org/2000/svg"><defs><linearGradient id="a" spreadMethod="pad" gradientTransform="matrix(0 6721.65 6721.65 0 5705.83 2205)" gradientUnits="userSpaceOnUse" y2="0" x2="1" y1="0" x1="0"><stop offset="0" stop-color="#1ac7fc"/><stop offset=".25" stop-color="#1ab2f9"/><stop offset=".5" stop-color="#1b9cf7"/><stop offset=".75" stop-color="#1c86f4"/><stop offset="1" stop-color="#1d70f2"/></linearGradient><linearGradient xlink:href="#a" id="b" gradientUnits="userSpaceOnUse" gradientTransform="rotate(-90 177.8407 59.28243) scale(237.12489)" x1="0" y1="0" x2="1" y2="0" spreadMethod="pad"/></defs><path d="M237.12312 162.94581c0 2.83527 0 5.66543-.02138 8.49556-.01404 2.38681-.04118 4.7736-.10311 7.15527-.06568 5.21819-.52401 10.42407-1.37117 15.57346-.88149 5.15508-2.52587 10.14519-4.8816 14.81054-4.77475 9.37396-12.39533 16.9949-21.76881 21.76987-4.66316 2.35262-9.65124 3.99629-14.79948 4.8767-5.15482.8506-10.36118 1.30941-15.57786 1.37128-2.38449.06162-4.76961.09765-7.15488.10811-2.83515.01653-5.66512.01653-8.49512.01653H74.17344c-2.83 0-5.66 0-8.49514-.01404-2.38525-.00936-4.77037-.04321-7.15489-.10311-5.21983-.06662-10.42721-.5267-15.57787-1.37641-5.14966-.87639-10.13951-2.52603-14.79946-4.87675-9.3725-4.77407-16.9929-12.39305-21.76881-21.76488-2.35502-4.66823-4.00034-9.66178-4.8816-14.81568-.84714-5.14767-1.3055-10.35183-1.37118-15.56832-.06189-2.38682-.09271-4.7736-.10315-7.1604C0 168.60824 0 165.78325 0 162.94798V74.17756c0-2.83529 0-5.67058.02134-8.50585.00949-2.38167.04126-4.76846.10315-7.15011.06568-5.21649.5241-10.42066 1.37118-15.56833.88147-5.15506 2.52586-10.14518 4.8816-14.81568 4.77476-9.37396 12.39532-16.99492 21.76881-21.7699 4.66182-2.35142 9.64802-3.99502 14.79431-4.8767C48.09522.64555 53.30157.18677 58.51824.11975 60.90495.05786 63.29163.02704 65.67312.0166 68.50829 0 71.34344 0 74.16828 0h88.77626c2.83517 0 5.67032 0 8.5003.0166 2.38526.00949 4.77034.04317 7.15488.10315 5.21668.06711 10.42305.5258 15.57271 1.37124 5.1548.88152 10.13954 2.526 14.80464 4.8767 9.37582 4.77353 16.99843 12.39474 21.77395 21.7699 2.35303 4.66681 3.99661 9.65859 4.87646 14.81053.84721 5.14939 1.30556 10.35526 1.37118 15.57348.06193 2.38679.09266 4.7736.10311 7.15525.02138 2.83528.02138 5.66542.02138 8.49555Z" fill="url(#b)"/><path d="M148.963 124.93966c-.22766 0-.45572.0344-.6749.10335-.21734.0693-.42303.16964-.60978.29766-.18606.12909-.36097.27121-.52451.42581-.07578.06966-.15059.14066-.2248.21188 0 0-.16243.16936-.25011.25424l-1.35444 1.33067-2.13268 2.09651-.00621.00569c-.81738.7911-1.61995 1.64694-2.52336 2.50579l-.00361.00413c-.66483.63401-1.39858 1.3696-2.21124 2.11305-1.7376 1.62807-3.60984 3.11834-5.53609 4.44779l-.00982.00569-.00982.00775c-2.07567 1.41332-4.36888 2.50667-6.80372 3.30316l-.00568.00206-.00776.00155c-4.561 1.47454-10.32129 1.52513-15.12724-.02118l-.00775-.00207-.00568-.00413c-2.41548-.78751-4.69267-1.91192-6.80269-3.36311l-.00982-.00568-.00982-.0062c-1.92174-1.3382-3.84988-2.8241-5.615158-4.51549-.001348-.00129-.002269-.00233-.003617-.00362-.775638-.72436-1.489081-1.43553-2.167826-2.09599-.858717-.83303-1.705142-1.66402-2.547132-2.49029l-2.028299-1.99936-1.335836-1.31672c-.086746-.08397-.167863-.16801-.255282-.25166-.07342-.07046-.137417-.14037-.21239-.20929-.161799-.15295-.330618-.29397-.514697-.42168-.184762-.12666-.388038-.22547-.603064-.29404-.433684-.13644-.901129-.13646-1.334802 0-.215195.06854-.418015.16722-.603064.29404-.183792.12766-.357888.26932-.519865.4222-.074874.06883-.149118.13838-.222726.20877-.0874.08335-.173554.16752-.260449.25166l-1.346688 1.31672-42.122929 42.19997c.445897.27967.924633.52061 1.39415.75968 1.60199.8071 3.524697 1.38561 5.294767 1.68827 1.76778.29028 2.519759.42658 4.87102.45682.81856.0206 1.822979.03239 2.641699.03566.97202.00569 1.945185.00568 2.918685.00568H178.53949c.9735 0 1.93323.01293 2.90525.00724.81872-.00327 1.82314-.01506 2.6417-.03566 1.05321 0 3.08189-.13486 4.73872-.45683 1.39949-.24677 2.85844-.74662 4.26183-1.39516.7531-.34803 1.15945-.64761 1.60933-.99188l-42.10874-42.25984-1.32601-1.33067c-.08783-.08505-.16488-.16999-.25322-.25424-.0744-.07115-.16048-.14179-.23616-.21136-.16372-.15452-.33926-.29729-.52503-.42633-.18704-.12818-.39227-.22839-.60978-.29766-.21917-.06896-.44672-.10335-.67438-.10335Z" fill="#fff"/><path d="M36.797675 72.96818c-.272488.350159-.798338 1.432307-1.24831 2.589878-.438736 1.128667-.763218 2.299976-.967497 3.496547-.29068 1.768095-.452873 3.158821-.475423 4.950602-.02182.819381-.031987 1.665205-.035657 2.483053-.00759.973407-.002067 2.368764-.002067 3.340365v57.399595c0 .9716-.005523 2.3406.002067 3.31401.00367.81785.013837 1.63732.035657 2.4567.02255 1.79178.184743 3.18199.475423 4.95008.21278 1.24637.555976 2.46558 1.022864 3.63764.422772.96206.82175 1.94869 1.378726 2.84288l42.092335-41.92383 1.405082-1.42472c.089568-.08957.178993-.17898.268201-.26923.07516-.07582.149208-.15254.222725-.22996.163147-.16706.313877-.34634.450102-.53641.135076-.1908.240547-.40066.313676-.6227.145539-.44779.145562-.93042 0-1.37821-.073098-.22222-.178936-.43216-.314193-.62321-.136162-.18979-.286511-.36865-.449585-.53589-.073419-.07734-.148146-.15397-.223242-.22996-.088895-.09025-.178467-.18001-.268201-.26975l-1.404565-1.41387Z" fill="#fff"/><path d="M200.28958 72.995544 158.0565 114.93148l-1.41955 1.42162c-.09071.09022-.18144.18006-.2713.27079-.0759.0764-.1511.15324-.22531.23099-.16482.16814-.31711.3487-.45475.5395-.1367.19208-.24342.40291-.3173.62632-.14713.45019-.14711.93526 0 1.38545.07391.22322.18078.4345.3173.62632.1377.19109.28932.37103.45423.53898.0743.07784.14986.15477.22583.23099.09017.09073.18077.18074.2713.27079l1.41955 1.43247 41.99175 41.93491c.27333-.45082.56169-.88588.80667-1.36684.80816-1.60235 1.37284-3.44836 1.67483-5.21727.29068-1.7681.46619-2.76142.48874-4.5532.02182-.81938.03159-1.91686.03526-2.73471.00759-.97341.00259-2.36877.00259-3.34037V89.828625c0-.971601.005-2.340086-.00259-3.313493-.00367-.817848-.01332-1.637317-.03514-2.456698-.02255-1.791781-.18526-3.182507-.47594-4.950602-.30199-1.768912-.86615-3.482617-1.67431-5.084961-.17872-.350871-.37563-.691247-.57878-1.027327Z" fill="#fff"/><path d="M58.585054 64.361445c-.9735 0-1.946148-.000009-2.918168.005685-.81872.003263-1.823139.015057-2.641699.035657-1.79163.023034-3.081893.135358-4.738729.457336-1.621229.285866-3.322257.880659-4.924247 1.687752-.54076.275348-1.033142.581531-1.520775.907802l44.515566 44.365403 12.102103 12.04629c.767377.76801 1.534699 1.5362 2.307865 2.30115.6495.64449 1.29055 1.2967 1.95389 1.92702 1.43119 1.39902 3.0339 2.67242 4.67878 3.84059 1.65116 1.15817 3.41006 2.04362 5.29581 2.67064 3.8032 1.248 7.8047 1.26618 11.57913.0217 1.87308-.62491 3.64333-1.54328 5.28909-2.68614 1.63481-1.15074 3.17871-2.39389 4.61935-3.77186.66618-.62043 1.32459-1.29409 1.97921-1.93063.77737-.75361 1.5488-1.54176 2.32182-2.30477l12.18479-12.11451 44.41899-44.219519c-.57249-.381383-1.16032-.7404-1.77457-1.053166-1.60199-.807093-3.52521-1.385096-5.29528-1.687752-1.76778-.290281-3.07887-.434302-4.8705-.457336-.81856-.0206-1.82298-.032394-2.6417-.035657-.97202-.005694-1.94519-.005685-2.91869-.005685Z" fill="#fff"/></svg>