<?xml version="1.0" encoding="UTF-8" standalone="no"?><svg version="1.1" viewBox="0 0 1024 1024" xml:space="preserve" xmlns:xlink="http://www.w3.org/1999/xlink" xmlns="http://www.w3.org/2000/svg" xmlns:svg="http://www.w3.org/2000/svg"><defs><linearGradient id="a"><stop offset="0" stop-color="#66fe80"/><stop offset=".5" stop-color="#33d94f"/><stop offset="1" stop-color="#00b41e"/></linearGradient><linearGradient xlink:href="#a" id="b" x1="511.97769" y1="0" x2="512" y2="1024" gradientUnits="userSpaceOnUse"/></defs><path d="M1023.9999 703.6703c0 12.24394 0 24.46578-.0923 36.68749-.0607 10.3073-.1779 20.61447-.4453 30.89954-.2837 22.5344-2.2629 45.01565-5.9213 67.25295-3.8067 22.26183-10.9078 43.8113-21.08088 63.9583-20.61945 40.48081-53.52839 73.39129-94.0071 94.01169-20.13757 10.15963-41.67821 17.25773-63.91054 21.05973-22.26075 3.6732-44.74408 5.6545-67.27194 5.9217-10.29726.2661-20.59722.4218-30.89785.4669-12.2434.0714-24.46445.0714-36.68562.0714H320.3129c-12.22115 0-24.44231 0-36.68569-.0606-10.30054-.0405-20.60048-.1866-30.89786-.4453-22.54148-.2877-45.0292-2.2745-67.27197-5.944-22.23846-3.7846-43.78676-10.9085-63.91051-21.05986-40.474453-20.61649-73.382628-53.51855-94.007081-93.99013-10.169994-20.15946-17.275178-41.72376-21.0808488-63.98053C2.8006217 816.28975.82124261 793.81592.53759651 771.28886c-.26726224-10.3073-.40038136-20.61447-.44543709-30.9217C0 728.12315 0 715.9236 0 703.67966V320.33072c0-12.24407 0-24.48805.09215942-36.73201.04096-10.28505.17817485-20.59224.44543709-30.87719.2836461-22.52708 2.26333229-45.00092 5.92134369-67.23084 3.8065928-22.26176 10.9077838-43.81123 21.0808488-63.98046 20.619436-40.480777 53.52833-73.391427 94.007081-94.011821 20.13183-10.154396 41.66437-17.252253 63.8883-21.0596905C207.69585 2.7877383 230.17916.80650253 252.70702.51712013 263.01382.24985607 273.32052.11673607 283.60489.07168 295.84836 0 308.09175 0 320.29058 0h383.3742c12.24346 0 24.48687 0 36.70798.07168 10.30056.04096 20.60038.18636807 30.89785.44544013 22.52786.289792 45.01119 2.27061817 67.24964 5.92158837 22.26069 3.8068235 43.78692 10.9083665 63.93283 21.0596905 40.48882 20.614147 73.40659 53.525823 94.02934 94.011821 10.16138 20.15325 17.25908 41.71 21.05858 63.95824 3.6587 22.23729 5.638 44.7185 5.9214 67.25306.2674 10.30717.4002 20.61446.4453 30.89941.0923 12.24398.0923 24.46572.0923 36.68746Z" fill="url(#b)"/><path d="M511.56883 178.05947c-46.38737.0003-90.78188 6.94639-131.79383 19.64725-37.01723 11.46375-71.28338 27.6158-101.69 47.58036-86.48021 56.78169-141.93367 144.40294-141.93447 242.71516.09384 55.29505 16.51855 106.80472 48.27926 152.72408 20.43737 29.54817 47.22455 56.59969 80.09588 80.32243 9.29022 6.70461 19.0191 13.05735 29.16463 19.026 4.70511 2.74668 10.12165 5.96606 13.67527 8.9479 3.29045 2.76102 5.38423 5.76922 6.58236 9.03127 2.17871 5.9318 2.1509 11.32944-.024 18.20883-.97084 3.07086-2.23018 6.15392-4.04883 9.75389-2.17836 4.31201-5.11452 8.97382-9.31564 14.90391-6.86589 9.69155-14.80097 18.10935-22.9649 26.82454-1.57174 1.67788-3.09976 3.36998-4.61033 5.08572-2.38881 2.71325-4.41966 5.41957-5.48453 7.69996-.9422 2.01768-1.12815 3.70192-.13667 4.76247 1.11232 1.18981 4.90857 1.89147 12.7473.02165 5.11389-1.21985 10.07472-2.60404 15.21967-4.0286 18.40693-5.09659 35.26661-11.73626 48.72-18.45252 12.52808-6.25433 24.77555-13.95228 38.28-22.64361 9.43786-6.03542 15.3483-8.6255 24.136-10.73997 2.68802-.63371 5.97732-.73498 8.64069-.73978 5.76414-.01039 10.86601.99845 16.58769 2.0377 26.20818 4.76028 53.04451 7.15397 79.87445 7.19702 99.56699-.00065 195.05574-32.65548 265.46017-90.78092 70.40444-58.12544 109.95751-136.96025 109.95814-219.16197-.00032-38.78506-8.80586-76.82057-25.50267-112.2849-18.69068-39.69935-47.26987-76.11712-84.45552-106.81734-70.40443-58.12541-165.89316-90.83988-265.46012-90.84053Z" fill="#fff"/></svg>