<?xml version="1.0" encoding="utf-8"?>
<!-- Generator: Adobe Illustrator 23.0.4, SVG Export Plug-In . SVG Version: 6.00 Build 0)  -->
<svg version="1.1" id="Layer_1" xmlns="http://www.w3.org/2000/svg" xmlns:xlink="http://www.w3.org/1999/xlink" x="0px" y="0px"
	 viewBox="0 0 727.6 727.6" style="enable-background:new 0 0 727.6 727.6;" xml:space="preserve">
<style type="text/css">
	.st0{fill:url(#SVGID_1_);}
	.st1{fill:#FFFFFF;}
</style>
<linearGradient id="SVGID_1_" gradientUnits="userSpaceOnUse" x1="363.8" y1="0.4" x2="363.8" y2="728" gradientTransform="matrix(1 0 0 -1 0 728)">
	<stop  offset="0" style="stop-color:#822CBE"/>
	<stop  offset="1" style="stop-color:#D772FB"/>
</linearGradient>
<path class="st0" d="M564,727.6H163.6C73.2,727.6,0,654.4,0,564V163.6C0,73.2,73.2,0,163.6,0H564c90.3,0,163.6,73.2,163.6,163.6V564
	C727.6,654.4,654.4,727.6,564,727.6z"/>
<g>
	<circle class="st1" cx="363.8" cy="314.6" r="59.6"/>
	<path class="st1" d="M363.8,398.3c-71.2,0-63.2,50.9-63.2,50.9s5.9,143.5,21.3,169.6c13.8,23.4,37.8,23.2,41.9,23.2
		s28,0.2,41.9-23.2c15.4-26.1,21.3-169.6,21.3-169.6S435,398.3,363.8,398.3z"/>
	<path class="st1" d="M363.8,196c76.9,0,139.5,62.6,139.5,139.5c0,41-17.8,77.8-46,103.4c-1,0.9-1.6,2.2-1.6,3.6v32.9
		c0,2.2,2.5,3.6,4.4,2.3c45.6-30.9,75.5-83.1,75.5-142.2c0-94.7-77.1-171.8-171.8-171.8S192,240.8,192,335.5
		c0,59.1,30,111.3,75.5,142.2c1.9,1.3,4.4-0.1,4.4-2.3v-32.9c0-1.4-0.6-2.7-1.6-3.6c-28.2-25.5-46-62.4-46-103.4
		C224.3,258.6,286.9,196,363.8,196z"/>
	<path class="st1" d="M363.8,79.6c-141.1,0-255.9,114.8-255.9,255.9c0,111.4,71.6,206.4,171.2,241.4c2.5,0.9,5.1-1.2,4.7-3.9
		l-4.2-27.8c-0.3-1.8-1.4-3.2-3.1-3.9c-80-34.1-136.3-113.5-136.3-205.8c0-123.3,100.3-223.6,223.6-223.6s223.6,100.3,223.6,223.6
		c0,92.3-56.2,171.7-136.3,205.8c-1.6,0.7-2.8,2.2-3.1,3.9l-4.2,27.8c-0.4,2.7,2.2,4.8,4.7,3.9c99.6-35,171.2-130,171.2-241.4
		C619.7,194.4,504.9,79.6,363.8,79.6z"/>
</g>
</svg>
