<?xml version="1.0" encoding="UTF-8" standalone="no"?><svg version="1.1" viewBox="0 0 1024 1024" xml:space="preserve" xmlns:xlink="http://www.w3.org/1999/xlink" xmlns="http://www.w3.org/2000/svg" xmlns:svg="http://www.w3.org/2000/svg"><defs><linearGradient id="b"><stop offset="0" stop-color="#dfdfe4"/><stop offset=".25" stop-color="#ceced3"/><stop offset=".5" stop-color="#b9b9be"/><stop offset=".75" stop-color="#a6a6ab"/><stop offset="1" stop-color="#949499"/></linearGradient><linearGradient id="c"><stop offset="0" stop-color="#b4b4b9"/><stop offset=".5" stop-color="#b4b4b9"/><stop offset="1" stop-color="#b4b4b9"/></linearGradient><linearGradient id="a"><stop offset="0" stop-color="#e5e4ea"/><stop offset=".25" stop-color="#d3d3d8"/><stop offset=".5" stop-color="#b9b9be"/><stop offset=".75" stop-color="#9f9fa4"/><stop offset="1" stop-color="#8e8e93"/></linearGradient><linearGradient xlink:href="#a" id="d" x1="512" y1="0" x2="512" y2="1024" gradientUnits="userSpaceOnUse"/><linearGradient xlink:href="#b" id="f" gradientUnits="userSpaceOnUse" gradientTransform="matrix(.87979048 .00010277 -.00008722 .87979051 61.391788 62.151354)" x1="511.91321" y1="46.050495" x2="512.00568" y2="978.89197"/><linearGradient xlink:href="#c" id="e" gradientUnits="userSpaceOnUse" gradientTransform="matrix(.38281886 -.00013888 .00011427 .38284029 315.77951 316.77595)" x1="512.08875" y1="-194.91364" x2="511.66617" y2="1220.869"/><filter id="g" x="-.01547324" y="-.01549649" width="1.0309465" height="1.0441504" color-interpolation-filters="sRGB"><feFlood result="flood" flood-opacity=".211765" flood-color="rgb(0,0,0)"/><feGaussianBlur result="blur" in="SourceGraphic" stdDeviation="5.3"/><feOffset result="offset" in="blur" dx="0" dy="10.8"/><feComposite result="comp1" operator="in" in="flood" in2="offset"/><feComposite result="comp2" operator="over" in="SourceGraphic" in2="comp1"/></filter></defs><path d="M1023.9999 703.6703c0 12.24394 0 24.46578-.0923 36.68749-.0607 10.3073-.1779 20.61447-.4453 30.89954-.2837 22.5344-2.2629 45.01565-5.9213 67.25295-3.8067 22.26183-10.9078 43.8113-21.08088 63.9583-20.61945 40.48081-53.52839 73.39129-94.0071 94.01169-20.13757 10.15963-41.67821 17.25773-63.91054 21.05973-22.26075 3.6732-44.74408 5.6545-67.27194 5.9217-10.29726.2661-20.59722.4218-30.89785.4669-12.2434.0714-24.46445.0714-36.68562.0714H320.3129c-12.22115 0-24.44231 0-36.68569-.0606-10.30054-.0405-20.60048-.1866-30.89786-.4453-22.54148-.2877-45.0292-2.2745-67.27197-5.944-22.23846-3.7846-43.78676-10.9085-63.91051-21.05986-40.474453-20.61649-73.382628-53.51855-94.007081-93.99013-10.169994-20.15946-17.275178-41.72376-21.0808488-63.98053C2.8006217 816.28975.82124261 793.81592.53759651 771.28886c-.26726224-10.3073-.40038136-20.61447-.44543709-30.9217C0 728.12315 0 715.9236 0 703.67966V320.33072c0-12.24407 0-24.48805.09215942-36.73201.04096-10.28505.17817485-20.59224.44543709-30.87719.2836461-22.52708 2.26333229-45.00092 5.92134369-67.23084 3.8065928-22.26176 10.9077838-43.81123 21.0808488-63.98046 20.619436-40.480777 53.52833-73.391427 94.007081-94.011821 20.13183-10.154396 41.66437-17.252253 63.8883-21.0596905C207.69585 2.7877383 230.17916.80650253 252.70702.51712013 263.01382.24985607 273.32052.11673607 283.60489.07168 295.84836 0 308.09175 0 320.29058 0h383.3742c12.24346 0 24.48687 0 36.70798.07168 10.30056.04096 20.60038.18636807 30.89785.44544013 22.52786.289792 45.01119 2.27061817 67.24964 5.92158837 22.26069 3.8068235 43.78692 10.9083665 63.93283 21.0596905 40.48882 20.614147 73.40659 53.525823 94.02934 94.011821 10.16138 20.15325 17.25908 41.71 21.05858 63.95824 3.6587 22.23729 5.638 44.7185 5.9214 67.25306.2674 10.30717.4002 20.61446.4453 30.89941.0923 12.24398.0923 24.46572.0923 36.68746Z" fill="url(#d)"/><path d="M957.25 513.02502c0 23.81405-1.96564 47.43113-5.7109 70.64633-4.20505 26.06525-10.71653 51.62389-19.41267 76.38591-11.37804 32.39867-26.49604 63.23314-45.08126 92.25474-17.20561 26.86727-37.3828 52.20948-60.31517 75.11031-6.57956 6.57051-13.19698 12.82246-19.93783 18.81557-9.16581 8.14909-18.55985 15.72207-28.39729 23.06421-14.2842 10.66099-29.43607 20.56249-45.94565 29.99581-31.69484 18.10994-66.49694 32.57022-102.92262 42.61336C591.55513 952.38061 551.81936 957.7 512 957.7c-22.82824 0-45.2189-1.66184-67.15041-4.94802-33.94365-5.08606-69.61212-14.84289-102.53267-28.45612-25.68745-10.62222-65.15612-29.8103-105.75757-61.81297-22.20468-17.50207-44.40235-38.0833-67.52636-65.666-14.52095-17.32083-29.75941-38.63758-44.02199-63.66452-10.60616-18.61093-20.89746-39.77602-29.712216-63.17227-10.225569-27.14085-18.617308-57.65097-23.652527-90.36068C67.940941 555.549 66.5 532.26892 66.5 513.02502c0-20.31411 1.237423-39.70997 3.715026-58.70896 4.579359-35.11587 12.83939-65.58798 21.978143-91.24731 13.213901-37.10131 31.146961-71.95539 53.691721-104.48476 12.41251-17.90975 28.04858-37.63766 47.54543-57.56603 22.48615-22.98382 46.6422-43.30102 77.52888-63.2617 47.46211-30.67263 98.16435-50.113612 145.96536-60.496133 31.0886-6.752536 63.05305-10.26013 95.07544-10.26013 28.46344 0 56.64587 2.685698 84.19838 7.952553 57.00994 10.897847 117.42541 34.63016 172.97032 73.96008 20.32113 14.38887 39.77291 30.63045 57.66175 48.49468 20.51103 20.48281 42.23531 46.27698 61.96964 77.63299 16.07923 25.54839 32.28447 57.67149 44.24477 92.75985 3.33045 9.77065 6.33105 19.67306 8.9927 29.68344 9.94943 37.41961 15.21244 75.8287 15.21244 115.54143Z" fill="#2e2e2f"/><path d="m525.61719 242.08404-6.35742 33.24796c-2.45474-.07743-4.89316-.25589-7.35938-.25589-2.21983 0-4.41512.10688-6.62109.16799l-6.22657-33.07411c-1.65568.07756-3.33672.061-4.98437.16796l-2.44727 33.66791c-4.67631.39896-9.32084.9063-13.91992 1.5743l-10.01758-32.10726c-1.64221.26895-3.2879.52608-4.91992.82426l1.47071 33.59954c-4.59683.94169-9.13208 2.0558-13.63282 3.25995l-13.72265-30.82398c-1.59767.45804-3.17054.97266-4.75586 1.45905l5.3789 33.30071c-4.44212 1.46818-8.82483 3.06648-13.15234 4.78541l-17.28906-29.16178c-1.52717.63934-2.9951 1.38656-4.50782 2.05284l9.22461 32.50768c-4.23883 1.97179-8.43224 4.02764-12.53515 6.23668l-20.4961-26.8765c-.78753.44407-1.61193.82963-2.39453 1.28132-.64854.37431-1.25917.80415-1.90429 1.18365l12.95117 31.25567c-3.98516 2.44907-7.87368 5.03572-11.69922 7.70746l-23.46875-24.25332c-1.33675.97441-2.72103 1.88683-4.03906 2.88493l16.49414 29.54462c-3.67113 2.89176-7.2638 5.87317-10.75196 8.97122l-26.07031-21.36449c-1.21792 1.12535-2.44556 2.23966-3.64258 3.38691l19.73047 27.316c-.06452.06436-.13282.12501-.19726.18946-3.23689 3.23707-6.34955 6.60026-9.39649 10.02399l-28.41406-18.21781c-1.07926 1.25821-2.12132 2.54831-3.17774 3.82638l22.81055 24.88617c-2.8922 3.65311-5.67863 7.39147-8.35742 11.21547l-30.46289-14.8602c-.92282 1.36968-1.75598 2.80238-2.6543 4.18968l25.56836 22.09108c-2.45121 3.96346-4.82287 7.98082-7.04492 12.09248l-31.91992-11.1979c-.75665 1.46622-1.49795 2.93852-2.22852 4.42018l28.02539 19.01669c-1.975 4.21332-3.80694 8.50012-5.53906 12.83861l-33.00195-7.41839c-.58189 1.54813-1.2328 3.06187-1.78711 4.62331l30.08008 15.65126c-1.47483 4.41424-2.84146 8.87238-4.06055 13.38942l-33.57422-3.52753c-.39749 1.60709-.79332 3.21406-1.16211 4.8323l31.5332 11.94988c-.95319 4.55924-1.76471 9.16325-2.45117 13.80352l-33.74609.39259c-.20735 1.63812-.3258 3.30243-.50391 4.94951l32.66797 8.23873c-.41334 4.62881-.67236 9.29096-.8125 13.9793l-33.49023 4.31079c-.01124 1.02019-.10351 2.02028-.10352 3.04314 0 .64599.05994 1.27706.06445 1.92198l33.51563 4.40651c.12901 4.68301.38206 9.33354.7793 13.94608l-32.73047 8.16063c.17181 1.64677.30083 3.30574.50195 4.94363l33.77148.4844c.67063 4.6452 1.43221 9.26202 2.36719 13.81719l-31.58008 11.91277c.36216 1.61528.76544 3.21439 1.15625 4.81863l33.59375-3.43769c1.20576 4.53021 2.56464 8.99646 4.02539 13.41676l-30.16601 15.59267c.54652 1.55578 1.19952 3.05917 1.77344 4.60183l33.0625-7.3383c.6772 1.71203 1.31027 3.4466 2.02539 5.13895 1.10297 2.61022 2.29865 5.16917 3.49023 7.73091l-28.10937 18.96004c.72197 1.47608 1.42991 2.95733 2.17773 4.41821l32.01953-11.13733c2.21437 4.1246 4.55515 8.16719 7 12.14131l-25.66211 22.04615c.88934 1.38311 1.72115 2.80635 2.63477 4.17212l30.54492-14.79771c2.67297 3.83334 5.46095 7.57754 8.34961 11.24087l-22.94336 24.89202c1.04585 1.27377 2.08197 2.55458 3.15039 3.80881l28.55274-18.20024c3.10069 3.49852 6.26749 6.93574 9.56836 10.24471l-19.88477 27.36872c1.18407 1.14267 2.40083 2.25009 3.60547 3.37128l26.22461-21.37229c3.48219 3.11262 7.07247 6.10299 10.73437 9.00832l-16.64844 29.62666c1.30251.99377 2.66937 1.90458 3.99024 2.87516l23.60937-24.31582c3.81836 2.6876 7.70256 5.28494 11.68165 7.74849l-13.08985 31.33964c.61006.36198 1.18766.77166 1.80078 1.12898.78986.46033 1.65199.85715 2.45117 1.31061l20.62891-26.89604c4.10511 2.22568 8.30635 4.29325 12.55273 6.27965l-9.32421 32.50769c1.50419.6633 2.97684 1.3913 4.49023 2.02745l17.37891-29.12467c4.32905 1.72777 8.71786 3.33046 13.16797 4.80691l-5.48829 33.38467c1.58079.49128 3.15603.97734 4.72461 1.43172l13.84766-30.87281c4.49906 1.20865 9.03446 2.32808 13.63477 3.27557L462 779.82514c1.62109.29744 3.26344.53213 4.89453.80082l10.14063-32.17954c4.59267.67321 9.23609 1.18458 13.91015 1.5919l2.35938 33.75775c1.64309.10939 3.31386.11094 4.96484.19142l6.3418-33.16397c2.42692.07303 4.84439.18555 7.28906.18555 2.24284 0 4.4609-.10776 6.68945-.16993l6.26368 33.26358c1.66067-.07754 3.30433-.21318 4.95703-.32032l2.45117-33.70698c4.67117-.39871 9.31011-.9066 13.90234-1.57235l10.07227 32.28111c1.63519-.26771 3.25764-.57245 4.88281-.8692l-1.47852-33.72844c4.59571-.93939 9.13079-2.0425 13.62696-3.24238l13.75976 30.90993c1.58267-.45385 3.18328-.86599 4.75391-1.34772l-5.41016-33.49212c4.44446-1.46564 8.8242-3.06485 13.14844-4.77955l17.31836 29.21061c1.51987-.63662 3.00805-1.33087 4.51367-1.99424l-9.2539-32.61317c4.23791-1.96976 8.42488-4.02566 12.52148-6.23082l20.5 26.91362c1.43606-.81049 2.86749-1.62718 4.28711-2.46302l-12.9375-31.28106c3.98294-2.44829 7.86563-5.03481 11.68555-7.70356l23.50586 24.37052c1.33221-.97242 2.66684-1.93964 3.98046-2.93572l-16.5-29.59736c3.67114-2.89182 7.26138-5.87389 10.74805-8.96925l26.17969 21.45628c1.21321-1.12309 2.39541-2.27904 3.58789-3.42403l-19.77344-27.37653c.10692-.10655.22142-.20576.32813-.31251 3.18827-3.18956 6.25444-6.49635 9.25781-9.86188l28.41602 18.26274c1.07571-1.25446 2.19152-2.47486 3.24414-3.74826l-22.86329-24.9975c2.89163-3.6402 5.67554-7.36547 8.35352-11.17445l30.45508 14.84849c.92217-1.36813 1.77255-2.78494 2.66992-4.17015l-25.55859-22.08523c2.45595-3.95879 4.83124-7.97163 7.05664-12.08076l31.83593 11.18618c.75657-1.46658 1.52372-2.92669 2.25391-4.40845l-27.96484-19.00303c1.97981-4.21998 3.81787-8.517 5.55273-12.86789l32.9961 7.44377c.57892-1.54436 1.14208-3.09508 1.69336-4.65262l-30.00391-15.61024c1.47769-4.43477 2.84677-8.9171 4.06641-13.46364l33.5996 3.54317c.39468-1.60539.74537-3.22743 1.11133-4.84402l-31.52539-11.96748c.94296-4.54903 1.74032-9.14983 2.41992-13.78983l33.6875-.3926c.20665-1.65041.44599-3.28979.62305-4.9495l-32.74219-8.25827c.40923-4.63197.67-9.30433.81055-14.00861l33.45313-4.30493c.00991-.96265.07226-1.91195.07226-2.87712 0-.71222-.0473-1.41226-.05273-2.12316l-33.48633-4.40258c-.1275-4.67876-.3876-9.32272-.78516-13.93438l32.81836-8.18405c-.17326-1.66092-.42206-3.29775-.625-4.9495l-33.75976-.4844c-.67028-4.62762-1.4709-9.21082-2.4043-13.75077l31.64453-11.93622c-.36298-1.6214-.72342-3.2436-1.11523-4.85379l-33.67188 3.44747c-1.20359-4.51404-2.53394-8.97291-3.99023-13.37771l30.10937-15.56142c-.54803-1.56162-1.0845-3.12771-1.66016-4.67605l-33.12109 7.35198c-1.71749-4.34009-3.55674-8.61236-5.51367-12.82104l28.13672-18.97958c-.72721-1.48685-1.50428-2.94485-2.25781-4.41626l-31.97852 11.12173c-2.2084-4.11557-4.50239-8.17448-6.93555-12.13545l25.64453-22.0325c-.895-1.39074-1.75607-2.80475-2.67578-4.17796l-30.47851 14.76451c-1.50058-2.1557-3.00515-4.30849-4.57227-6.40858-1.18927-1.59373-2.49482-3.21014-3.76172-4.81861l22.94922-24.89789c-1.05138-1.27851-2.16002-2.50697-3.23437-3.76583l-28.47266 18.1475c-3.01658-3.40108-6.22513-6.79673-9.60156-10.1783l19.84961-27.31991c-1.1941-1.15029-2.38465-2.30336-3.59961-3.43182l-26.2207 21.36838c-3.40579-3.0384-6.98113-6.02825-10.70508-8.97511l16.58984-29.52314c-1.31711-1.00333-2.64461-1.99126-3.98047-2.97088l-23.60351 24.31191c-3.74363-2.62467-7.62688-5.18057-11.65821-7.66643l13.07227-31.29668c-1.42379-.84353-2.86626-1.65864-4.30664-2.47672l-20.66797 26.94488c-4.07956-2.20271-8.22348-4.28609-12.4375-6.25622l9.36719-32.66783c-1.51033-.67108-2.99287-1.39309-4.51758-2.03722l-17.44336 29.23406c-4.30803-1.7225-8.65861-3.34465-13.07617-4.82059l5.51562-33.54876c-1.57388-.48833-3.18353-.89328-4.76953-1.35359l-13.85351 30.8865c-4.48798-1.21931-9.0125-2.33214-13.58594-3.2912l1.57226-33.73432c-1.62843-.30268-3.25798-.60157-4.89648-.87504l-10.16211 32.24594c-4.59262-.68966-9.22292-1.20767-13.87695-1.62704l-2.35352-33.69329c-1.65742-.11225-3.29939-.27901-4.96484-.36135Zm-13.66992 77.65669c26.59906 0 51.98777 5.33299 74.98632 15.20008 23.28904 9.99173 43.80516 23.803 61.23633 41.23864 34.86234 34.87127 56.28321 82.94627 56.2832 136.15802 0 53.21176-21.29417 101.15404-56.35351 136.25765-34.82728 34.87126-82.95422 56.34106-136.15234 56.34106-17.32242 0-34.11094-2.23914-50.08008-6.47889-15.50599-4.11681-32.28143-10.96157-46.77735-19.41124-57.28839-33.39342-95.79101-95.50422-95.79101-166.60896 0-71.40444 38.70849-133.7848 96.39062-167.08945 15.9382-9.20245 35.12151-16.86989 54.60352-21.13204 13.40693-2.9331 27.34477-4.47487 41.6543-4.47487Z" fill="url(#e)"/><path d="m532.83048 102.71875-9.67187 50.1875c-3.74684-.11912-7.49648-.2168-11.25781-.2168-3.29384.00001-6.54587.26103-9.82618.35156l-9.49023-50.22265c-2.51089.12157-5.03329.11154-7.53907.27929l-3.78515 51.04883c-7.02704.60414-14.03657 1.29662-20.9707 2.30469l-15.20118-48.60351c-2.4941.41336-4.96605.51852-7.44921.97652l2.15625 51.29887c-6.90335 1.41391-13.71525 3.09362-20.48828 4.89648l-20.85352-46.76562c-1.18753.33944-2.41216.57613-3.5957.92578-1.24328.3673-2.4011.81993-3.63477 1.19726l8.07422 50.45508c-6.70398 2.20939-13.31558 4.60691-19.83593 7.19141l-26.09961-43.95899c-2.31541.96826-4.76155 1.90579-7.03577 2.90625l13.91406 49.31055c-2.44691 1.13484-4.81592 2.22007-7.23963 3.4082-3.9296 1.92634-7.77581 3.91603-11.56836 5.94727l-31.02929-40.63477c-1.06244.59781-2.20674 1.15025-3.25781 1.75391-1.05586.60642-2.29073 1.36549-3.35821 1.99218l19.56054 47.39649c-6.0457 3.70886-11.94093 7.45473-17.62421 11.42383l-35.54102-36.76171c-1.97153 1.43818-4.07624 3.09943-6.06085 4.60155l24.84961 44.66406c-5.56538 4.39343-10.9453 8.90512-16.15301 13.53211L233.309 211.17578c-.9144.84143-1.83285 1.56044-2.74609 2.41602-.96375.90289-1.89058 1.84287-2.84015 2.75l29.94065 41.51334c-4.96284 4.9469-9.89937 10.03953-14.57529 15.28022l-42.87873-27.52599c-1.62915 1.89978-3.47154 3.78033-5.04727 5.6875l34.50976 37.75977c-4.35937 5.49362-8.56664 11.12782-12.6116 16.88324l-45.80792-22.33832c-1.40631 2.09118-2.94822 4.18275-4.29713 6.26953l38.65127 33.54645c-4.1329 6.29329-7.29775 12.41042-10.54391 18.1977l-48.17937-16.92189c-1.1527 2.23297-2.36622 4.48339-3.45703 6.69337l42.29469 28.85546c-2.95617 6.32194-5.73598 12.75745-8.34765 19.31251l-49.98415-11.22656c-.46394 1.2359-1.03444 2.54944-1.47852 3.76953-.39435 1.08347-.73139 2.19703-1.11718 3.28516l45.41773 23.77147c-1.26223 3.78561-2.50875 7.52728-3.65211 11.37305-.85568 2.87816-1.48622 5.85577-2.27344 8.76563l-51.05469-5.33594c-.6049 2.43272-1.24446 4.85092-1.80664 7.30078l47.8202 18.30859c-1.4379 6.85421-2.79472 13.74035-3.83984 20.72657l-51.06043.62305c-.31934 2.47868-.56499 4.97766-.83985 7.46875l49.56435 12.60546c-.6319 6.95864-.98374 13.96982-1.20509 21.01563l-50.8241 6.58203c-.01794 1.56065-.10546 3.10802-.10547 4.67188 0 .9492.05599 1.88615.0625 2.83398l50.76953 6.75196c.19606 7.03678.52456 14.06867 1.13477 21.07812l-49.61914 12.40234c.26192 2.48926.51768 4.98032.82421 7.45703l51.26563.8125c1.01142 6.97191 2.21394 13.8992 3.61914 20.77149l-48.00586 18.13866c.55097 2.44297 1.19072 4.85226 1.78516 7.2793l50.92969-5.13476c1.80954 6.83221 3.86635 13.55592 6.05664 20.21094l-45.51563 23.55859c.40108 1.1383.75131 2.29976 1.16211 3.4336.44214 1.22034.97458 2.39448 1.42773 3.60937l49.98047-11.01172c2.59282 6.56131 5.37192 13.02354 8.33008 19.38868l-42.4043 28.63671c1.10065 2.25193 2.21173 4.49425 3.35157 6.72266l48.40039-16.75195c1.09133 2.03009 2.13298 4.09218 3.26171 6.09765 2.32098 4.12376 4.75629 8.17359 7.23243 12.19532l-38.81641 33.38671c.69754 1.08732 1.32388 2.22447 2.03126 3.30469.66083 1.00917 1.41105 1.97406 2.08202 2.97851l46.04652-22.25781c4.02689 5.76862 8.25354 11.38154 12.60156 16.89649l-34.61487 37.68554c.99609 1.2116 1.90506 2.47804 2.91601 3.67969.60501.71913 1.26863 1.39583 1.87891 2.11133l43.18651-27.332c4.66421 5.26267 9.42502 10.43712 14.38476 15.41602l-29.97362 41.25777c.92967.89924 1.79605 1.85503 2.73438 2.7461.86381.82029 1.842 1.60807 2.7207 2.42578l39.68455-32.15425c5.73818 4.95255 10.61006 9.21524 16.11914 13.58007l-24.98923 44.51363c1.02896.78789 2.01655 1.64719 3.04883 2.42384.94792.71318 2.0035 1.37575 2.96484 2.08397l35.68359-36.64062c5.74467 4.04651 11.6011 7.98197 17.58576 11.69443l-19.64826 47.12393c2.16685 1.28253 4.30636 2.54675 6.49219 3.78907l31.20118-40.55274c6.17661 3.35361 12.43276 6.57599 18.82031 9.57226l-14.06056 49.14258c1.23419.54629 2.49436 1.2112 3.72266 1.73829 1.014.43511 2.12503.84 3.1543 1.27148l26.29492-43.92383c6.51731 2.60722 13.11824 5.04446 19.81641 7.27539l-8.25781 50.42579c2.39617.75184 4.78929 1.49031 7.1914 2.19726l20.98047-46.59179c6.76655 1.8238 13.51949 3.43815 20.43692 4.87128l-2.22989 50.88848c2.49104.77896 4.87468 1.30029 7.42187 1.4082l15.42188-48.68945c6.92667 1.0202 13.89878 1.89584 20.94727 2.51563l3.58594 51.01642c2.52152.17997 5.02787.39744 7.52141.53141l9.68952-50.38572c3.70643.11289 7.40702.25 11.14063.24999 3.32432 0 6.61362-.17096 9.91992-.26171l9.49805 50.27148c3.07476.19586 5.35252-.04789 7.53515-.38867l3.78516-51.04492c7.02613-.59996 14.00484-1.38184 20.92383-2.38282l15.29883 48.91992c2.44088-.40716 4.92681-.89789 7.40039-1.35742l-2.16406-51.10937c6.91054-1.4126 13.77174-2.9701 20.54296-4.77344l20.82227 46.69726c1.2863-.36891 2.63972-.68983 3.90821-1.06835 1.12481-.33566 2.1855-.743 3.30272-1.08594l-8.08593-50.52149c6.69173-2.20395 13.28112-4.63592 19.80078-7.21484l26.16797 44.07226c2.30288-.96352 4.61492-1.96276 6.90429-2.97265l-13.92383-49.3039c6.37967-2.96054 12.65536-6.10014 18.83009-9.41602l31.06835 40.64375c1.18083-.66595 2.35193-1.22476 3.53516-1.90625 1.02037-.5877 1.98727-1.25161 3.00195-1.84766l-19.51953-47.26289c5.99373-3.67949 11.89519-7.49208 17.65039-11.50586l35.52539 36.70625c1.16505-.84712 2.3895-1.61975 3.54493-2.47851.86335-.64169 1.65378-1.36919 2.51172-2.01758l-24.83009-44.625c5.52827-4.35162 10.88441-8.90539 16.14063-13.56836l39.49468 32.38175c1.94485-1.54161 3.81092-3.33422 5.5705-5.21129l-29.90503-41.47515c2.72194-2.71471 5.47346-5.40003 8.10548-8.20117 2.17187-2.31142 4.27559-4.62405 6.38973-6.99754l43.05167 27.48973c1.63726-1.90716 3.31272-3.78281 4.91406-5.71876l-34.52148-37.77343c4.3557-5.49636 8.51364-11.10646 12.55664-16.85907l46.07618 22.38641c.60891-.90199 1.26913-1.7669 1.87108-2.67382.78364-1.18063 1.50538-2.41289 2.27735-3.60352l-38.66362-33.49174c3.70687-5.96825 7.23474-12.07331 10.59136-18.24655l48.24023 16.89259c1.14952-2.22955 2.33737-4.43515 3.44727-6.68751l-42.32813-28.81249c1.55131-3.29395 3.11849-6.58074 4.56641-9.91797 1.34572-3.10172 2.5785-6.26882 3.83593-9.42188l49.9336 11.19336c.88558-2.34767 1.70863-4.71579 2.55078-7.07812l-45.28125-23.64844c2.20243-6.64551 4.2573-13.35357 6.08464-20.16665l50.85872 5.27212c.24115-.97518.53409-1.94166.76757-2.91797.34809-1.45551.59415-2.95245.92774-4.41406l-47.76089-18.32634c1.45876-6.94908 2.7511-13.79641 3.77674-20.64276l51.09548-.66176c.3223-2.48168.59894-4.97483.87695-7.47071l-49.4411-12.55021c.25667-7.7916.88528-14.28726 1.19232-21.10533l50.70971-6.54953c.01752-1.52637.14063-3.02603.14064-4.55665-.00001-.98286-.06089-1.96089-.06836-2.94335l-50.69686-6.88095c-.18807-7.05614-.68461-13.97479-1.27775-20.94523l49.5918-12.39452c-.27063-2.49574-.54046-4.99083-.85547-7.47461l-51.17579-.81251c-.47124-3.26494-.91633-6.53918-1.47656-9.77538-.65319-3.77323-1.4265-7.35324-2.16796-10.98439l47.90624-18.10155c-.55632-2.46426-1.21313-4.8695-1.81055-7.31055l-50.81249 5.12304c-1.82864-6.858-3.83015-13.586-6.0293-20.20898l45.4082-23.50391c-.48318-1.37373-.91624-2.79274-1.41211-4.15429-.36355-.99825-.78719-1.93593-1.15625-2.92774l-49.90473 10.91591c-2.58671-6.55739-5.32463-13.01239-8.26511-19.35591l42.34757-28.58734c-.51258-1.05334-.95241-2.14398-1.4746-3.19336-.59781-1.20133-1.25297-2.3475-1.86133-3.53907l-48.40539 16.68844c-3.33219-6.2143-6.71637-12.32421-10.37932-18.27856l38.68447-33.31724c-1.38155-2.1429-2.79105-4.15291-4.201-6.25354L807.57631 306.93c-4.03533-5.7825-8.2575-11.36297-12.58283-16.85637l34.55768-37.5943c-1.58394-1.92816-3.09313-3.96699-4.69285-5.84469l-43.2915 27.48841c-4.6705-5.27354-9.48146-10.3987-14.43749-15.3711l30.073-41.41688c-1.81842-1.75029-3.67312-3.41916-5.52344-5.13647l-39.71363 32.26624c-5.23487-4.67428-10.53455-9.31138-16.04273-13.68004l25.03585-44.6558c-2.00296-1.52714-4.04792-2.87336-6.07946-4.36462l-35.74373 36.67312c-2.09743-1.4772-4.14132-3.01675-6.27344-4.45313-3.68065-2.47958-7.46843-4.88351-11.2536-7.22912l19.64813-47.15955c-1.05025-.62386-2.04534-1.32856-3.10157-1.94336-1.11261-.64761-2.28942-1.21559-3.41015-1.85352l-31.22892 40.54524c-6.16062-3.33263-12.38584-6.57149-18.76355-9.5524l14.06278-49.15103c-2.28995-1.01758-4.6009-1.99438-6.91602-2.97266L645.60197 178.492c-6.49923-2.59333-13.07178-4.97817-19.74197-7.2021l8.23611-50.47154c-1.16901-.36431-2.29887-.80577-3.47266-1.16015-1.2265-.37031-2.505-.6504-3.73828-1.00977l-21.04025 46.63414c-6.75226-1.82836-13.54422-3.50959-20.42383-4.95116l2.30588-51.02478c-1.27737-.23976-2.52356-.56289-3.80468-.79102-1.18452-.21092-2.41117-.35572-3.60352-.55664l-15.42969 48.71485c-6.93892-1.04079-13.93182-1.84338-20.95703-2.47852l-3.59375-50.96875c-2.50805-.17908-5.01922-.37481-7.50782-.50781Zm-20.7832 92.13086c26.48877 0 49.86767 2.97945 73.44336 8.55469 35.45558 8.38461 70.51354 23.52942 100.93359 43.50586 25.37989 16.66662 46.90791 35.56684 66.0625 57.60937 27.26458 31.37527 48.36262 68.14466 61.76172 108.50977 1.02624 2.81958 3.3854 13.37917 3.90235 20.01563.68711 8.82104.83364 14.50657 0 21.10742-.54293 4.29891-1.56409 8.30608-3.13672 12.54492-2.33477 6.29307-6.03137 11.41149-11.01172 15.56249-3.81034 3.17584-7.83729 5.50482-12.14258 7.26564-4.12208 1.68587-8.72205 2.94556-13.46679 3.83593-2.79749.52496-8.4306 1.39072-12.59571 1.52734-7.34889.24104-14.91228.25144-21.85156.23633l-23.29492-.05078H567.434c-5.42037.11175-10.74153-.05465-16.0664-1.13282-1.80066-.37896-3.80225-.88703-5.84571-1.57226-1.07671-.36104-11.31121-4.71908-16.80859-8.04101-2.95777-1.78731-5.84105-3.88395-9.51367-6.81055-2.52806-2.01455-4.97684-4.1481-6.69141-6.00587-3.78936-4.10583-6.86387-8.59608-9.91797-13.89061l-90.2832-156.51368c-5.26832-9.12499-7.63274-12.57979-12.16211-22.4414-4.37401-9.52334-6.33308-17.30316-6.75-25.94336-.2324-4.81631.47589-10.82149 2.60156-15.93946 2.42513-5.83894 6.43264-11.60472 12.12696-16.38281 6.2199-5.21912 14.10945-9.85941 25.08008-14.21679 9.14756-3.63331 12.01483-4.2905 16.55924-5.0918.25571-.04509.50889-.10172.76367-.15234 19.96428-3.96707 39.48925-6.08985 61.52083-6.08985Zm-189.15429 78.94336c3.33254-.17868 6.44559.04127 9.13866.50976 4.8824.84937 8.29284 2.47917 10.9004 3.77148 1.21651.60292 2.41509 1.38749 3.60156 2.16603 4.69267 3.07924 9.1695 7.1799 12.50586 11.00976 8.14706 9.35213 11.78198 16.17017 19.21289 29.06055l90.14258 156.37109c2.75304 4.77569 4.89387 9.12921 6.45313 13.64649 1.17635 3.40801 2.19402 6.88744 2.55859 10.74804.33886 3.5883.76833 8.23519.67969 13.1582-.0891 4.94802-.62647 11.56134-1.54688 15.76367-.77823 3.55318-1.84947 6.43354-3.22656 9.62696-1.35183 3.13483-2.99508 6.21574-4.93555 9.57617L389.76408 685.3418l-13.12891 22.82422c-5.58616 9.71165-10.33297 17.41602-15.53711 23.69335-5.53341 6.67455-12.55115 13.6301-21.86133 17.37501-4.51473 1.81598-9.03704 2.71867-13.12304 2.77148-4.2605.05507-8.55698-.53784-12.93359-1.78711-6.79595-1.93985-14.33532-5.81277-22.03321-11.24414-4.28225-3.02141-11.47246-8.38091-15.82617-13.21289-25.06863-27.82248-45.26362-60.05603-59.33594-95.38867-14.41752-36.19939-22.35352-75.6525-22.35352-116.95117 0-42.98199 8.35747-83.87452 23.68165-121.20704 9.5746-23.32548 21.72971-45.09543 36.18359-65.07421 5.44085-7.52059 10.94849-14.54576 16.58204-21.16017 2.43585-2.85995 4.35268-5.18728 6.2246-6.97851 3.53422-3.38188 5.73985-5.2004 8.38086-7.32422 3.91086-3.14498 8.3273-6.39868 12.29297-8.75195 5.59522-3.32026 10.36963-5.64851 15.45703-7.25195 3.57424-1.12652 7.12644-1.70219 10.45899-1.88086Zm189.08594 222.37304c9.27518.00021 16.79384 7.51974 16.79296 16.79492-.0002 9.27441-7.51855 16.79276-16.79296 16.79297-9.27442-.0002-16.79277-7.51854-16.79298-16.79296-.00088-9.27519 7.51779-16.79473 16.79298-16.79493Zm234.46874 38.46094c12.99207-.03231 24.65459.10561 35.32813 2.34376 11.4288 2.3965 21.63233 7.17489 28.24805 15.92968 6.01992 7.96634 9.47781 20.15166 8.00976 36.98633-.65908 7.55789-1.79647 16.8295-4.96289 26.07031-8.62504 25.17113-20.21156 48.97835-34.29687 70.70508-33.43566 51.5748-75.9266 84.79866-114.5586 106.01758-21.63976 11.8858-43.19355 20.95408-65.26367 27.35352-16.19857 4.69691-30.80347 7.63208-44.17773 9.39062-16.14493 2.12285-31.71758 2.73162-45.31641 2.52539-10.86632-.16479-20.47268-.85071-28.10547-1.69922-4.85137-.60587-9.83028-1.18245-14.91016-1.9375-9.07697-1.34916-14.56867-2.34102-23.50586-5.38086-4.65229-1.5824-9.21605-3.50984-14.12695-5.93164-10.18919-5.02478-19.48314-12.06552-25.09375-19.54102-6.98961-9.31285-9.06994-18.80784-8.77539-28.01758.24502-7.66082 2.44433-15.63537 5.57032-23.09179 2.71971-6.48737 6.96556-13.81548 9.72461-18.25195l92.47069-160.08204c2.64215-4.57401 5.28337-8.48463 8.58008-12.07812 3.90767-4.25944 6.80137-6.95843 15.57422-12.02344 4.65514-2.68764 10.14368-5.28975 15.14648-6.76172 5.94371-1.74879 13.45929-2.47656 18.45899-2.47656H726.4301Z" transform="matrix(1 0 0 1.0000561 0 -.00375967)" fill="url(#f)" filter="url(#g)"/></svg>