<?xml version="1.0" encoding="UTF-8"?>
<svg id="svg1" xmlns="http://www.w3.org/2000/svg" xmlns:xlink="http://www.w3.org/1999/xlink" viewBox="0 0 1024 1024">
  <defs>
    <style>
      .cls-1 {
        fill: url(#radial-gradient);
      }

      .cls-1, .cls-2, .cls-3, .cls-4, .cls-5, .cls-6, .cls-7 {
        stroke-width: 0px;
      }

      .cls-2 {
        fill: url(#radial-gradient-2);
      }

      .cls-3 {
        fill: url(#radial-gradient-3);
      }

      .cls-4 {
        fill: url(#radial-gradient-4);
      }

      .cls-5 {
        fill: url(#radial-gradient-6);
      }

      .cls-6 {
        fill: url(#radial-gradient-5);
      }

      .cls-7 {
        fill: #fff;
      }
    </style>
    <radialGradient id="radial-gradient" cx="512" cy="1024" fx="512" fy="1024" r="512" gradientTransform="translate(0 1224.94) scale(1 -1.2)" gradientUnits="userSpaceOnUse">
      <stop offset="0" stop-color="#f76e49"/>
      <stop offset="1" stop-color="#f76e49" stop-opacity=".04"/>
    </radialGradient>
    <radialGradient id="radial-gradient-2" cx="919.1" cy="903.25" fx="919.1" fy="903.25" r="843.86" gradientTransform="translate(0 1014.77) scale(1 -.99)" gradientUnits="userSpaceOnUse">
      <stop offset="0" stop-color="#ff2063"/>
      <stop offset="1" stop-color="#ff2063" stop-opacity="0"/>
    </radialGradient>
    <radialGradient id="radial-gradient-3" cx="1024" cy="250.12" fx="1024" fy="250.12" r="523.75" gradientTransform="translate(0 1021.14) scale(1 -.99)" gradientUnits="userSpaceOnUse">
      <stop offset="0" stop-color="#fd56cb"/>
      <stop offset="1" stop-color="#fd56cb" stop-opacity="0"/>
    </radialGradient>
    <radialGradient id="radial-gradient-4" cx="957.15" cy="69.88" fx="957.15" fy="69.88" r="665.78" gradientTransform="translate(0 1023.29) scale(1 -.99)" gradientUnits="userSpaceOnUse">
      <stop offset="0" stop-color="#ef7aff"/>
      <stop offset="1" stop-color="#ef7aff" stop-opacity="0"/>
    </radialGradient>
    <radialGradient id="radial-gradient-5" cx="473.05" cy="51.69" fx="473.05" fy="51.69" r="556.16" gradientTransform="translate(80.58 1240.46) rotate(-28.73) scale(1 -.9)" gradientUnits="userSpaceOnUse">
      <stop offset="0" stop-color="#02a4fd"/>
      <stop offset="1" stop-color="#02a4fd" stop-opacity="0"/>
    </radialGradient>
    <radialGradient id="radial-gradient-6" cx="49.25" cy="920.32" fx="49.25" fy="920.32" r="699.38" gradientTransform="translate(232.12 1192.96) rotate(-12.09) scale(1 -1.2)" gradientUnits="userSpaceOnUse">
      <stop offset="0" stop-color="#fe9f1b"/>
      <stop offset="1" stop-color="#fe9f1b" stop-opacity="0"/>
    </radialGradient>
  </defs>
  <g>
    <path class="cls-7" d="M1024,703.67c0,12.24,0,24.47-.09,36.69-.06,10.31-.18,20.61-.45,30.9-.28,22.53-2.26,45.02-5.92,67.25-3.81,22.26-10.91,43.81-21.08,63.96-20.62,40.48-53.53,73.39-94.01,94.01-20.14,10.16-41.68,17.26-63.91,21.06-22.26,3.67-44.74,5.65-67.27,5.92-10.3.27-20.6.42-30.9.47-12.24.07-24.46.07-36.69.07h-383.37c-12.22,0-24.44,0-36.69-.06-10.3-.04-20.6-.19-30.9-.45-22.54-.29-45.03-2.27-67.27-5.94-22.24-3.78-43.79-10.91-63.91-21.06-40.47-20.62-73.38-53.52-94.01-93.99-10.17-20.16-17.28-41.72-21.08-63.98-3.66-22.23-5.64-44.7-5.92-67.23-.27-10.31-.4-20.61-.45-30.92-.09-12.24-.09-24.44-.09-36.69v-383.35c0-12.24,0-24.49.09-36.73.04-10.29.18-20.59.45-30.88.28-22.53,2.26-45,5.92-67.23,3.81-22.26,10.91-43.81,21.08-63.98,20.62-40.48,53.53-73.39,94.01-94.01,20.13-10.15,41.66-17.25,63.89-21.06,22.26-3.65,44.74-5.63,67.27-5.92,10.31-.27,20.61-.4,30.9-.45,12.24-.07,24.49-.07,36.69-.07h383.37c12.24,0,24.49,0,36.71.07,10.3.04,20.6.19,30.9.45,22.53.29,45.01,2.27,67.25,5.92,22.26,3.81,43.79,10.91,63.93,21.06,40.49,20.61,73.41,53.53,94.03,94.01,10.16,20.15,17.26,41.71,21.06,63.96,3.66,22.24,5.64,44.72,5.92,67.25.27,10.31.4,20.61.45,30.9.09,12.24.09,24.47.09,36.69v383.36Z"/>
    <path class="cls-1" d="M1024,320.33c0-12.24,0-24.47-.09-36.69-.06-10.31-.18-20.61-.45-30.9-.28-22.53-2.26-45.02-5.92-67.25-3.81-22.26-10.91-43.81-21.08-63.96-20.62-40.48-53.53-73.39-94.01-94.01-20.14-10.16-41.68-17.26-63.91-21.06-22.26-3.67-44.74-5.65-67.27-5.92-10.3-.27-20.6-.42-30.9-.47-12.24-.07-24.46-.07-36.69-.07h-383.37c-12.22,0-24.44,0-36.69.06-10.3.04-20.6.19-30.9.45-22.54.29-45.03,2.27-67.27,5.94-22.24,3.78-43.79,10.91-63.91,21.06-40.47,20.62-73.38,53.52-94.01,93.99-10.17,20.16-17.28,41.72-21.08,63.98-3.66,22.23-5.64,44.7-5.92,67.23-.27,10.31-.4,20.61-.45,30.92-.09,12.24-.09,24.44-.09,36.69v383.35c0,12.24,0,24.49.09,36.73.04,10.29.18,20.59.45,30.88.28,22.53,2.26,45,5.92,67.23,3.81,22.26,10.91,43.81,21.08,63.98,20.62,40.48,53.53,73.39,94.01,94.01,20.13,10.15,41.66,17.25,63.89,21.06,22.26,3.65,44.74,5.63,67.27,5.92,10.31.27,20.61.4,30.9.45,12.24.07,24.49.07,36.69.07h383.37c12.24,0,24.49,0,36.71-.07,10.3-.04,20.6-.19,30.9-.45,22.53-.29,45.01-2.27,67.25-5.92,22.26-3.81,43.79-10.91,63.93-21.06,40.49-20.61,73.41-53.53,94.03-94.01,10.16-20.15,17.26-41.71,21.06-63.96,3.66-22.24,5.64-44.72,5.92-67.25.27-10.31.4-20.61.45-30.9.09-12.24.09-24.47.09-36.69v-383.36Z"/>
    <path class="cls-2" d="M1024,320.33c0-12.24,0-24.47-.09-36.69-.06-10.31-.18-20.61-.45-30.9-.28-22.53-2.26-45.02-5.92-67.25-3.81-22.26-10.91-43.81-21.08-63.96-20.62-40.48-53.53-73.39-94.01-94.01-20.14-10.16-41.68-17.26-63.91-21.06-22.26-3.67-44.74-5.65-67.27-5.92-10.3-.27-20.6-.42-30.9-.47-12.24-.07-24.46-.07-36.69-.07h-383.37c-12.22,0-24.44,0-36.69.06-10.3.04-20.6.19-30.9.45-22.54.29-45.03,2.27-67.27,5.94-22.24,3.78-43.79,10.91-63.91,21.06-40.47,20.62-73.38,53.52-94.01,93.99-10.17,20.16-17.28,41.72-21.08,63.98-3.66,22.23-5.64,44.7-5.92,67.23-.27,10.31-.4,20.61-.45,30.92-.09,12.24-.09,24.44-.09,36.69v383.35c0,12.24,0,24.49.09,36.73.04,10.29.18,20.59.45,30.88.28,22.53,2.26,45,5.92,67.23,3.81,22.26,10.91,43.81,21.08,63.98,20.62,40.48,53.53,73.39,94.01,94.01,20.13,10.15,41.66,17.25,63.89,21.06,22.26,3.65,44.74,5.63,67.27,5.92,10.31.27,20.61.4,30.9.45,12.24.07,24.49.07,36.69.07h383.37c12.24,0,24.49,0,36.71-.07,10.3-.04,20.6-.19,30.9-.45,22.53-.29,45.01-2.27,67.25-5.92,22.26-3.81,43.79-10.91,63.93-21.06,40.49-20.61,73.41-53.53,94.03-94.01,10.16-20.15,17.26-41.71,21.06-63.96,3.66-22.24,5.64-44.72,5.92-67.25.27-10.31.4-20.61.45-30.9.09-12.24.09-24.47.09-36.69v-383.36Z"/>
    <path class="cls-3" d="M1024,320.33c0-12.24,0-24.47-.09-36.69-.06-10.31-.18-20.61-.45-30.9-.28-22.53-2.26-45.02-5.92-67.25-3.81-22.26-10.91-43.81-21.08-63.96-20.62-40.48-53.53-73.39-94.01-94.01-20.14-10.16-41.68-17.26-63.91-21.06-22.26-3.67-44.74-5.65-67.27-5.92-10.3-.27-20.6-.42-30.9-.47-12.24-.07-24.46-.07-36.69-.07h-383.37c-12.22,0-24.44,0-36.69.06-10.3.04-20.6.19-30.9.45-22.54.29-45.03,2.27-67.27,5.94-22.24,3.78-43.79,10.91-63.91,21.06-40.47,20.62-73.38,53.52-94.01,93.99-10.17,20.16-17.28,41.72-21.08,63.98-3.66,22.23-5.64,44.7-5.92,67.23-.27,10.31-.4,20.61-.45,30.92-.09,12.24-.09,24.44-.09,36.69v383.35c0,12.24,0,24.49.09,36.73.04,10.29.18,20.59.45,30.88.28,22.53,2.26,45,5.92,67.23,3.81,22.26,10.91,43.81,21.08,63.98,20.62,40.48,53.53,73.39,94.01,94.01,20.13,10.15,41.66,17.25,63.89,21.06,22.26,3.65,44.74,5.63,67.27,5.92,10.31.27,20.61.4,30.9.45,12.24.07,24.49.07,36.69.07h383.37c12.24,0,24.49,0,36.71-.07,10.3-.04,20.6-.19,30.9-.45,22.53-.29,45.01-2.27,67.25-5.92,22.26-3.81,43.79-10.91,63.93-21.06,40.49-20.61,73.41-53.53,94.03-94.01,10.16-20.15,17.26-41.71,21.06-63.96,3.66-22.24,5.64-44.72,5.92-67.25.27-10.31.4-20.61.45-30.9.09-12.24.09-24.47.09-36.69v-383.36Z"/>
    <path class="cls-4" d="M1024,320.33c0-12.24,0-24.47-.09-36.69-.06-10.31-.18-20.61-.45-30.9-.28-22.53-2.26-45.02-5.92-67.25-3.81-22.26-10.91-43.81-21.08-63.96-20.62-40.48-53.53-73.39-94.01-94.01-20.14-10.16-41.68-17.26-63.91-21.06-22.26-3.67-44.74-5.65-67.27-5.92-10.3-.27-20.6-.42-30.9-.47-12.24-.07-24.46-.07-36.69-.07h-383.37c-12.22,0-24.44,0-36.69.06-10.3.04-20.6.19-30.9.45-22.54.29-45.03,2.27-67.27,5.94-22.24,3.78-43.79,10.91-63.91,21.06-40.47,20.62-73.38,53.52-94.01,93.99-10.17,20.16-17.28,41.72-21.08,63.98-3.66,22.23-5.64,44.7-5.92,67.23-.27,10.31-.4,20.61-.45,30.92-.09,12.24-.09,24.44-.09,36.69v383.35c0,12.24,0,24.49.09,36.73.04,10.29.18,20.59.45,30.88.28,22.53,2.26,45,5.92,67.23,3.81,22.26,10.91,43.81,21.08,63.98,20.62,40.48,53.53,73.39,94.01,94.01,20.13,10.15,41.66,17.25,63.89,21.06,22.26,3.65,44.74,5.63,67.27,5.92,10.31.27,20.61.4,30.9.45,12.24.07,24.49.07,36.69.07h383.37c12.24,0,24.49,0,36.71-.07,10.3-.04,20.6-.19,30.9-.45,22.53-.29,45.01-2.27,67.25-5.92,22.26-3.81,43.79-10.91,63.93-21.06,40.49-20.61,73.41-53.53,94.03-94.01,10.16-20.15,17.26-41.71,21.06-63.96,3.66-22.24,5.64-44.72,5.92-67.25.27-10.31.4-20.61.45-30.9.09-12.24.09-24.47.09-36.69v-383.36Z"/>
    <path class="cls-6" d="M1024,320.33c0-12.24,0-24.47-.09-36.69-.06-10.31-.18-20.61-.45-30.9-.28-22.53-2.26-45.02-5.92-67.25-3.81-22.26-10.91-43.81-21.08-63.96-20.62-40.48-53.53-73.39-94.01-94.01-20.14-10.16-41.68-17.26-63.91-21.06-22.26-3.67-44.74-5.65-67.27-5.92-10.3-.27-20.6-.42-30.9-.47-12.24-.07-24.46-.07-36.69-.07h-383.37c-12.22,0-24.44,0-36.69.06-10.3.04-20.6.19-30.9.45-22.54.29-45.03,2.27-67.27,5.94-22.24,3.78-43.79,10.91-63.91,21.06-40.47,20.62-73.38,53.52-94.01,93.99-10.17,20.16-17.28,41.72-21.08,63.98-3.66,22.23-5.64,44.7-5.92,67.23-.27,10.31-.4,20.61-.45,30.92-.09,12.24-.09,24.44-.09,36.69v383.35c0,12.24,0,24.49.09,36.73.04,10.29.18,20.59.45,30.88.28,22.53,2.26,45,5.92,67.23,3.81,22.26,10.91,43.81,21.08,63.98,20.62,40.48,53.53,73.39,94.01,94.01,20.13,10.15,41.66,17.25,63.89,21.06,22.26,3.65,44.74,5.63,67.27,5.92,10.31.27,20.61.4,30.9.45,12.24.07,24.49.07,36.69.07h383.37c12.24,0,24.49,0,36.71-.07,10.3-.04,20.6-.19,30.9-.45,22.53-.29,45.01-2.27,67.25-5.92,22.26-3.81,43.79-10.91,63.93-21.06,40.49-20.61,73.41-53.53,94.03-94.01,10.16-20.15,17.26-41.71,21.06-63.96,3.66-22.24,5.64-44.72,5.92-67.25.27-10.31.4-20.61.45-30.9.09-12.24.09-24.47.09-36.69v-383.36Z"/>
    <path class="cls-5" d="M1024,320.33c0-12.24,0-24.47-.09-36.69-.06-10.31-.18-20.61-.45-30.9-.28-22.53-2.26-45.02-5.92-67.25-3.81-22.26-10.91-43.81-21.08-63.96-20.62-40.48-53.53-73.39-94.01-94.01-20.14-10.16-41.68-17.26-63.91-21.06-22.26-3.67-44.74-5.65-67.27-5.92-10.3-.27-20.6-.42-30.9-.47-12.24-.07-24.46-.07-36.69-.07h-383.37c-12.22,0-24.44,0-36.69.06-10.3.04-20.6.19-30.9.45-22.54.29-45.03,2.27-67.27,5.94-22.24,3.78-43.79,10.91-63.91,21.06-40.47,20.62-73.38,53.52-94.01,93.99-10.17,20.16-17.28,41.72-21.08,63.98-3.66,22.23-5.64,44.7-5.92,67.23-.27,10.31-.4,20.61-.45,30.92-.09,12.24-.09,24.44-.09,36.69v383.35c0,12.24,0,24.49.09,36.73.04,10.29.18,20.59.45,30.88.28,22.53,2.26,45,5.92,67.23,3.81,22.26,10.91,43.81,21.08,63.98,20.62,40.48,53.53,73.39,94.01,94.01,20.13,10.15,41.66,17.25,63.89,21.06,22.26,3.65,44.74,5.63,67.27,5.92,10.31.27,20.61.4,30.9.45,12.24.07,24.49.07,36.69.07h383.37c12.24,0,24.49,0,36.71-.07,10.3-.04,20.6-.19,30.9-.45,22.53-.29,45.01-2.27,67.25-5.92,22.26-3.81,43.79-10.91,63.93-21.06,40.49-20.61,73.41-53.53,94.03-94.01,10.16-20.15,17.26-41.71,21.06-63.96,3.66-22.24,5.64-44.72,5.92-67.25.27-10.31.4-20.61.45-30.9.09-12.24.09-24.47.09-36.69v-383.36Z"/>
  </g>
  <path class="cls-7" d="M372.29,933.99c-44.27-15.17-84.94-36.4-122.01-63.7-37.08-27.3-69.32-59.49-96.73-96.57-27.42-37.08-48.65-77.8-63.7-122.18-15.06-44.37-22.58-90.84-22.58-139.37s7.53-95.27,22.58-139.54c15.05-44.26,36.29-84.94,63.7-122.01,27.41-37.08,59.6-69.32,96.56-96.73,36.96-27.41,77.57-48.7,121.84-63.87,44.26-15.17,90.78-22.75,139.54-22.75s95.33,7.58,139.71,22.75c44.37,15.17,85.1,36.46,122.18,63.87,37.08,27.42,69.32,59.66,96.73,96.73,27.41,37.08,48.7,77.75,63.87,122.01,15.17,44.27,22.75,90.78,22.75,139.54s-7.58,95-22.75,139.37c-15.17,44.38-36.46,85.1-63.87,122.18-27.42,37.08-59.66,69.26-96.73,96.57-37.08,27.3-77.75,48.53-122.01,63.7-44.27,15.17-90.78,22.75-139.54,22.75s-95.27-7.58-139.54-22.75ZM619.01,863.71c33.93-10.56,65.33-25.51,94.21-44.83,28.87-19.33,54.43-42.25,76.68-68.76,22.25-26.51,40.22-55.72,53.93-87.63-5.85,4.27-12.36,7.53-19.55,9.77-7.19,2.25-14.95,3.37-23.26,3.37-27.42-.67-53.76-6.96-79.04-18.87-25.28-11.91-49.88-27.3-73.81-46.18-23.93-18.87-47.47-39.55-70.61-62.02-23.15-22.47-46.34-44.83-69.6-67.07-23.26-22.25-46.97-42.69-71.12-61.34-24.16-18.65-48.99-33.59-74.49-44.83-25.5-11.23-52.3-16.85-80.39-16.85s-53.99,6.35-75.67,19.04c-21.69,12.7-38.65,30.62-50.89,53.76-12.25,23.15-18.37,50.11-18.37,80.89s6.12,57.41,18.37,80.56c12.24,23.15,29.21,41.07,50.89,53.76,21.68,12.7,46.9,19.04,75.67,19.04,31.01,0,60.38-5.22,88.14-15.67,27.75-10.45,54.32-24.21,79.71-41.29,25.39-17.07,50.1-35.84,74.15-56.29l53.93,50.56c-26.96,22.7-55.33,44.1-85.11,64.21-29.78,20.11-61.4,36.57-94.88,49.38-33.48,12.81-69.32,19.44-107.52,19.89-14.83,0-28.76-1.85-41.79-5.56-13.03-3.71-24.72-8.93-35.05-15.67,15.28,24.49,33.48,46.79,54.6,66.9,21.12,20.11,44.49,37.46,70.11,52.07,25.62,14.6,53.03,25.84,82.24,33.71,29.21,7.86,59.77,11.8,91.68,11.8,37.3,0,72.91-5.28,106.84-15.84ZM420.15,156.41c-29.21,7.75-56.68,18.93-82.41,33.54-25.73,14.61-49.16,32.02-70.28,52.24-21.12,20.22-39.32,42.58-54.6,67.07,10.33-6.74,21.91-12.02,34.72-15.84,12.81-3.82,26.63-5.73,41.46-5.73,31.9.67,62.07,6.63,90.5,17.86,28.42,11.24,55.44,25.73,81.06,43.48,25.62,17.75,50.05,37.19,73.31,58.31,23.26,21.12,45.67,42.02,67.24,62.69,26.29,25.39,50.95,48.31,73.98,68.76,23.03,20.45,45.33,36.57,66.9,48.37,21.57,11.8,43.14,17.7,64.71,17.7,16.85,0,31.12-4.04,42.81-12.13,11.68-8.09,20.56-18.82,26.63-32.19,6.07-13.37,9.1-27.92,9.1-43.65,0-20.9-6.52-38.65-19.55-53.25-13.03-14.6-31.35-21.91-54.94-21.91-11.69,0-23.31,2.31-34.89,6.91-11.58,4.61-24.05,11.46-37.41,20.56-13.37,9.1-28.14,20.51-44.32,34.21l-53.59-51.57c18.2-15.05,36.34-28.65,54.43-40.78,18.09-12.13,36.34-21.79,54.77-28.99,18.42-7.19,37.08-11.01,55.95-11.46,18.2,0,33.93,3.93,47.19,11.8-12.36-34.6-29.72-66.4-52.07-95.39-22.36-28.99-48.48-54.15-78.36-75.5-29.89-21.34-62.64-37.8-98.25-49.38-35.62-11.57-73.09-17.36-112.41-17.36-31.91,0-62.47,3.88-91.68,11.63Z"/>
</svg>