<?xml version="1.0" encoding="UTF-8" standalone="no"?><svg viewBox="0 0 1539.9999 1539.9999" version="1.1" xml:space="preserve" xmlns:xlink="http://www.w3.org/1999/xlink" xmlns="http://www.w3.org/2000/svg" xmlns:svg="http://www.w3.org/2000/svg"><defs><linearGradient id="a"><stop offset="0" stop-color="#313131"/><stop offset=".5" stop-color="#222"/><stop offset="1" stop-color="#141414"/></linearGradient><linearGradient xlink:href="#a" id="b" x1="769.96637" y1="0" x2="769.96637" y2="1540" gradientUnits="userSpaceOnUse"/></defs><path d="M1539.9998 1058.2541c0 18.4138 0 36.7943-.1388 55.1746-.0913 15.5012-.2676 31.0022-.6697 46.47-.4267 33.8896-3.4032 67.6993-8.9051 101.1421-5.7249 33.4797-16.4043 65.8881-31.7036 96.1873-31.0098 60.8793-80.5017 110.3736-141.3779 141.3848-30.285 15.2791-62.6801 25.954-96.1155 31.6718-33.478 5.5242-67.2909 8.5039-101.1707 8.9057-15.4861.4002-30.9762.6343-46.4674.7022-18.4129.1073-36.7923.1073-55.1718.1073H481.72056c-18.37947 0-36.75895 0-55.17184-.0911-15.49105-.0609-30.98119-.2806-46.46748-.6697-33.90028-.4327-67.7197-3.4206-101.17074-8.9392-33.44455-5.6917-65.85118-16.4054-96.11541-31.672-60.86978-31.0053-110.360588-80.4869-141.377831-141.3524-15.294717-30.3179-25.980247-62.7486-31.7036188-96.2207-5.5017679-33.4316-8.4785683-67.2301-8.90514548-101.1087-.40193734-15.5012-.60213601-31.0022-.6698956-46.5033C0 1095.0289 0 1076.6819 0 1058.2682V481.74736c0-18.41394 0-36.82773.13859912-55.2415.0616-15.46775.26795826-30.9688.6698956-46.4364.42657718-33.87861 3.40383948-67.67716 8.90514548-101.10888 5.7247588-33.4796 16.4042838-65.88798 31.7036188-96.22061C72.426957 121.86068 121.91885 72.366151 182.79509 41.355013c30.27639-15.271259 62.65931-25.945771 96.08201-31.6717994 33.47798-5.4907167 67.29077-8.4703094 101.17055-8.90551343C395.54811.37576009 411.04842.1755601 426.51515.1078 444.92818 0 463.34109 0 481.68699 0h576.55881c18.413 0 36.826 0 55.2054.1078 15.4911.06159999 30.981.28028009 46.4675.66990017 33.8797.43582003 67.6926 3.41479673 101.1371 8.90551343 33.478 5.7251054 65.8514 16.4051604 96.149 31.6717994 60.8914 31.001743 110.3966 80.497817 141.4113 141.384957 15.2818 30.3086 25.956 62.72793 31.6701 96.1872 5.5024 33.4428 8.479 67.25243 8.9052 101.14229.4022 15.50102.6019 31.00222.6697 46.46982.1388 18.41379.1388 36.79414.1388 55.17449Z" fill="url(#b)"/><path d="M494.41783 1267.133h62.32101V583.43437h-63.26525L309.81538 709.93986v65.85871l182.71393-123.18892h1.88852Zm479.15012 10.8969c153.91415 0 246.45125-135.507 246.45125-352.03564v-1.42145c0-216.05432-92.5371-352.03588-246.45125-352.03588-153.91404 0-245.9792 135.50773-245.9792 352.03588v1.42145c0 216.05404 92.06516 352.03564 245.9792 352.03564Zm0-56.856c-114.25523 0-181.29754-113.7127-181.29754-295.17964v-1.42145c0-181.46665 67.04231-294.70563 181.29754-294.70563 114.25525 0 181.76955 112.76519 181.76955 294.70563v1.42145c0 180.99294-67.5143 295.17964-181.76955 295.17964Z" fill="#fff"/><path d="M934.6665 398.79427h42.32231V263.70185h2.34309l97.8245 135.09242h36.6111V187.59345h-42.3224v134.50696h-2.3432l-97.53153-134.50696H934.6665Z" fill="#ff3a2f"/><path d="M786.38656 404.20967c62.35035 0 101.57544-42.73779 101.57544-110.94262v-.29274c0-68.20483-39.37145-110.79626-101.57544-110.79626s-101.72182 42.44506-101.72182 110.79626v.29274c0 68.20483 38.93239 110.94262 101.72182 110.94262Zm0-37.46875c-34.83423 0-56.64222-28.83337-56.64222-73.47387v-.29274c0-44.78685 22.24708-73.32751 56.64222-73.32751 34.24877 0 56.49585 28.54066 56.49585 73.32751v.29274c0 44.6405-22.10072 73.47387-56.49585 73.47387Z" fill="#ff3a2f"/><path d="M419.22582 398.79427h39.60349V255.06649h2.94452l54.47324 143.72778h27.8255l54.47323-143.72778h2.9445v143.72778h39.60352V187.59345h-50.93985l-58.59551 154.5586h-2.65007l-58.74276-154.5586h-50.93981Z" fill="#ff3a2f"/></svg>