<?xml version="1.0" encoding="utf-8"?>
<!DOCTYPE svg PUBLIC "-//W3C//DTD SVG 20010904//EN" "http://www.w3.org/TR/2001/REC-SVG-20010904/DTD/svg10.dtd">
<svg version="1.0" width="383.845pt" height="383.072pt" viewBox="0 0 383.845 383.072" preserveAspectRatio="xMidYMid meet" xmlns="http://www.w3.org/2000/svg">

  <defs xmlns="http://www.w3.org/2000/svg">
  <linearGradient id="a" xmlns="http://www.w3.org/2000/svg" x1="0" x2="0" y1="0" y2="1"><stop offset="0" stop-color="#313131"/><stop offset="1" stop-color="#141414"/></linearGradient>
  <linearGradient id="b" xmlns="http://www.w3.org/2000/svg" x1="0" x2="0" y1="0" y2="1"><stop offset="0" stop-color="#1ac9fc"/><stop offset="1" stop-color="#1d6ff2"/></linearGradient>
  </defs>

  <g transform="translate(-.105,383.131)scale(.075,.075)">
    <path id="path1" d="M 1125 -5099 c -66 4 -150 12 -185 19 -500 88 -850 460 -910 970 -28 239 -37 1231 -20 2455 8 634 14 710 66 877 55 176 186 380 316 488 190 159 353 228 623 266 119 17 237 19 1415 22 1296 4 1573 -1 1752 -32 477 -82 827 -433 904 -906 27 -165 33 -466 33 -1535 1 -1115 -8 -1518 -34 -1690 -36 -234 -140 -447 -297 -605 -88 -89 -156 -139 -273 -200 -154 -81 -291 -114 -545 -130 -181 -12 -2663 -11 -2845 1 z " fill='url(#a)'/>
    <path id="path2" d="M 4020 -4855 c 361 59 677 329 786 672 57 179 55 117 48 1628 -5 1119 -9 1406 -20 1472 -70 411 -414 745 -828 802 -52 8 -524 11 -1460 11 -1505 0 -1467 1 -1628 -56 -112 -40 -195 -88 -290 -166 -197 -163 -320 -374 -356 -613 -7 -45 -13 -552 -17 -1440 -6 -1251 -5 -1379 10 -1475 34 -210 116 -377 263 -531 127 -133 254 -216 415 -269 148 -48 135 -48 1602 -49 1198 -1 1393 1 1475 14 z " fill='url(#b)'/>
    <path id="path3" d="M 1125 -4764 c -236 50 -372 119 -512 261 -137 138 -220 294 -252 474 -6 33 -12 594 -17 1425 -5 1088 -4 1387 6 1459 28 200 107 364 246 515 71 76 229 181 333 220 166 62 117 61 1662 58 l 1404 -3 85 -23 c 92 -24 224 -83 295 -132 116 -80 232 -213 295 -340 47 -93 67 -157 86 -275 16 -95 16 -213 10 -1477 -8 -1493 -6 -1441 -66 -1596 -101 -261 -325 -462 -609 -545 l -76 -22 -1435 -1 c -789 -1 -1444 0 -1455 2 z " fill='url(#a)'/>
    <path id="path4" d="M 2756 -4659 c 384 37 762 184 1072 416 158 119 360 330 469 493 246 364 363 750 363 1193 -1 337 -67 623 -214 923 -164 334 -426 630 -738 835 -191 125 -469 242 -691 290 -474 104 -995 37 -1412 -181 -264 -138 -464 -298 -661 -528 -242 -282 -413 -671 -469 -1062 -17 -123 -20 -407 -5 -530 77 -619 414 -1164 935 -1512 386 -257 888 -383 1351 -337 z " fill="url(#b)" />
    <path id="path5" d="M 2330 -4599 c -460 52 -897 264 -1225 593 -106 107 -242 282 -315 406 -307 520 -369 1154 -170 1724 73 209 220 468 355 626 30 36 66 88 80 115 31 63 64 96 135 131 30 15 82 49 115 75 82 64 215 149 305 195 560 285 1176 309 1754 69 150 -62 276 -135 441 -256 49 -36 110 -76 135 -88 60 -30 87 -57 116 -113 13 -25 61 -93 107 -150 332 -412 490 -937 445 -1470 -40 -466 -257 -927 -593 -1263 -328 -328 -737 -530 -1198 -590 -126 -16 -362 -18 -487 -4 z " fill='url(#a)'/>
    <path id="path6" d="M 2874 -4210 c 588 117 1059 518 1262 1076 102 280 127 592 72 882 -9 51 -15 62 -31 62 -16 0 -18 -5 -13 -28 3 -15 13 -94 23 -175 15 -129 15 -166 5 -285 -21 -228 -64 -390 -154 -582 -188 -397 -523 -694 -962 -852 -61 -22 -129 -47 -151 -56 -59 -23 -671 -23 -730 0 -22 9 -89 34 -150 55 -384 138 -661 358 -882 703 -131 204 -211 456 -235 743 -10 129 -10 164 5 285 10 75 20 149 23 164 5 23 3 28 -13 28 -16 0 -22 -11 -31 -63 -71 -383 -10 -763 177 -1115 141 -265 404 -525 682 -676 162 -87 384 -157 587 -185 114 -16 392 -6 516 19 z m -527 75 c 58 24 8 -54 493 785 123 212 290 502 373 645 82 143 207 360 278 483 71 122 187 322 257 444 71 123 166 288 212 368 75 129 84 150 84 195 0 73 -32 128 -96 164 -64 37 -106 45 -159 31 -60 -17 -100 -61 -182 -205 -73 -129 -191 -333 -431 -747 -67 -117 -174 -303 -238 -413 -63 -110 -182 -315 -263 -455 -81 -140 -159 -275 -173 -300 -14 -25 -116 -203 -228 -397 -135 -234 -206 -365 -210 -392 -22 -139 147 -262 283 -206 z m 604 16 c 50 27 63 40 85 86 41 84 34 108 -103 347 -65 113 -121 206 -124 206 -4 0 -57 -88 -118 -195 l -112 -194 62 -108 c 69 -119 84 -138 132 -158 54 -24 113 -19 178 16 z m -522 917 l 112 194 -125 216 c -68 120 -162 282 -208 362 -46 80 -146 252 -221 382 -75 131 -162 282 -194 336 -31 53 -122 212 -203 352 -81 140 -153 265 -161 278 -8 12 -37 34 -66 48 -43 21 -60 25 -95 19 -114 -19 -192 -100 -192 -200 0 -44 9 -66 82 -193 84 -146 333 -577 507 -877 103 -178 261 -452 485 -840 149 -259 160 -278 165 -273 2 1 53 90 114 196 z m -992 1247 l -112 195 -203 0 c -156 0 -209 -3 -230 -14 -31 -16 -74 -61 -91 -93 -16 -31 -14 -149 3 -181 18 -35 64 -78 96 -91 15 -6 155 -10 337 -10 l 312 -1 -112 195 z m 1650 -107 c 28 48 78 134 112 192 l 61 105 -350 3 c -193 1 -507 1 -700 0 l -349 -3 111 -193 112 -192 476 0 476 0 51 88 z m 1153 -65 c 123 65 122 285 0 347 -35 18 -59 20 -242 20 l -203 0 -88 -152 c -48 -84 -99 -172 -113 -196 l -25 -42 314 0 c 308 0 315 0 357 23 z m -3048 467 c 37 59 43 105 11 78 -12 -10 -50 -64 -87 -126 -5 -8 0 -12 16 -12 17 0 32 15 60 60 z m 2806 -38 c -80 126 -82 128 -96 114 -20 -20 53 -135 87 -136 22 0 22 1 9 22 z m -2379 481 c 163 116 380 210 607 263 111 26 134 28 334 28 200 0 223 -2 335 -28 228 -53 385 -120 574 -244 66 -43 85 -52 92 -41 11 18 -7 33 -125 106 -156 96 -351 174 -541 214 -97 21 -137 24 -335 24 -253 0 -351 -15 -544 -82 -198 -68 -473 -223 -460 -258 8 -20 10 -20 63 18 z " fill="url(#b)" />
  </g>
</svg>