<?xml version="1.0" encoding="UTF-8" standalone="no"?><svg xml:space="preserve" version="1.1" viewBox="0 0 800 800" xmlns:xlink="http://www.w3.org/1999/xlink" xmlns="http://www.w3.org/2000/svg" xmlns:svg="http://www.w3.org/2000/svg"><defs><linearGradient id="b"><stop offset="0" stop-color="#1ac9fc"/><stop offset="1" stop-color="#1d6ff2"/></linearGradient><linearGradient xlink:href="#a" id="c" x1="512" y1="0" x2="512" y2="1024" gradientUnits="userSpaceOnUse" gradientTransform="scale(.78125)"/><linearGradient id="a"><stop offset="0" stop-color="#313131"/><stop offset="1" stop-color="#141414"/></linearGradient><linearGradient xlink:href="#b" id="d" gradientUnits="userSpaceOnUse" gradientTransform="translate(5.6997387 7.8558026) scale(.99016962)" x1="398.31082" y1="135.9446" x2="398.31082" y2="641.04675"/></defs><path d="M799.99992 549.74242c0 9.56558 0 19.11389-.07211 28.6621-.04742 8.05258-.13898 16.10506-.34789 24.14027-.22164 17.605-1.76789 35.16848-4.62601 52.54137-2.97399 17.39205-8.52172 34.22757-16.46944 49.96742-16.10895 31.62563-41.81906 57.33694-73.44305 73.44663-15.73247 7.93721-32.5611 13.4826-49.93011 16.45291-17.39121 2.86969-34.95631 4.41758-52.5562 4.62633-8.04473.20789-16.09158.32953-24.13895.36477C568.85101 800 559.30331 800 549.75552 800H250.24445c-9.54777 0-19.09555 0-28.66069-.04734-8.0473-.03164-16.09413-.14579-24.13896-.34789-17.61053-.22477-35.17906-1.77696-52.55622-4.64375-17.3738-2.95672-34.20841-8.52227-49.930088-16.45302-31.620666-16.10663-57.330178-41.81137-73.443032-73.42979-7.945308-15.74958-13.4962327-32.59669-16.469413-49.98479-2.8580613-17.36705-4.40445121-34.92473-4.62604973-52.524-.20879862-8.05258-.31279793-16.10505-.34799772-24.15758C0 568.84621 0 559.31531 0 549.74973V250.25837c0-9.56567 0-19.13128.07199955-28.69688.032-8.03519.1391991-16.08769.34799772-24.1228.22159852-17.59928 1.76822833-35.15697 4.62604973-52.5241 2.9739007-17.392 8.521706-34.22752 16.469413-49.984731 16.108935-31.625607 41.819008-57.337052 73.443032-73.446735C110.68648 13.550002 127.50878 8.0048016 144.87123 5.030241 162.26238 2.1779205 179.82747.6300801 197.42736.4040001 205.47955.19520005 213.53166.09120005 221.56632.056 231.13153 0 240.69668 0 250.22702 0h299.51109c9.5652 0 19.13037 0 28.67811.056 8.04731.032 16.09405.14560005 24.13894.3480001 17.59989.2264 35.165 1.7739204 52.53879 4.6262409 17.39116 2.9740809 34.20853 8.522161 49.94752 16.452883 31.63189 16.104803 57.3489 41.817049 73.46042 73.446735 7.93858 15.744731 13.48366 32.585941 16.45202 49.967371 2.85836 17.37289 4.40468 34.93633 4.62609 52.54146.20891 8.05247.31266 16.10504.34789 24.14016C800 231.14446 800 240.6927 800 250.24093Z" fill="url(#c)"/><path d="M447.39453 142.57617c-3.4791-.08917-6.95699.25428-10.31641 1.25-9.01196 2.67112-17.18582 9.31357-23.52929 20.30078l-13.3711 23.11524-10.3789-18.03125c-4.55544-7.81569-13.38062-26.56055-36.50586-26.56055-5.68538 0-11.41999 1.37139-16.7207 4.40039-5.59658 3.23119-9.95793 7.63167-12.9375 12.87305-3.53061 6.21069-5.12093 13.31978-4.53321 20.11328.53468 6.18044 2.61613 12.29063 5.70899 17.70312l8.58789 15.20704 26.0664 44.94726-115.51562 200.11914h-89.4043c-10.00049 0-20.71048 3.92585-27.2207 10.29883-6.51021 6.37299-10.52149 15.19469-10.52149 24.98438 0 9.78968 4.01128 18.60942 10.52149 24.98242 6.51022 6.37298 17.22021 10.29882 27.2207 10.29882h320.73047c8.81042-16.51261 5.29324-37.20793-6.55078-51.90624-8.87393-11.01248-22.44548-18.65821-38.88281-18.65821H325.51367l149.21485-258.65625c5.33841-9.96951 6.82569-15.97521 6.7246-22.33203-.19593-12.3207-6.58549-23.60215-17.16992-29.65039-5.28492-3.01996-11.09016-4.65022-16.88867-4.79883zm5.0957 135.44727c-5.36115 4.29221-11.55541 13.10175-16.11132 21.74609-5.82773 11.05746-9.91899 24.52334-10.69336 40.22656-.88715 17.99015 3.12194 38.3454 14.31054 57.72461 28.28772 49.07631 70.91052 122.73837 127.67579 221.17578 9.01854 15.62057 16.96279 20.48414 26.4121 22.68946 9.35167 2.18253 17.45681.80453 25.45118-3.76367 7.20467-4.15962 12.11651-10.11994 14.82422-16.85547 4.14343-10.30695 2.58618-23.36528-3.19727-33.48633l-33.94922-58.9082h48.22461c10.00049 0 20.71048-3.92585 27.2207-10.29883 6.51022-6.373 10.52149-15.19274 10.52149-24.98242s-4.01127-18.61139-10.52149-24.98438c-6.51022-6.37298-17.22021-10.29687-27.2207-10.29687h-89.03125c-46.18632-79.97884-80.75067-140.24527-103.91602-179.98633zM215.84961 542.78125c-.97086-.01423-1.95-.0135-2.93359.00586-8.20304.16142-15.18448 1.36205-19.73829 3.12305l-23.95703 41.57031c-5.78345 10.12105-7.37 23.17938-3.22656 33.48633 2.70771 6.73553 7.61955 12.69585 14.82422 16.85547 7.99436 4.5682 16.09951 5.9462 25.45117 3.76367 9.44931-2.20532 17.36427-7.06889 26.38281-22.68946 8.74372-15.16258 30.61524-53.06445 30.61524-53.06445-7.87091-10.58554-18.08988-16.84776-28.96094-20.34765-5.23504-1.6854-11.66101-2.6035-18.45703-2.70313z" fill="url(#d)"/></svg>