<?xml version="1.0" encoding="UTF-8" standalone="no"?><svg version="1.1" viewBox="0 0 1024 1024" xml:space="preserve" xmlns:xlink="http://www.w3.org/1999/xlink" xmlns="http://www.w3.org/2000/svg" xmlns:svg="http://www.w3.org/2000/svg"><defs><linearGradient id="b"><stop offset="0" stop-color="#b4b3b7"/><stop offset=".25" stop-color="#9f9fa2"/><stop offset=".5" stop-color="#8a8a8d"/><stop offset=".75" stop-color="#757578"/><stop offset=".91712254" stop-color="#67676a"/><stop offset="1" stop-color="#616164"/></linearGradient><linearGradient xlink:href="#a" id="c" x1="512" y1="0" x2="512" y2="1024" gradientUnits="userSpaceOnUse"/><linearGradient id="a"><stop offset="0" stop-color="#313131"/><stop offset="1" stop-color="#141414"/></linearGradient><linearGradient xlink:href="#b" id="d" x1="511.99823" y1="221.43062" x2="511.99921" y2="802.51965" gradientUnits="userSpaceOnUse" gradientTransform="matrix(.99811241 0 0 .99794774 1.45747 -8.9351598)"/></defs><path d="M1023.9999 703.6703c0 12.24394 0 24.46578-.0923 36.68749-.0607 10.3073-.1779 20.61447-.4453 30.89954-.2837 22.5344-2.2629 45.01565-5.9213 67.25295-3.8067 22.26183-10.9078 43.8113-21.08088 63.9583-20.61945 40.48081-53.52839 73.39129-94.0071 94.01169-20.13757 10.15963-41.67821 17.25773-63.91054 21.05973-22.26075 3.6732-44.74408 5.6545-67.27194 5.9217-10.29726.2661-20.59722.4218-30.89785.4669-12.2434.0714-24.46445.0714-36.68562.0714H320.3129c-12.22115 0-24.44231 0-36.68569-.0606-10.30054-.0405-20.60048-.1866-30.89786-.4453-22.54148-.2877-45.0292-2.2745-67.27197-5.944-22.23846-3.7846-43.78676-10.9085-63.91051-21.05986-40.474453-20.61649-73.382628-53.51855-94.007081-93.99013-10.169994-20.15946-17.275178-41.72376-21.0808488-63.98053C2.8006217 816.28975.82124261 793.81592.53759651 771.28886c-.26726224-10.3073-.40038136-20.61447-.44543709-30.9217C0 728.12315 0 715.9236 0 703.67966V320.33072c0-12.24407 0-24.48805.09215942-36.73201.04096-10.28505.17817485-20.59224.44543709-30.87719.2836461-22.52708 2.26333229-45.00092 5.92134369-67.23084 3.8065928-22.26176 10.9077838-43.81123 21.0808488-63.98046 20.619436-40.480777 53.52833-73.391427 94.007081-94.011821 20.13183-10.154396 41.66437-17.252253 63.8883-21.0596905C207.69585 2.7877383 230.17916.80650253 252.70702.51712013 263.01382.24985607 273.32052.11673607 283.60489.07168 295.84836 0 308.09175 0 320.29058 0h383.3742c12.24346 0 24.48687 0 36.70798.07168 10.30056.04096 20.60038.18636807 30.89785.44544013 22.52786.289792 45.01119 2.27061817 67.24964 5.92158837 22.26069 3.8068235 43.78692 10.9083665 63.93283 21.0596905 40.48882 20.614147 73.40659 53.525823 94.02934 94.011821 10.16138 20.15325 17.25908 41.71 21.05858 63.95824 3.6587 22.23729 5.638 44.7185 5.9214 67.25306.2674 10.30717.4002 20.61446.4453 30.89941.0923 12.24398.0923 24.46572.0923 36.68746Z" fill="url(#c)"/><path d="M450.15625 212.04102c-15.61111 0-27.98014 2.07948-37.10352 6.53906-8.92063 4.45958-17.23136 11.04443-24.93554 19.35547l-24.48047 27.36718c-6.69048 7.50021-12.77245 12.96915-18.44922 16.00977-5.67676 2.83791-14.44644 4.75781-26.4082 4.75781h-87.3086c-30.81001 0-53.96757 7.80111-69.4707 23.10547-15.30688 15.10814-22.96094 38.37159-22.96094 68.58789v322.29688c0 30.62586 7.70878 53.54563 23.12305 68.75976 15.61188 15.41173 38.93088 23.11719 69.95703 23.11719h560.74219c31.02615 0 54.34515-7.70546 69.95703-23.11719 15.41427-15.21413 23.12109-38.1339 23.12109-68.75976V377.76367c0-30.2163-7.6521-53.47975-22.95898-68.58789-15.50313-15.30436-38.66069-23.10547-69.4707-23.10547h-91.70899c-11.96176 0-20.73144-1.9199-26.4082-4.75781-5.67677-3.04062-11.65718-8.50956-18.34766-16.00977l-24.38086-27.36718c-7.70418-8.31104-16.11648-14.89589-25.03711-19.35547-9.12338-4.45958-21.49045-6.53906-37.10156-6.53906H450.15625zm62.44727 153.94336c31.2423 0 59.59018 7.55791 85.24609 22.67382 24.67108 14.53567 46.13636 35.61078 61.24023 61.28711 15.10388 25.67635 22.65625 54.15274 22.65625 85.62696 0 23.81274-4.29447 45.96909-12.98437 66.46875-8.68991 20.49967-20.8456 38.41331-36.36328 53.94336-15.5177 15.53003-33.57526 27.84419-54.0586 36.54101-20.48335 8.69683-42.35633 12.94531-65.73632 12.94531-23.58689 0-45.62212-4.34809-66.10547-13.04492-30.0368-12.75303-52.18024-32.51042-66.56641-50.68555-10.99424-13.88987-18.62061-27.88477-23.74805-39.69921-8.6899-20.49966-13.03515-42.65601-13.03515-66.46875 0-23.60567 4.34525-45.65856 13.03515-66.15821 4.1697-9.60765 10.07045-20.83978 18.22461-32.33594 7.84918-11.06614 17.97547-22.45738 30.55469-32.83398 11.68224-9.63668 25.48026-18.44707 41.53516-25.26367 20.48335-8.69683 42.08926-12.99609 66.10547-12.99609zm-.03516 37.89843c-18.62589 0-35.38357 3.43773-51.26953 10.1875-12.45146 5.29048-23.05306 12.02862-32.11328 19.50781-9.75588 8.05349-17.60785 16.89379-23.69532 25.48243-6.32399 8.92237-11.00053 17.63903-14.23437 25.0957-6.73948 15.91016-10.10742 33.02688-10.10742 51.34766 0 18.48151 3.36794 35.67578 10.10742 51.58593 3.97662 9.1694 9.89134 19.93272 18.41797 30.71289 11.15727 14.10605 28.32981 29.53964 51.625 39.4375 15.88596 6.74976 32.9766 10.125 51.26953 10.125 18.13246 0 35.09647-3.29905 50.98242-10.04882 15.88596-6.74974 29.89096-16.40583 41.92578-28.45899 12.03482-12.05314 21.46167-25.85741 28.20117-41.76758 6.7395-15.91015 10.07032-33.10442 10.07032-51.58593 0-24.4277-5.95799-46.52915-17.67188-66.45703-11.71388-19.92787-28.26076-36.18541-47.39453-47.4668-19.89757-11.73173-41.88316-17.69727-66.11328-17.69727z" fill="url(#d)"/><path d="M719.05 398.56298c0 9.5565 3.38356 17.31666 9.97576 23.80789 6.59216 6.31089 14.52056 9.55413 23.78522 9.55413 8.90833 0 16.65858-3.06971 23.25075-9.56092 6.59217-6.4912 9.88827-14.42491 9.88827-23.8011 0-9.0156-3.38401-16.85915-9.97618-23.53069-6.59216-6.67154-14.25451-10.00729-23.16284-10.00729-9.26466 0-17.10549 3.42338-23.69766 10.09491-6.59216 6.67155-10.06332 14.42747-10.06332 23.44307Z" fill="#fc0"/></svg>