<?xml version="1.0" encoding="UTF-8" standalone="no"?>
<svg
   version="1.1"
   xml:space="preserve"
   id="svg9"
   viewBox="0 0 727.59998 727.59998"
   xmlns:xlink="http://www.w3.org/1999/xlink"
   xmlns="http://www.w3.org/2000/svg"
   xmlns:svg="http://www.w3.org/2000/svg"><defs
     id="defs4"><linearGradient
       id="linearGradient29"><stop
         style="stop-color:#e366ff"
         offset="0"
         id="stop28" /><stop
         style="stop-color:#8e22c8"
         offset="1"
         id="stop29" /></linearGradient><linearGradient
       xlink:href="#a"
       id="c"
       x1="512"
       y1="0"
       x2="512"
       y2="1024"
       gradientUnits="userSpaceOnUse"
       gradientTransform="scale(0.71054687)" /><linearGradient
       id="a"><stop
         offset="0"
         stop-color="#313131"
         id="stop3"
         style="stop-color:#30312f" /><stop
         offset="0.5"
         stop-color="#313131"
         id="stop9"
         style="stop-color:#232222" /><stop
         offset="1"
         stop-color="#141414"
         id="stop4"
         style="stop-color:#141414" /></linearGradient><linearGradient
       xlink:href="#linearGradient29"
       id="linearGradient26"
       gradientUnits="userSpaceOnUse"
       gradientTransform="matrix(1.0002194,0,0,1.0017277,0.27574076,-0.25672755)"
       x1="363.08783"
       y1="80.417473"
       x2="363.08783"
       y2="640.68304" /></defs><path
     d="M 727.59992,499.99073 C 727.59992,508.69062 727.59992,517.37481 727.53434,526.05892 727.49121,533.38274 727.40793,540.70647 727.21793,548.01449 727.01635,564.02623 725.61004,580.00021 723.01057,595.80085 720.30573,611.61893 715.26007,626.93084 708.03162,641.24622 693.38053,670.00974 669.99719,693.39418 641.23517,708.04594 626.92648,715.26483 611.62085,720.30836 595.82373,723.00986 580.00643,725.61984 564.03097,727.02765 548.02388,727.21751 540.70719,727.40658 533.38859,727.51722 526.0695,727.54926 517.36999,727.6 508.68636,727.6 500.00264,727.6 H 227.59733 C 218.91363,727.6 210.22992,727.6 201.53042,727.55694 194.2114,727.52816 186.89281,727.42435 179.57604,727.24053 163.55927,727.03611 147.58069,725.62439 131.77616,723.01704 115.97469,720.3279 100.66362,715.26604 86.364748,708.05302 57.605752,693.40404 34.222952,670.02558 19.568311,641.26863 12.342054,626.94439 7.2934872,611.62194 4.5893797,595.80746 1.989973,580.01213 0.58353136,564.04342 0.38198752,548.03689 0.19208517,540.71307 0.0974978,533.38935 0.06548359,526.06558 0,517.36562 0,508.69727 0,499.99738 V 227.60999 C 0,218.91001 0,210.21009 0.06548359,201.51017 0.09458759,194.20216 0.19208517,186.87842 0.38198752,179.57048 0.58353136,163.56394 1.9901912,147.59522 4.5893797,131.79982 7.2941423,115.9818 12.339872,100.66989 19.568311,86.338706 34.219387,57.575217 57.602698,34.190658 86.364748,19.538902 100.66936,12.323727 115.96924,7.280367 131.76038,4.5750041 147.57764,1.9808188 163.55308,0.57305785 179.56017,0.36743808 186.88364,0.17753445 194.20703,0.08294645 201.51456,0.050932 210.21413,0 218.91363,0 227.58147,0 H 499.9868 C 508.68636,0 517.38587,0 526.06955,0.050932 533.38859,0.080036 540.70709,0.18335525 548.02393,0.36743808 564.03102,0.57334889 580.00648,1.9808188 595.80794,4.5750041 611.6252,7.2799307 626.9206,12.32591 641.23521,19.538902 670.00442,34.186219 693.39403,57.571507 708.04746,86.338706 715.2676,100.65854 720.31085,115.97562 723.01057,131.78404 725.61025,147.58467 727.01664,163.55863 727.21801,179.57048 727.40801,186.89421 727.50237,194.21802 727.53441,201.52596 727.6,210.22589 727.6,218.91001 727.6,227.59413 Z"
     id="path4"
     style="fill:url(#c)" /><path
     id="path26"
     style="fill:url(#linearGradient26)"
     d="M 362.71094,80.300781 C 223.68125,80.711292 109.74958,193.50676 108.04492,332.48047 106.65586,445.1183 178.53847,541.43044 278.92773,576.73438 281.35852,577.58696 283.82028,575.56557 283.44141,573.00781 282.11553,564.26076 280.88451,555.48239 279.74805,546.83008 279.33766,543.76703 277.37995,541.14755 274.57031,539.91602 195.23751,505.24363 139.8348,425.69892 140.71875,333.52344 141.88681,212.58066 240.63517,113.96332 361.60742,112.98438 485.26303,111.97389 586.1875,212.26375 586.1875,335.70117 586.1875,426.92931 531.03769,505.52784 452.30469,539.91602 449.49505,541.14755 447.5686,543.76703 447.1582,546.83008 446.02173,555.4508 444.79074,564.22954 443.46484,572.97656 443.05445,575.53437 445.54771,577.55572 447.97852,576.70312 547.38917,541.74653 618.86133,446.91802 618.86133,335.70117 618.86133,194.64337 503.8873,79.890272 362.71094,80.300781 Z M 365.71094,164.88281 C 362.70503,164.84318 359.68159,164.88176 356.64062,165 266.26475,168.50001 193.73079,243.04174 192.56445,333.50586 191.80792,393.00597 221.62841,445.69419 267.27344,476.87891 269.5746,478.42397 272.66348,476.65757 272.50586,473.88281 271.87541,463.44584 271.68675,454.23907 272.22266,444.74805 272.41179,441.62644 271.18173,438.59922 268.91211,436.45508 241.2036,410.44152 224.21339,373.14093 225.28516,331.99219 227.17656,259.53261 285.58825,200.37857 357.99609,197.57227 436.67706,194.51368 501.67578,257.64096 501.67578,335.68164 501.67578,375.37994 484.87529,411.19855 457.98633,436.42383 455.68515,438.56797 454.45537,441.59516 454.64453,444.7168 455.18042,454.20781 454.99181,463.44614 454.36133,473.85156 454.17221,476.62635 457.29259,478.42425 459.59375,476.84766 504.67137,446.07284 534.30273,394.29858 534.30273,335.71289 534.30273,242.27199 458.89405,166.11149 365.71094,164.88281 Z M 363.44922,255.12695 C 330.70478,255.12695 304.16211,281.67634 304.16211,314.39844 304.16211,347.12057 330.70478,373.66992 363.44922,373.66992 396.19371,373.66992 422.73633,347.15208 422.73633,314.39844 422.73633,281.67634 396.19371,255.12695 363.44922,255.12695 Z M 363.83203,397.95508 C 341.25683,397.95508 322.15008,405.31266 311.17773,416.83789 305.50243,422.83734 302.50641,428.9937 301.56055,437.74023 299.73185,454.69651 300.77144,469.31739 302.75781,492.68359 304.64959,514.94466 308.24543,544.62555 312.94336,574.84375 316.28546,596.34699 318.99575,607.96701 321.45508,616.27148 325.45931,629.75442 340.40577,641.5332 363.80078,641.5332 387.19578,641.5332 402.14023,629.75442 406.14453,616.27148 408.60385,607.96701 411.31605,596.34699 414.6582,574.84375 419.35612,544.62555 422.95,514.94466 424.8418,492.68359 426.82817,469.31739 427.86779,454.69651 426.03906,437.74023 425.09318,428.9937 422.09917,422.83734 416.42383,416.83789 405.51454,405.31266 386.40731,397.95508 363.83203,397.95508 Z" /></svg>
