<?xml version="1.0" encoding="UTF-8" standalone="no"?><svg version="1.1" viewBox="0 0 1024 1024" xml:space="preserve" xmlns:xlink="http://www.w3.org/1999/xlink" xmlns="http://www.w3.org/2000/svg" xmlns:svg="http://www.w3.org/2000/svg"><defs><linearGradient id="b"><stop offset="0" stop-color="#1cd5fc"/><stop offset="1" stop-color="#1e62f0"/></linearGradient><linearGradient xlink:href="#b" id="d" x1="512" y1="102.39999" x2="512" y2="921.59998" gradientUnits="userSpaceOnUse" gradientTransform="translate(-44.12183 -44.159264) scale(1.0857847)"/></defs><path d="M1023.9999 703.6703c0 12.24394 0 24.46578-.0923 36.68749-.0607 10.3073-.1779 20.61447-.4453 30.89954-.2837 22.5344-2.2629 45.01565-5.9213 67.25295-3.8067 22.26183-10.9078 43.8113-21.08088 63.9583-20.61945 40.48081-53.52839 73.39129-94.0071 94.01169-20.13757 10.15963-41.67821 17.25773-63.91054 21.05973-22.26075 3.6732-44.74408 5.6545-67.27194 5.9217-10.29726.2661-20.59722.4218-30.89785.4669-12.2434.0714-24.46445.0714-36.68562.0714H320.3129c-12.22115 0-24.44231 0-36.68569-.0606-10.30054-.0405-20.60048-.1866-30.89786-.4453-22.54148-.2877-45.0292-2.2745-67.27197-5.944-22.23846-3.7846-43.78676-10.9085-63.91051-21.05986-40.474453-20.61649-73.382628-53.51855-94.007081-93.99013-10.169994-20.15946-17.275178-41.72376-21.0808488-63.98053C2.8006217 816.28975.82124261 793.81592.53759651 771.28886c-.26726224-10.3073-.40038136-20.61447-.44543709-30.9217C0 728.12315 0 715.9236 0 703.67966V320.33072c0-12.24407 0-24.48805.09215942-36.73201.04096-10.28505.17817485-20.59224.44543709-30.87719.2836461-22.52708 2.26333229-45.00092 5.92134369-67.23084 3.8065928-22.26176 10.9077838-43.81123 21.0808488-63.98046 20.619436-40.480777 53.52833-73.391427 94.007081-94.011821 20.13183-10.154396 41.66437-17.252253 63.8883-21.0596905C207.69585 2.7877383 230.17916.80650253 252.70702.51712013 263.01382.24985607 273.32052.11673607 283.60489.07168 295.84836 0 308.09175 0 320.29058 0h383.3742c12.24346 0 24.48687 0 36.70798.07168 10.30056.04096 20.60038.18636807 30.89785.44544013 22.52786.289792 45.01119 2.27061817 67.24964 5.92158837 22.26069 3.8068235 43.78692 10.9083665 63.93283 21.0596905 40.48882 20.614147 73.40659 53.525823 94.02934 94.011821 10.16138 20.15325 17.25908 41.71 21.05858 63.95824 3.6587 22.23729 5.638 44.7185 5.9214 67.25306.2674 10.30717.4002 20.61446.4453 30.89941.0923 12.24398.0923 24.46572.0923 36.68746Z" fill="#fff"/><circle cx="511.79999" cy="511.7626" r="444.73746" fill="url(#d)"/><g><path d="m542.81445 108.81445-2.77929 31.77735c-.10051 1.19385-.05247 2.00043.10546 2.60742.33463 1.28608 1.67614 2.73537 3.65235 2.9082 1.40325.12272 3.28306-.43263 4.11719-2.38672.26992-.63227.45778-1.43046.54687-2.44922l2.77539-31.7207c.0891-1.01876.04083-1.83827-.11523-2.50781-.48228-2.06923-2.23542-2.94173-3.63867-3.06445-1.97621-.17282-3.55072 1.02004-4.10352 2.22851-.26532.58005-.45318 1.37972-.56055 2.60742zm69.49414 11.50196-8.23242 30.72656c-.31613 1.18342-.4102 1.99735-.35937 2.63086.10627 1.32464 1.17756 2.98474 3.09375 3.49805 1.36065.36447 3.30803.14484 4.46875-1.63477.37558-.5758.69828-1.33054.96289-2.31836l8.22851-30.71484c.26461-.98782.35972-1.80379.32227-2.49024-.1157-2.12155-1.69013-3.2859-3.05078-3.65039-1.91619-.5133-3.67353.38827-4.42774 1.48242-.362.52519-.68698 1.28028-1.00586 2.47071zm269.96485 428.08007 31.8125 2.7793c1.22069.10585 2.03914.05854 2.65429-.10156 1.28606-.33473 2.73356-1.67612 2.90625-3.65234.12263-1.40327-.43254-3.2832-2.38671-4.11719-.6323-.26986-1.43046-.45785-2.44922-.54688l-31.80274-2.77929c-1.01877-.08903-1.8383-.04282-2.50781.11328-2.0692.48242-2.94183 2.23736-3.06445 3.64062-.17269 1.97623 1.02 3.55083 2.22851 4.10352.58007.2653 1.38167.45327 2.60938.56054zm-407.12696 333.875-2.7832 31.80079c-.1065 1.223-.0606 2.04232.09961 2.6582.33454 1.28612 1.6781 2.7333 3.6543 2.90625 1.40325.12282 3.28294-.43267 4.11719-2.38672.26994-.63226.4577-1.43047.54687-2.44922l2.7832-31.79297c.08917-1.01877.04273-1.83828-.11328-2.50781-.48212-2.06928-2.23737-2.94163-3.64062-3.06445-1.9762-.17296-3.55064 1.02008-4.10352 2.22851-.26537.58004-.45309 1.37972-.56055 2.60742zm395.19336-270.0332c.00066.00018.0013-.00017.00196 0l30.77148 8.2461c1.19038.31901 2.00482.41422 2.64063.36328 1.32465-.10613 2.98455-1.17566 3.49804-3.0918.36463-1.3606.14473-3.30784-1.63476-4.46875-.57381-.37435-1.32379-.69868-2.30664-.96289l-30.78125-8.24805c-.98778-.26473-1.8038-.3616-2.49024-.32422-2.12156.11546-3.28576 1.69212-3.65039 3.05274-.51351 1.91613.38835 3.67342 1.48242 4.42773.52486.36186 1.2795.68704 2.46875 1.00586zM411.37767 870.18802c-.00133.00497-.00257.00869-.00391.01368l-8.29882 30.96093c-.31406 1.17771-.40801 1.98944-.35742 2.6211.10608 1.32467 1.17568 2.98448 3.09179 3.49804 1.3606.36468 3.30778.14275 4.46875-1.63671.37565-.57577.7001-1.32863.96485-2.31641l8.29296-30.93945c.26475-.9878.36157-1.80185.32422-2.48828-.11539-2.12157-1.69214-3.28768-3.05273-3.65235-1.91613-.51357-3.67338.38838-4.42774 1.48242-.36055.52291-.68419 1.27527-1.00195 2.45703Zm436.00905-197.23685 28.93359 13.49414c1.11689.52091 1.90407.75808 2.53907.81836 1.32297.12555 3.14393-.63965 3.98242-2.4375.59538-1.27658.71684-3.23323-.83399-4.68555-.49578-.4643-1.17398-.9104-2.08398-1.33789l-28.9668-13.50976c-.92682-.43226-1.71202-.66758-2.39453-.75-2.10937-.25476-3.5296 1.09447-4.125 2.37109-.83849 1.79782-.25502 3.68432.69141 4.61719.45428.44777 1.14092.89902 2.25781 1.41992zM350.61593 847.39844c-.0004.00086-.00155.00109-.00196.00195l-13.48242 28.91211c-.52086 1.11691-.75811 1.90406-.81836 2.53906-.1255 1.32297.64161 3.14398 2.43946 3.98242 1.27662.59534 3.23132.71495 4.68359-.83593.46076-.49204.90362-1.16293 1.32813-2.0625l13.50781-28.96485c.43223-.92683.66956-1.71203.75195-2.39453.25468-2.10938-1.09643-3.52964-2.37305-4.125-1.79786-.83843-3.68434-.25506-4.61718.69141-.44741.45394-.8976 1.14047-1.41797 2.25586ZM814.2793 728.76953c.00738.00519.0121.01042.01953.01563l26.16992 18.32812c.99853.69733 1.72927 1.06398 2.33984 1.23242 1.28106.35344 3.20575-.08606 4.34375-1.71093.80806-1.15379 1.26721-3.05822-.00781-4.75782-.41254-.54994-1.01003-1.11256-1.84765-1.69922l-26.1504-18.31445c-.83765-.58665-1.57068-.95653-2.22851-1.15625-2.03305-.61723-3.66656.46534-4.47461 1.61914-1.13802 1.62486-.89112 3.58489-.12109 4.66797.36688.51602.96101 1.07571 1.95703 1.77539zm-519.31446 85.29492-18.46679 26.36524c-.70697 1.00944-1.07646 1.74254-1.2461 2.35742-.35343 1.28105.08606 3.20769 1.71094 4.3457 1.15378.80806 3.05821 1.26721 4.75781-.00781.50306-.37737 1.01779-.91931 1.55078-1.64844l18.42774-26.3125c.58666-.83764.95654-1.57069 1.15625-2.22851.61723-2.03306-.46534-3.66653-1.61914-4.47461-1.62486-1.13801-3.5849-.89111-4.66797-.1211-.47185.33548-.98512.87587-1.60352 1.72461zm477.07227-36.05273 22.57031 22.57422c.87031.87018 1.52791 1.36116 2.10352 1.63476 1.20023.57047 3.17332.47291 4.57617-.92968.99612-.99596 1.7789-2.79233.81836-4.6875-.30653-.60478-.78928-1.25338-1.49609-1.96485l-22.59766-22.60156c-.72308-.72319-1.38098-1.21449-1.99414-1.52539-1.89499-.96087-3.69137-.17761-4.6875.81836-1.40285 1.40258-1.49996 3.3739-.92969 4.57422.27372.57614.76536 1.23591 1.63672 2.10742zm-526.38672-6.1211-22.66406 22.65626c-.8716.87125-1.36478 1.52941-1.63867 2.10546-.5706 1.20017-.47278 3.17319.92968 4.57618.99584.99624 2.79223 1.77869 4.6875.81836.56846-.28804 1.17816-.73801 1.83985-1.37696l22.65039-22.64258c.72327-.723 1.21445-1.38102 1.52539-1.99414.96107-1.8949.17945-3.69127-.81641-4.6875-1.40245-1.403-3.37579-1.49983-4.57617-.92968-.53675.25494-1.15208.71065-1.9375 1.4746zm476.19531 47.24219 18.31836 26.16602c.70678 1.00958 1.26929 1.60881 1.78906 1.97851 1.08294.77023 3.04288 1.01661 4.66797-.12109 1.15393-.80783 2.23796-2.44143 1.6211-4.47461-.1988-.65529-.56787-1.38508-1.15039-2.21875l-18.32422-26.17578c-.58649-.83776-1.14937-1.43501-1.69922-1.84766-1.69935-1.27532-3.60386-.81761-4.75781-.00976-1.62511 1.1377-2.06411 3.06459-1.71094 4.3457.16952.61492.53931 1.34784 1.24609 2.35742zm-56.56641 31.77929 13.52344 29.00783c.51763 1.10785.96456 1.79187 1.41016 2.24414.9327.94658 2.82115 1.52954 4.61914.69139 1.2767-.59515 2.62545-2.01559 2.37109-4.125-.08229-.68255-.31792-1.46763-.75-2.39453L672.9375 847.3418c-.43209-.9269-.88174-1.61337-1.35157-2.11523-1.45204-1.5511-3.40883-1.4311-4.68554-.83595-1.798.83814-2.56475 2.65945-2.43946 3.98243.06014.63502.29768 1.42207.81836 2.53905Zm214.57032-506.18749c.92672-.43244 1.61353-.88152 2.11523-1.35156 1.55054-1.45261 1.42767-3.40907.83204-4.68555-.83885-1.79768-2.65948-2.56328-3.98243-2.4375-.63499.0604-1.42033.29723-2.53711.81836l-28.9082 13.48828c-1.11677.52114-1.8036.97207-2.25781 1.41992-.94625.93306-1.52831 2.82146-.68945 4.61914.59564 1.27647 2.01569 2.6243 4.125 2.36914.6825-.08254 1.46782-.31756 2.39453-.75l28.9082-13.49023zM604.05469 872.46094l8.25586 30.82812c.31883 1.19043.64194 1.94552 1.0039 2.47071.75417 1.09418 2.5115 1.99562 4.42774 1.48242 1.36065-.36439 2.93692-1.52885 3.05273-3.65039.03688-.67564-.05731-1.47837-.3125-2.44532l-8.25586-30.82812c-.26455-.98782-.58735-1.74253-.96289-2.31836-1.16062-1.77968-3.10807-2.00113-4.46875-1.63672-1.9162.5132-2.98742 2.17341-3.09375 3.49805-.05038.62757.04451 1.43417.35352 2.59961zm299.25195-461.28516c.96959-.26307 1.71276-.58402 2.28125-.95508 1.77927-1.16125 1.99966-3.11017 1.63477-4.4707-.51387-1.91602-2.17337-2.98592-3.49805-3.0918-.63512-.05076-1.45052.04684-2.63867.36524l-30.80664 8.26172c-1.19033.31924-1.94565.6437-2.47071 1.00586-1.09395.75453-1.99433 2.51169-1.48047 4.42773.36488 1.36054 1.52884 2.93571 3.6504 3.05078.68647.03725 1.50247-.05931 2.49023-.32422l30.83789-8.26953zM540.04688 882.99219c.0006.00706.00133.01244.00195.01953l2.77929 31.77734c.10733 1.22769.29523 2.02736.56055 2.60742.55277 1.20849 2.12733 2.40327 4.10352 2.23047 1.40326-.12269 3.15636-.99524 3.63867-3.06445.15533-.66639.20262-1.48202.11523-2.49414l-2.77929-31.79297c-.0891-1.01877-.27699-1.81695-.54688-2.44922-.83411-1.95412-2.71392-2.50942-4.11719-2.38672-1.97622.17279-3.31964 1.62214-3.65429 2.90821-.15971.61373-.20652 1.42858-.10156 2.64453zm374.75585-402.27344c1.01487-.08957 1.81282-.27952 2.44336-.54883 1.95395-.8345 2.50775-2.71397 2.38477-4.11719-.1732-1.97618-1.62203-3.31797-2.9082-3.65234-.61732-.1605-1.43833-.20721-2.66602-.09961l-31.73242 2.78125c-1.22769.10762-2.02741.29512-2.60742.56055-1.20837.55302-2.40172 2.12733-2.22852 4.10351.12298 1.40323.99711 3.15682 3.06641 3.63868.66956.15593 1.48907.20451 2.50781.11523l31.74023-2.78125zM814.22461 294.79492l26.18359-18.34375-26.13672 18.3086c-.01741.0122-.0297.02303-.04687.03515z" fill="#fff"/><path d="M845.25586 283.37109c.83756-.58675 1.43518-1.14921 1.84766-1.69921 1.27479-1.69975.81601-3.60413.00781-4.75782-1.13819-1.62473-3.06469-2.06255-4.34571-1.70898-.61484.16972-1.34806.53901-2.35742 1.24609l-26.18359 18.34375c-.97807.69006-1.56654 1.24491-1.92969 1.75586-.76989 1.08315-1.01516 3.04324.12305 4.66797.80821 1.15369 2.44164 2.23467 4.47461 1.61719.6578-.19978 1.39093-.56755 2.22851-1.1543l26.13477-18.31055zM109.5625 472.29297c-1.01875-.08927-1.83826-.04266-2.50781.11328-2.06932.4819-2.94345 2.23545-3.06641 3.63867-.17318 1.97619 1.02013 3.55052 2.22852 4.10352.57528.26327 1.36925.45058 2.58008.55859l31.73046 2.78125c1.22768.10759 2.04869.0609 2.66602-.09961 1.28614-.33441 2.73503-1.67616 2.9082-3.65234.12297-1.40323-.43276-3.28272-2.38672-4.11719-.63222-.27002-1.43046-.45956-2.44922-.54883l-31.70312-2.77734zm12.83387-69.21485c-.97504-.25898-1.78106-.35342-2.46093-.3164-2.12155.11547-3.28577 1.69019-3.65039 3.05078-.5135 1.91615.38833 3.6734 1.48242 4.42773.52513.36205 1.27836.68685 2.46875 1.00586l30.78906 8.25196c1.19037.31901 2.00676.41422 2.64258.36328 1.32465-.10613 2.98454-1.17567 3.49804-3.0918.36463-1.3606.14473-3.30784-1.63476-4.46875-.57576-.37564-1.33055-.70012-2.31836-.96484Zm24.90832-65.91601c-.92611-.43164-1.71242-.66965-2.39453-.75195-2.10939-.25452-3.52974 1.09639-4.125 2.37304-.83832 1.79792-.25513 3.68441.6914 4.61719.45257.44599 1.13676.89581 2.2461 1.41406l28.87304 13.46289c1.11694.52078 1.90406.75621 2.53907.81641 1.32298.12541 3.14412-.63958 3.98242-2.4375.59526-1.27665.71504-3.23339-.83594-4.68555-.5018-.46987-1.18838-.9194-2.11523-1.35156l-28.86133-13.45703zm539.11523-189.90625c.42495-.91637.65867-1.69647.74024-2.37305.2544-2.10942-1.09636-3.52983-2.37305-4.125-1.79798-.83818-3.68448-.25322-4.61719.69336-.44284.44945-.8907 1.12885-1.4043 2.22461l-13.4414 28.83594c-.52072 1.117-.75822 1.90404-.81836 2.53906-.12533 1.32298.64148 3.14423 2.43945 3.98242 1.2767.59517 3.23154.71513 4.6836-.83593.46985-.50186.92141-1.18837 1.35351-2.11524l13.4375-28.82617zM183.16211 276.5293c-.83774-.58651-1.57067-.95666-2.22852-1.15625-2.03318-.61688-3.66674.46716-4.47461 1.62109-1.13772 1.62507-.88935 3.58503-.11914 4.66797.36969.51978.96701 1.08225 1.97657 1.78906l26.07226 18.25391c1.00956.7068 1.74447 1.07656 2.35938 1.24609 1.28112.35319 3.20603-.08586 4.34375-1.71094.80786-1.15394 1.26748-3.05843-.00782-4.75781-.41264-.54988-1.00991-1.11272-1.84765-1.69922l-26.07422-18.2539zm563.89453-93.39453c.58648-.83777.95668-1.57065 1.15625-2.22852.61681-2.03319-.46713-3.66679-1.62109-4.47461-1.62511-1.13766-3.58505-.89135-4.66797-.12109-.51894.36909-1.07999.96795-1.78516 1.97461l-18.27148 26.09961c-.70678 1.00959-1.07659 1.74251-1.2461 2.35742-.35317 1.28113.08584 3.20805 1.71094 4.3457 1.15396.80783 3.05847 1.26559 4.75781-.00977.54985-.41264 1.11273-1.00989 1.69922-1.84765l18.26758-26.0957zm-518.04883 39.90039c-.72318-.72305-1.38092-1.21265-1.99414-1.52344-1.89517-.96053-3.69154-.17777-4.6875.81836-1.40259 1.40284-1.50017 3.37595-.92969 4.57617.27361.57561.7646 1.23322 1.63477 2.10352l22.49609 22.49218c.8715.87134 1.52934 1.36105 2.10547 1.63477 1.20033.57028 3.17356.47316 4.57617-.92969.99595-.99613 1.77727-2.7925.81641-4.6875-.31088-.61316-.80025-1.27108-1.52344-1.99414l-22.49414-22.49023zm571.53516 5.92382c.72302-.72322 1.21465-1.38088 1.52539-1.99414.96039-1.89522.17783-3.69161-.81836-4.6875-1.40294-1.4025-3.37598-1.50024-4.57617-.92968-.5709.27141-1.22617.75819-2.08594 1.61523l-22.54101 22.54883c-.87131.87159-1.36109 1.53124-1.63477 2.10742-.57019 1.20034-.47326 3.17172.92969 4.57422.9962.99588 2.79257 1.77935 4.6875.81836.61314-.31093 1.27112-.80216 1.99414-1.52539l22.51953-22.52735zm-517.10352-50.6621c-.58297-.83009-1.14269-1.42382-1.68945-1.83399-1.69958-1.27503-3.60403-.81587-4.75781-.00781-1.6249 1.13798-2.06434 3.06465-1.71094 4.3457.16963.61489.53913 1.34795 1.24609 2.35742l18.27539 26.09571c.70697 1.00945 1.27115 1.60695 1.79102 1.97656 1.08305.77005 3.04308 1.01688 4.66797-.12109 1.15379-.80805 2.23635-2.44155 1.61914-4.47461-.19969-.65783-.56961-1.39088-1.15625-2.22852l-18.28516-26.10937zm61.38477-34.57618c-.43227-.92679-.88161-1.6115-1.35156-2.11328-1.45235-1.55079-3.40896-1.43135-4.68555-.83594-1.79782.83852-2.56307 2.65947-2.4375 3.98243.06028.635.29744 1.42219.81836 2.53906l13.45703 28.85351c.52094 1.11689.97214 1.8055 1.41992 2.25977.93288.94641 2.81938 1.52799 4.61719.68945 1.27658-.59542 2.62588-2.01565 2.37109-4.125-.08242-.68252-.31773-1.46774-.75-2.39453l-13.45898-28.85547zM143.36769 678.84766c-.94087.46047-1.56085.87165-1.97266 1.27734-.94668.93264-1.52943 2.81914-.6914 4.61719.59507 1.27674 2.0136 2.62724 4.12304 2.37304.68253-.08225 1.46958-.318 2.39649-.75l29.11523-13.57031c.78614-.39047 1.39409-.79589 1.84375-1.2168 1.55121-1.45193 1.43101-3.40684.83594-4.68359-.83802-1.79808-2.65748-2.56468-3.98047-2.43945-.63502.0601-1.42202.29581-2.53906.8164Zm267.90575-558.53907c-.26445-.98469-.58802-1.73599-.96289-2.31054-1.161-1.77943-3.10816-1.99947-4.46875-1.63477-1.91611.51359-2.98768 2.17338-3.09375 3.49805-.05089.63582.04616 1.45026.36523 2.64062l8.23828 30.73828c.31907 1.19036.64572 1.9456 1.00782 2.47071.75436 1.09404 2.51162 1.99603 4.42773 1.48242 1.36058-.36469 2.93542-1.52885 3.05078-3.65039.03735-.68646-.05945-1.50246-.32422-2.49024l-8.24023-30.74414zM119.83203 612.38672c-.91337.27449-1.54903.5558-1.99805.86523-1.09424.75407-1.99743 2.51149-1.48437 4.42774.36431 1.36068 1.52886 2.93677 3.65039 3.05273.68644.03752 1.50237-.05777 2.49023-.32226l31.12891-8.33399c.7851-.24045 1.41503-.52148 1.90625-.84179 1.77976-1.16049 2.00104-3.10807 1.63672-4.46876-.51307-1.91625-2.17146-2.98731-3.49609-3.09374-.63581-.05109-1.45212.04453-2.64258.36328l-31.19141 8.35156zM480.75 108.77539c-.09045-1.00306-.27782-1.79255-.54492-2.41797-.83451-1.95394-2.71396-2.5097-4.11719-2.38672-1.97618.17322-3.31795 1.62207-3.65234 2.90821-.1605.61732-.2072 1.43833-.09961 2.66601l2.7832 31.75196c.1076 1.22768.29509 2.02741.56055 2.60742.55302 1.20836 2.12733 2.40171 4.10351 2.22851 1.40323-.12299 3.1568-.99709 3.63868-3.0664.15593-.66955.20257-1.48907.11328-2.50782l-2.78516-31.7832zM140.53711 539.95555c-.00706.0006-.01244.00133-.01953.00195l-31.72461 2.77148c-1.21807.10748-2.01442.29457-2.5918.5586-1.20855.55265-2.40305 2.12728-2.23047 4.10351.12254 1.40326.99723 3.15811 3.06641 3.64063.66951.15614 1.4871.20224 2.50586.11328l31.70898-2.76953c1.01878-.08897 1.81889-.27707 2.45117-.54688 1.95424-.83389 2.50925-2.71196 2.38672-4.11523-.1726-1.97623-1.62022-3.31952-2.90625-3.6543-.61372-.15978-1.43051-.20834-2.64648-.10351Zm63.78106 181.90578-26.11328 18.27929c-.99157.69695-1.58315 1.2549-1.94922 1.76954-.77026 1.0829-1.01653 3.04283.1211 4.66796.8078 1.15399 2.43946 2.23788 4.47265 1.6211.65789-.19956 1.39271-.5698 2.23047-1.15625l26.08594-18.25977c.83779-.58647 1.43502-1.14939 1.84766-1.69922 1.27541-1.69932.81562-3.60384.00781-4.75781-1.13763-1.62514-3.06262-2.06408-4.34375-1.71094-.61493.16949-1.34977.53933-2.35938 1.2461Z" fill="#fff"/></g><g><path d="M107.64862 507.55809c-1.02265 0-1.83489.11823-2.48828.33203-2.01935.66071-2.73633 2.48436-2.73633 3.89297 0 1.98375 1.32609 3.44757 2.57813 3.89298.60096.21378 1.41409.33202 2.64648.33202h65.98369c1.23239 0 2.04553-.11823 2.64649-.33202 1.25204-.4454 2.57812-1.90923 2.57812-3.89298 0-1.40861-.71698-3.23226-2.73632-3.89297-.65338-.2138-1.46564-.33203-2.48829-.33203Zm808.32608 0c1.02265 0 1.83489.11823 2.48828.33202 2.01935.66071 2.73633 2.48437 2.73633 3.89298 0 1.98375-1.32609 3.44757-2.57813 3.89298-.60096.21378-1.41409.33202-2.64648.33202h-65.98408c-1.23239 0-2.04553-.11823-2.64649-.33202-1.25204-.4454-2.57812-1.90923-2.57812-3.89298 0-1.40862.71698-3.23227 2.73633-3.89298.65338-.21379 1.46563-.33202 2.48828-.33202ZM516.03686 915.97178c0 1.02264-.11823 1.83489-.33202 2.48828-.66071 2.01935-2.48437 2.73632-3.89298 2.73632-1.98375 0-3.44757-1.32609-3.89298-2.57813-.21378-.60096-.33202-1.41409-.33202-2.64647V849.9877c0-1.2324.11823-2.04554.33202-2.6465.4454-1.25204 1.90923-2.57811 3.89298-2.57811 1.40862 0 3.23227.71697 3.89298 2.73633.21379.65337.33202 1.46562.33202 2.48828Zm394.53581-338.16694c1.00712.17758 1.78649.43506 2.39282.75906 1.87394 1.00133 2.26336 2.92179 2.01875 4.309-.34447 1.95361-1.90461 3.16492-3.21496 3.38615-.62895.10617-1.45027.08142-2.66393-.13259l-64.98164-11.45801c-1.21367-.21399-1.99392-.47163-2.54863-.78653-1.15567-.65605-2.20742-2.32791-1.86294-4.28152.24461-1.38723 1.26736-3.05867 3.37077-3.35869.68057-.09707 1.50102-.07246 2.50813.10512ZM445.76266 910.56072c-.17765 1.00709-.43519 1.78646-.75923 2.39277-1.00146 1.87387-2.92194 2.26314-4.30914 2.01844-1.95359-.34461-3.16478-1.90483-3.38592-3.21521-.10613-.62896-.08132-1.45026.13276-2.6639l11.46255-64.98084c.21409-1.21366.47178-1.9939.78672-2.54858.65613-1.15563 2.32806-2.20725 4.28165-1.86264 1.3872.2447 3.05858 1.26757 3.35844 3.37101.09704.68057.07237 1.50101-.10528 2.50812ZM893.0498 646.05894c.96097.34979 1.68377.73872 2.22462 1.16311 1.67156 1.31158 1.72149 3.27048 1.23968 4.59412-.67854 1.8641-2.42535 2.78603-3.75423 2.77631-.63783-.00468-1.44235-.1717-2.60041-.59324l-62.00397-22.57005c-1.15805-.42154-1.8817-.81078-2.37328-1.21724-1.02417-.8468-1.76955-2.67591-1.09101-4.54001.48183-1.32366 1.77934-2.79206 3.90288-2.72218.6871.02259 1.49079.18932 2.45176.53912ZM377.51023 893.0281c-.34987.96093-.73885 1.68371-1.16328 2.22453-1.31169 1.67146-3.2706 1.72126-4.59421 1.23935-1.86404-.67868-2.78585-2.42555-2.77604-3.75442.00472-.63784.17181-1.44235.59343-2.60037l22.57437-62.00239c.42163-1.15803.81092-1.88165 1.2174-2.37321.84687-1.02411 2.67604-1.76935 4.54009-1.09068 1.32362.48192 2.79193 1.77953 2.72191 3.90308-.02264.68708-.18943 1.49077-.5393 2.45172Zm486.42884-182.79694c.88559.51139 1.52987 1.01995 1.98879 1.53182 1.41835 1.58196 1.1273 3.51977.42291 4.73961-.99199 1.71791-2.87237 2.32245-4.17936 2.08206-.62733-.11538-1.39062-.4196-2.45786-1.03587l-57.14158-32.99603c-1.06724-.61627-1.71229-1.12527-2.12581-1.61092-.86153-1.01181-1.2779-2.9426-.2859-4.6605.70439-1.21986 2.23723-2.44059 4.31636-2.00297.67273.1416 1.43525.44538 2.32085.95677ZM313.36516 863.92044c-.51139.88559-1.01995 1.52987-1.53182 1.98879-1.58196 1.41835-3.51977 1.12729-4.7396.42291-1.71792-.992-2.32245-2.87238-2.08207-4.17937.11539-.62733.4196-1.39062 1.03586-2.45785l32.99604-57.14158c.61627-1.06725 1.12528-1.7123 1.61093-2.12582 1.01181-.86152 2.94259-1.27789 4.66049-.28589 1.21986.7044 2.44059 2.23722 2.00297 4.31636-.14159.67273-.44538 1.43525-.95677 2.32085Zm510.76476-95.55509c.78334.65741 1.3295 1.27013 1.69256 1.85392 1.12205 1.80425.4989 3.66206-.40663 4.74104-1.27526 1.51953-3.23205 1.78832-4.47743 1.32462-.59776-.22258-1.29662-.65473-2.24062-1.44698l-50.54303-42.41816c-.944-.79225-1.49085-1.40554-1.81374-1.95563-.67272-1.14605-.74746-3.11981.52781-4.63933.90553-1.07899 2.62707-2.01497 4.59861-1.22292.63792.25627 1.3361.68786 2.11944 1.34528Zm-568.89828 55.7383c-.65741.78333-1.27013 1.3295-1.85393 1.69256-1.80424 1.12205-3.66205.4989-4.74103-.40664-1.51953-1.27526-1.78832-3.23205-1.32462-4.47743.22258-.59776.65473-1.29662 1.44698-2.24061l42.41816-50.54303c.79225-.94401 1.40554-1.49086 1.95563-1.81375 1.14605-.67272 3.1198-.74745 4.63933.52782 1.07899.90553 2.01497 2.62707 1.22291 4.59861-.25626.63791-.68785 1.33609-1.34527 2.11944Zm519.60275-5.40613c.65728.78345 1.08875 1.4817 1.34491 2.11966.79171 1.97168-.14458 3.69307-1.22372 4.59841-1.51975 1.275-3.49349 1.19991-4.63942.52699-.55003-.32299-1.16323-.86993-1.95531-1.81407l-42.40935-50.55044c-.79208-.94414-1.22412-1.64307-1.44659-2.24087-.46349-1.24546-.19435-3.2022 1.32541-4.4772 1.07914-.90535 2.93706-1.52816 4.7411-.4058.58373.36316 1.19636.90943 1.85363 1.69289Zm-57.3035 41.01693c.51121.8857.81484 1.64827.95631 2.32104.43723 2.07921-.78381 3.61181-2.00378 4.31598-1.7181.99166-3.6488.5749-4.66045-.28681-.48557-.41362-.99446-1.05876-1.61052-2.12611l-32.98506-57.14792c-.61606-1.06735-.92015-1.83071-1.03541-2.45807-.24012-1.30702.36477-3.18728 2.08288-4.17895 1.21998-.70415 3.15783-.99482 4.73953.42382.51178.45902 1.02022 1.10339 1.53143 1.98909ZM163.86116 717.46088c-.88575.51112-1.64836.81468-2.32114.95608-2.07927.43701-3.61173-.78419-4.31576-2.00424-.99149-1.7182-.57453-3.64886.2873-4.66042.41366-.48553 1.05885-.99434 2.12626-1.6103l57.15137-32.97907c1.06744-.61595 1.83082-.91996 2.45819-1.03514 1.30705-.24 3.18724.3651 4.17872 2.08331.70404 1.22006.99451 3.15794-.42431 4.73948-.45906.51173-1.10349 1.0201-1.98926 1.53123Zm490.15299 172.67989c.34971.96099.51637 1.7647.53891 2.4518.06969 2.12354-1.39884 3.42095-2.72252 3.90264-1.86416.67839-3.6932-.06717-4.53993-1.0914-.4064-.49162-.79557-1.2153-1.21702-2.37339l-22.56464-62.00593c-.42144-1.15809-.5884-1.96264-.59302-2.60048-.00961-1.32887.91249-3.07559 2.77663-3.75398 1.3237-.4817 3.28259-.43158 4.59403 1.24008.42433.54088.8132 1.26373 1.16292 2.22472ZM133.43653 653.92776c-.96104.34958-1.76477.51612-2.45187.53857-2.12356.06939-3.42075-1.39933-3.90226-2.72308-.67812-1.86425.06769-3.69319 1.09205-4.53976.49167-.40634 1.2154-.79542 2.37353-1.21669l62.00909-22.55598c1.15816-.42129 1.96273-.58815 2.60057-.59266 1.32887-.00943 3.07545.91291 3.75358 2.77715.48152 1.32376.43113 3.28265-1.24072 4.59385-.54093.42426-1.26383.81303-2.22489 1.16261Zm452.71688 255.15855c.17752 1.00712.20209 1.82755.10498 2.50813-.30013 2.10338-1.97164 3.12606-3.35886 3.37059-1.95362.34438-3.62543-.70746-4.28142-1.86317-.31486-.55473-.57247-1.33499-.7864-2.54866l-11.45462-64.98224c-.21393-1.21368-.23866-2.035-.13244-2.66395.22129-1.31035 1.43269-2.87041 3.38632-3.21478 1.38724-.24454 3.30766.14499 4.30889 2.01897.32397.60635.5814 1.38574.75894 2.39287Zm-471.6561-323.0495c-1.00715.17731-1.82759.20171-2.50815.10445-2.10333-.30057-3.12565-1.9723-3.36989-3.35957-.34396-1.9537.70823-3.62527 1.86408-4.28103.55478-.31475 1.3351-.57218 2.54882-.78587l64.98462-11.441c1.21374-.21368 2.03507-.23824 2.66399-.13188 1.3103.22156 2.8701 1.43329 3.21407 3.38699.24423 1.38728-.14567 3.30762-2.01989 4.30847-.6064.32383-1.38585.58112-2.39302.75843ZM516.03686 107.6457c0-1.02265-.11823-1.83489-.33203-2.48828-.66071-2.01935-2.48436-2.73633-3.89297-2.73633-1.98375 0-3.44757 1.32609-3.89298 2.57813-.21378.60096-.33202 1.41409-.33202 2.64648v65.98368c0 1.2324.11823 2.04553.33202 2.64649.4454 1.25204 1.90923 2.57812 3.89298 2.57812 1.40861 0 3.23226-.71698 3.89297-2.73632.2138-.65338.33203-1.46564.33203-2.48829ZM114.52948 437.42663c-1.00711-.17763-1.82753-.20226-2.50813-.10519-2.10341.29994-3.12623 1.97134-3.37088 3.35854-.34454 1.95361.70714 3.6255 1.8628 4.2816.5547.31491 1.33493.57257 2.54859.78662l64.98085 11.46021c1.21366.21405 2.03497.23884 2.66394.13268 1.31036-.22118 2.87053-1.43244 3.21507-3.38604.24465-1.3872-.14469-3.30766-2.01859-4.30905-.60631-.32403-1.38569-.58155-2.39281-.75916Zm471.62536-322.90709c.17758-1.00711.2022-1.82755.10511-2.50813-.30002-2.10341-1.97146-3.12616-3.35868-3.37077-1.95361-.34447-3.62546.70728-4.28152 1.86295-.31489.55472-.57253 1.33495-.78653 2.54863l-11.45794 64.98124c-.21401 1.21367-.23878 2.03498-.13259 2.66393.22122 1.31036 1.43254 2.87049 3.38615 3.21496 1.38722.2446 3.30766-.14481 4.30899-2.01874.32401-.60632.58149-1.38572.75907-2.39283ZM133.47148 369.59503c-.96099-.34973-1.76469-.51641-2.45181-.53895-2.12354-.06972-3.42095 1.39878-3.90268 2.72245-.67842 1.86414.06711 3.6932 1.09133 4.53994.49161.40641 1.21528.7956 2.37336 1.21706l62.00518 22.56559c1.15808.42146 1.96262.58845 2.60046.59307 1.32887.00963 3.0756-.91243 3.75402-2.77657.48173-1.32368.43165-3.28257-1.23999-4.59403-.54086-.42436-1.26371-.81324-2.2247-1.16297ZM654.01395 133.4641c.34977-.96097.51647-1.76467.53903-2.45177.0698-2.12355-1.39865-3.42102-2.72231-3.90279-1.86412-.67848-3.69321.06698-4.53998 1.09117-.40643.4916-.79564 1.21525-1.21714 2.37333l-22.56775 62.00437c-.42151 1.15807-.58851 1.9626-.59316 2.60044-.00968 1.32887.91233 3.07564 2.77644 3.75412 1.32366.48177 3.28255.43176 4.59407-1.23982.42438-.54086.81328-1.2637 1.16305-2.22467ZM163.90763 306.06783c-.88567-.51126-1.64824-.81494-2.32099-.95643-2.0792-.43734-3.61186.78361-4.31608 2.00355-.99176 1.71804-.5751 3.64876.28656 4.66046.41359.48559 1.0587.9945 2.12602 1.61063l57.14585 32.98785c1.06733.61613 1.83066.92026 2.45801 1.03554 1.30703.2402 3.18731-.3646 4.17907-2.08265.70422-1.21995.99499-3.15778-.42357-4.73954-.45898-.51182-1.10334-1.0203-1.98901-1.53155Zm553.64515-142.16446c.51133-.88564.81506-1.64818.9566-2.32093.43748-2.07917-.78336-3.61192-2.00326-4.31622-1.71797-.99187-3.64872-.57536-4.66048.28624-.48561.41355-.99458 1.05862-1.61077 2.12591l-32.99184 57.14354c-.61621 1.06729-.92038 1.8306-1.03571 2.45794-.2403 1.307.36438 3.18733 2.08235 4.1792 1.2199.70431 3.15772.99521 4.73958-.42323.51184-.45895 1.02036-1.10327 1.53169-1.98891Zm-512.63713 84.87951c-.78344-.65727-1.48169-1.08874-2.11967-1.3449-1.97167-.7917-3.69305.14458-4.5984 1.22372-1.27499 1.51975-1.1999 3.49349-.52699 4.63943.323.55002.86994 1.16323 1.81407 1.95531l50.55014 42.40909c.94414.79207 1.64308 1.22412 2.24088 1.44659 1.24546.46349 3.2022.19435 4.4772-1.3254.90534-1.07914 1.52816-2.93706.4058-4.7411-.36314-.58373-.90943-1.19637-1.69289-1.85365Zm569.91987-43.87514c.65734-.78339 1.08885-1.48161 1.34505-2.11958.79184-1.97161-.14432-3.69305-1.22339-4.59848-1.51966-1.2751-3.49341-1.20014-4.6394-.52731-.55004.32295-1.16327.86986-1.95543 1.81393l-42.4126 50.54717c-.79216.9441-1.22425 1.64299-1.44676 2.24079-.46358 1.24541-.19457 3.20218 1.32509 4.47729 1.07908.90541 2.93695 1.52836 4.74107.40612.58376-.3631 1.19643-.90935 1.85377-1.69275Zm-519.57269-5.43344c-.65738-.78336-1.27008-1.32955-1.85387-1.69262-1.8042-1.12211-3.66203-.49904-4.74104.40646-1.51958 1.27521-1.78844 3.23199-1.32477 4.47738.22255.59777.65468 1.29665 1.4469 2.24068l42.41613 50.54421c.79222.94403 1.40549 1.4909 1.95558 1.81381 1.14602.67276 3.11978.74756 4.63935-.52765 1.07901-.90549 2.01505-2.627 1.22307-4.59856-.25624-.63793-.68781-1.33614-1.3452-2.11949Zm58.12908-39.80552c-.51137-.88561-1.01991-1.5299-1.53179-1.98882-1.58194-1.41837-3.51974-1.12737-4.7396-.423-1.71793.99196-2.32248 2.87234-2.08213 4.17933.11537.62733.41958 1.39062 1.03582 2.45787l32.99484 57.14182c.61626 1.06725 1.12525 1.71231 1.6109 2.12584 1.01179.86154 2.94257 1.27795 4.66049.28598 1.21986-.70437 2.44062-2.23718 2.00302-4.31631-.14156-.67274-.44534-1.43528-.95671-2.32089Zm550.53646 153.68957c.88561-.51138 1.52989-1.01992 1.98882-1.5318 1.41837-1.58193 1.12736-3.51973.423-4.73959-.99197-1.71793-2.87234-2.32248-4.17933-2.08214-.62734.11538-1.39063.41958-2.45787 1.03583l-57.14182 32.99483c-1.06725.61627-1.71231 1.12525-2.12584 1.6109-.86154 1.0118-1.27794 2.94257-.28598 4.6605.70438 1.21985 2.23718 2.44061 4.31631 2.00302.67274-.14157 1.43528-.44535 2.32089-.95672ZM377.55019 130.5623c-.34981-.96096-.73876-1.68375-1.16316-2.2246-1.31161-1.67152-3.2705-1.72144-4.59414-1.23959-1.86408.67858-2.78598 2.42539-2.77624 3.75427.00469.63783.17173 1.44236.59329 2.6004l22.571 62.00321c.42156 1.15804.81081 1.88169 1.21727 2.37326.84682 1.02416 2.67596 1.76951 4.54003 1.09093 1.32364-.48184 2.79202-1.77938 2.72212-3.90291-.0226-.6871-.18935-1.49081-.53917-2.45177Zm515.47998 246.94102c.96094-.34985 1.68373-.73881 2.22455-1.16324 1.67148-1.31167 1.72133-3.27057 1.23944-4.59418-.67865-1.86405-2.4255-2.7859-3.75438-2.77611-.63783.00471-1.44235.17177-2.60037.59339l-62.00242 22.57315c-1.15803.42161-1.88165.81088-2.37321 1.21736-1.02414.84685-1.76942 2.67601-1.09077 4.54006.48188 1.32363 1.77948 2.79196 3.903 2.72198.68711-.02262 1.4908-.1894 2.45175-.53925ZM445.77506 113.04238c-.17767-1.0071-.43522-1.78644-.75927-2.39276-1.0015-1.87385-2.92198-2.2631-4.30917-2.01838-1.95359.34466-3.16475 1.9049-3.38587 3.21528-.10613.62895-.08129 1.45026.13281 2.66391l11.46362 64.98025c.21411 1.21366.47181 1.99388.78676 2.54857.65615 1.15561 2.3281 2.20721 4.28168 1.86257 1.38719-.24473 3.05855-1.26764 3.35838-3.37106.09703-.68058.07235-1.50103-.10532-2.50813Zm464.78403 332.7132c1.00711-.17763 1.78647-.43515 2.39279-.75919 1.87389-1.00142 2.2632-2.9219 2.01853-4.30909-.34458-1.9536-1.90477-3.16483-3.21516-3.38598-.62895-.10615-1.45026-.08135-2.66392.13272l-64.98064 11.46134c-1.21366.21407-1.99389.47175-2.54858.78668-1.15565.6561-2.20729 2.32801-1.86272 4.28162.24467 1.38719 1.26753 3.05858 3.37093 3.35849.68058.09705 1.50104.0724 2.50814-.10523Z" fill="#fff"/></g><path d="M478.64648 470.60742 374.29883 581.72266l-74.70703 79.55273-71.75196 76.45508-23.01367 24.48633-7.67969 8.10351c-1.12992 1.20297-2.85684 3.74798-.96289 6.33008.75299 1.0266 2.02516 1.59279 3.09766 1.53711 1.41302-.07338 2.78799-.83267 3.45508-1.26953L419.08008 635.25l126.5-82.83594Z" fill="#fff"/><path d="M824.24219 245.23242c-1.43512.07453-2.78929.87467-3.4668 1.31836L597.25781 392.92969l-118.61133 77.67773-.85787.91351 67.79147 80.89313 97.87695-104.20508 183.05859-194.90039c1.1476-1.22176 2.79658-3.89318.87305-6.51562-.76477-1.04264-2.05723-1.61711-3.14648-1.56055Z" fill="#ff3b30"/></svg>