<?xml version="1.0" encoding="utf-8"?>
<!DOCTYPE svg PUBLIC "-//W3C//DTD SVG 20010904//EN" "http://www.w3.org/TR/2001/REC-SVG-20010904/DTD/svg10.dtd">
<svg version="1.0" width="180.868pt" height="180.808pt" viewBox="0 0 180.868 180.808" preserveAspectRatio="xMidYMid meet" xmlns="http://www.w3.org/2000/svg">
  <g transform="translate(-5.636,186.531)scale(.075,.075)">
    <path id="path1" d="M 1352 -2480 c -49 20 -48 101 3 120 26 10 68 0 79 -19 5 -7 124 -10 349 -8 l 343 2 -66 46 c -91 64 -223 207 -301 325 -94 141 -160 265 -314 586 -75 156 -168 342 -207 413 -220 403 -410 608 -681 735 -128 60 -333 103 -390 81 -57 -22 -108 28 -87 84 14 37 49 46 106 29 73 -22 1417 -21 1461 1 59 29 116 -20 93 -80 -16 -43 -91 -53 -115 -16 -7 13 -531 15 -849 4 l -197 -6 68 -36 c 218 -115 422 -325 599 -618 36 -59 166 -311 289 -558 279 -562 373 -709 528 -831 121 -95 274 -155 337 -131 57 22 110 -46 76 -98 -22 -33 -59 -42 -91 -21 -21 14 -79 16 -488 16 -256 0 -467 -4 -473 -9 -16 -15 -48 -20 -72 -11 z " />
  </g>
</svg>