<?xml version="1.0" encoding="utf-8"?>
<!DOCTYPE svg PUBLIC "-//W3C//DTD SVG 20010904//EN" "http://www.w3.org/TR/2001/REC-SVG-20010904/DTD/svg10.dtd">
<svg version="1.0" width="331.5pt" height="320.25pt" viewBox="0 0 331.5 320.25" preserveAspectRatio="xMidYMid meet" xmlns="http://www.w3.org/2000/svg">
  <g transform="translate(0,320.25)scale(.075,.075)">
    <path id="path1" d="M 0 -4020 l 0 249 1318 4 1317 3 105 26 c 58 14 134 36 170 48 410 142 754 474 911 878 37 95 76 248 89 348 6 47 10 531 10 1270 l 0 1194 250 0 250 0 0 -1172 c 0 -712 -4 -1214 -11 -1278 -45 -475 -243 -896 -578 -1231 -336 -336 -759 -534 -1236 -579 -69 -6 -575 -10 -1353 -10 l -1242 0 0 250 z M 0 -2830 l 0 250 1088 0 c 1184 0 1140 -2 1254 56 71 36 169 132 207 203 64 120 61 68 61 1248 l 0 1073 250 0 251 0 -4 -1112 c -3 -990 -5 -1120 -20 -1178 -100 -398 -369 -667 -767 -767 -58 -15 -189 -17 -1192 -20 l -1128 -4 0 251 z " />
  </g>
</svg>