<?xml version="1.0" encoding="utf-8"?>
<!DOCTYPE svg PUBLIC "-//W3C//DTD SVG 20010904//EN" "http://www.w3.org/TR/2001/REC-SVG-20010904/DTD/svg10.dtd">
<svg version="1.0" width="371.25pt" height="318.963pt" viewBox="0 0 371.25 318.963" preserveAspectRatio="xMidYMid meet" xmlns="http://www.w3.org/2000/svg">
  <g transform="translate(-7.125,354.588)scale(.075,.075)">
    <path id="path1" d="M 1536 -4715 c -83 30 -192 127 -415 369 -69 74 -105 96 -159 96 l -42 0 0 -45 c 0 -55 -15 -90 -47 -104 -14 -6 -84 -11 -169 -11 l -146 0 -29 29 c -24 25 -29 38 -29 79 l 0 49 -79 6 c -137 9 -241 72 -299 182 l -27 50 0 950 0 950 26 56 c 37 79 90 133 167 171 l 67 33 552 3 552 3 3 577 3 577 24 49 c 31 63 84 116 147 147 l 49 24 1570 0 1570 0 49 -24 c 63 -31 116 -84 147 -147 l 24 -49 0 -1030 0 -1030 -24 -49 c -31 -63 -84 -116 -147 -147 l -49 -24 -447 -3 -447 -3 -3 -522 -3 -522 -25 -50 c -31 -63 -89 -121 -149 -149 -43 -20 -65 -21 -386 -26 -298 -4 -344 -7 -367 -22 -14 -9 -83 -80 -154 -157 -139 -153 -234 -240 -298 -274 -40 -22 -48 -22 -506 -24 -379 -2 -472 0 -504 12 z m 579 766 c 341 47 614 278 713 601 29 94 45 221 37 300 l -7 68 -142 0 -142 0 4 -85 c 5 -101 -10 -188 -47 -270 -75 -162 -219 -281 -388 -321 -90 -21 -236 -15 -317 15 -167 59 -298 190 -357 357 -41 115 -36 290 12 401 19 45 19 48 3 87 -13 30 -19 83 -23 195 l -6 155 -49 -49 c -182 -183 -276 -444 -247 -689 42 -354 273 -635 607 -735 122 -38 231 -47 349 -30 z m 916 34 c 39 21 69 71 69 115 0 129 -173 177 -240 67 -68 -111 55 -242 171 -182 z m 1790 1164 l 29 29 0 997 0 997 -29 29 -29 29 -1537 0 -1537 0 -29 -29 -29 -29 0 -997 0 -997 29 -29 29 -29 1537 0 1537 0 29 29 z " />
  </g>
</svg>