<?xml version="1.0" encoding="utf-8"?>
<!DOCTYPE svg PUBLIC "-//W3C//DTD SVG 20010904//EN" "http://www.w3.org/TR/2001/REC-SVG-20010904/DTD/svg10.dtd">
<svg version="1.0" width="94.578pt" height="84.75pt" viewBox="0 0 94.578 84.75" preserveAspectRatio="xMidYMid meet" xmlns="http://www.w3.org/2000/svg">
  <g transform="translate(-20.25,109.5)scale(.075,.075)">
    <path id="path1" d="M 270 -900 l 0 560 395 0 395 0 0 -560 0 -560 -395 0 -395 0 0 560 z m 690 5 l 0 455 -290 0 -290 0 0 -455 0 -455 290 0 290 0 0 455 z M 583 -1021 c -26 12 -52 35 -70 62 -27 41 -28 48 -28 159 0 110 2 119 27 157 53 80 175 108 268 61 64 -33 72 -52 35 -83 -37 -30 -40 -30 -72 -5 -15 11 -41 20 -60 20 -73 0 -115 -85 -98 -197 13 -89 95 -132 158 -83 32 25 35 25 72 -5 37 -31 29 -50 -35 -83 -56 -28 -138 -29 -197 -3 z M 1187 -434 c -4 4 -7 29 -7 56 l 0 48 176 0 175 0 -3 -52 -3 -53 -166 -3 c -91 -1 -168 1 -172 4 z " />
  </g>
</svg>