<?xml version="1.0" encoding="utf-8"?>
<!DOCTYPE svg PUBLIC "-//W3C//DTD SVG 20010904//EN" "http://www.w3.org/TR/2001/REC-SVG-20010904/DTD/svg10.dtd">
<svg version="1.0" width="271.518pt" height="306.777pt" viewBox="0 0 271.518 306.777" preserveAspectRatio="xMidYMid meet" xmlns="http://www.w3.org/2000/svg">
  <g transform="translate(.018,306.75)scale(.075,.075)">
    <path id="path1" d="M 5 -4052 c 3 20 78 852 166 1847 88 995 162 1810 162 1811 1 0 322 89 712 197 519 144 725 197 765 197 41 1 233 -49 768 -197 664 -183 713 -198 717 -220 5 -22 325 -3628 325 -3658 0 -13 -208 -15 -1810 -15 l -1810 0 5 38 z m 2942 764 c -2 29 -49 548 -102 1153 -54 605 -101 1104 -105 1108 -9 10 -897 257 -925 257 -18 0 -925 -248 -933 -255 -4 -4 -62 -640 -62 -683 l 0 -32 228 2 227 3 15 172 c 9 95 20 177 25 182 6 5 119 38 252 74 l 242 65 237 -64 c 130 -35 244 -66 253 -69 15 -4 20 -43 40 -278 12 -149 25 -280 27 -289 5 -17 -39 -18 -783 -20 l -788 -3 -17 -180 c -9 -99 -17 -201 -17 -227 l -1 -48 825 0 825 0 0 -21 c 0 -29 28 -354 35 -401 l 5 -38 -865 0 c -684 0 -867 -3 -870 -12 -2 -7 -11 -96 -20 -198 -8 -102 -18 -200 -21 -218 l -5 -32 1142 0 1142 0 -6 52 z " />
  </g>
</svg>