<?xml version="1.0" encoding="utf-8"?>
<!DOCTYPE svg PUBLIC "-//W3C//DTD SVG 20010904//EN" "http://www.w3.org/TR/2001/REC-SVG-20010904/DTD/svg10.dtd">
<svg version="1.0" width="345pt" height="344.823pt" viewBox="0 0 345 344.823" preserveAspectRatio="xMidYMid meet" xmlns="http://www.w3.org/2000/svg">
  <g transform="translate(-19.5,364.323)scale(.075,.075)">
    <path id="path1" d="M 2485 -4844 c -54 20 -111 78 -130 132 -22 66 -22 559 0 623 29 82 122 149 205 149 48 0 116 -30 153 -68 62 -64 67 -91 67 -391 0 -303 -5 -333 -68 -394 -63 -62 -146 -80 -227 -51 z M 1045 -4241 c -104 26 -168 107 -168 211 0 36 7 69 21 95 11 22 111 130 224 241 191 189 206 202 255 214 101 23 197 -22 246 -115 27 -54 27 -137 -1 -190 -24 -47 -393 -416 -437 -438 -39 -19 -102 -27 -140 -18 z M 3985 -4241 c -60 15 -94 43 -291 243 -182 184 -202 207 -213 251 -39 161 101 304 262 267 49 -12 64 -25 255 -214 113 -111 213 -219 224 -241 41 -78 21 -193 -44 -251 -51 -47 -133 -70 -193 -55 z M 2124 -3482 c -242 129 -421 358 -490 631 -150 582 231 1155 825 1242 174 25 401 -9 563 -84 200 -92 377 -262 469 -449 27 -56 31 -72 23 -95 -15 -43 -51 -50 -126 -26 -156 52 -358 61 -513 24 -302 -73 -554 -316 -630 -612 -39 -151 -37 -352 6 -494 34 -112 35 -140 8 -159 -34 -23 -56 -20 -135 22 z M 405 -2764 c -78 29 -145 123 -145 205 0 82 69 177 148 204 66 22 559 22 623 0 82 -29 149 -122 149 -205 0 -83 -67 -176 -149 -205 -62 -21 -566 -21 -626 1 z M 4085 -2764 c -78 29 -145 123 -145 205 0 82 69 177 148 204 66 22 559 22 623 0 82 -29 149 -122 149 -205 0 -83 -67 -176 -149 -205 -62 -21 -566 -21 -626 1 z M 1355 -1634 c -30 11 -94 68 -247 221 -214 214 -238 246 -238 323 0 111 109 220 221 220 75 0 108 -24 321 -238 213 -213 238 -246 238 -321 0 -84 -67 -177 -149 -206 -53 -18 -93 -18 -146 1 z M 3605 -1626 c -40 17 -95 72 -111 113 -20 46 -17 131 5 178 12 25 94 115 217 237 204 202 239 228 313 228 113 0 221 -108 221 -221 0 -74 -25 -109 -228 -313 -122 -123 -212 -205 -237 -217 -47 -22 -136 -24 -180 -5 z M 2485 -1164 c -54 20 -111 78 -130 132 -22 66 -22 559 0 623 29 82 122 149 205 149 48 0 116 -30 153 -68 62 -64 67 -91 67 -391 0 -303 -5 -333 -68 -394 -63 -62 -146 -80 -227 -51 z " />
  </g>
</svg>