<?xml version="1.0" encoding="utf-8"?>
<!DOCTYPE svg PUBLIC "-//W3C//DTD SVG 20010904//EN" "http://www.w3.org/TR/2001/REC-SVG-20010904/DTD/svg10.dtd">
<svg version="1.0" width="271.471pt" height="307.5pt" viewBox="0 0 271.471 307.5" preserveAspectRatio="xMidYMid meet" xmlns="http://www.w3.org/2000/svg">
  <g transform="translate(0,307.5)scale(.075,.075)">
    <path fill='currentColor' id="path1" d="M 122 -4093 c -67 2 -122 6 -122 8 0 2 32 356 70 787 166 1852 262 2883 268 2889 8 7 115 38 876 249 319 88 585 160 593 160 13 0 1433 -393 1467 -406 9 -3 16 -14 16 -24 0 -10 18 -218 41 -461 22 -244 94 -1047 159 -1784 65 -737 121 -1359 124 -1383 l 6 -42 -1688 2 c -928 1 -1742 4 -1810 5 z m 2813 764 c 6 7 -19 329 -31 397 l -6 32 -870 0 c -692 0 -869 3 -865 12 2 7 13 113 23 236 l 18 222 828 -2 c 455 -2 828 0 828 3 0 28 -121 1341 -126 1362 -3 17 -15 32 -29 37 -13 5 -220 64 -460 130 l -437 122 -397 -111 c -219 -61 -427 -120 -463 -131 l -65 -20 -6 -62 c -4 -35 -18 -180 -32 -322 -14 -143 -25 -272 -25 -288 l 0 -28 225 0 225 0 0 22 c 1 60 30 322 37 329 4 4 75 26 158 49 233 64 307 82 340 82 30 0 495 -119 505 -129 7 -6 58 -577 53 -583 -3 -3 -355 -6 -784 -8 l -779 -3 -5 -22 c -8 -38 -115 -1246 -115 -1302 l 0 -35 1124 2 c 618 2 1127 6 1131 9 z " />
  </g>
</svg>