<?xml version="1.0" encoding="utf-8"?>
<!DOCTYPE svg PUBLIC "-//W3C//DTD SVG 20010904//EN" "http://www.w3.org/TR/2001/REC-SVG-20010904/DTD/svg10.dtd">
<svg version="1.0" width="130.5pt" height="20.233pt" viewBox="0 0 130.5 20.233" preserveAspectRatio="xMidYMid meet" xmlns="http://www.w3.org/2000/svg">
  <g transform="translate(-30,107.853)scale(.075,.075)">
    <path id="path1" d="M 404 -1425 c -4 9 -2 21 4 27 15 15 44 1 40 -19 -4 -23 -36 -29 -44 -8 z M 840 -1380 l 0 51 -29 -22 c -56 -41 -111 2 -111 87 0 78 71 123 122 77 17 -15 18 -15 18 0 0 11 8 17 25 17 l 25 0 0 -130 0 -130 -25 0 c -23 0 -25 3 -25 50 z m -6 94 c 13 54 -37 99 -72 64 -13 -13 -16 -67 -4 -84 21 -31 66 -19 76 20 z M 1420 -1300 l 0 130 25 0 c 24 0 25 -2 25 -64 0 -62 14 -96 40 -96 26 0 40 34 40 96 0 62 1 64 25 64 24 0 25 -2 25 -75 0 -67 -3 -79 -25 -100 -29 -30 -58 -32 -85 -5 l -20 20 0 -50 c 0 -47 -2 -50 -25 -50 l -25 0 0 130 z M 2090 -1300 l 0 130 25 0 25 0 0 -130 0 -130 -25 0 -25 0 0 130 z M 1650 -1385 c 0 16 -6 25 -15 25 -8 0 -15 7 -15 15 0 8 7 15 15 15 12 0 15 14 15 64 0 74 14 96 61 96 22 0 29 -5 29 -20 0 -13 -7 -20 -20 -20 -18 0 -20 -7 -20 -60 0 -53 2 -60 20 -60 11 0 20 -7 20 -15 0 -8 -9 -15 -20 -15 -15 0 -20 -7 -20 -25 0 -20 -5 -25 -25 -25 -20 0 -25 5 -25 25 z M 560 -1350 c -16 16 -20 17 -20 5 0 -9 -9 -15 -25 -15 -25 0 -25 0 -25 95 0 95 0 95 25 95 24 0 25 -2 25 -64 0 -62 14 -96 40 -96 26 0 40 34 40 96 0 62 1 64 26 64 l 26 0 -4 -81 c -3 -70 -6 -83 -27 -100 -30 -24 -56 -24 -81 1 z M 970 -1357 c -45 23 -63 88 -39 140 22 48 97 62 143 26 33 -26 33 -39 1 -39 -14 0 -25 4 -25 10 0 14 -54 12 -68 -2 -28 -28 -13 -38 53 -38 63 0 65 -1 65 -26 0 -32 -50 -84 -82 -84 -13 0 -34 6 -48 13 z m 68 39 c 21 21 13 28 -28 28 -22 0 -40 -4 -40 -8 0 -14 23 -32 40 -32 9 0 21 5 28 12 z M 1264 -1363 c -11 2 -28 18 -36 36 l -15 32 -17 -33 c -13 -26 -23 -32 -47 -32 l -31 0 17 28 c 10 15 24 35 31 46 11 16 9 24 -10 55 -12 20 -26 42 -30 49 -5 8 1 12 18 12 18 0 30 -9 41 -30 19 -37 26 -37 47 0 12 21 25 30 43 30 14 0 25 -3 25 -6 0 -3 -13 -25 -29 -48 l -30 -43 30 -44 c 29 -45 35 -60 21 -58 -4 1 -16 4 -28 6 z M 1842 -1354 c -12 8 -22 10 -22 5 0 -6 -11 -11 -25 -11 -25 0 -25 0 -25 95 0 94 0 95 25 95 23 0 24 -3 27 -71 2 -54 7 -75 20 -82 32 -20 48 8 48 84 0 67 1 69 25 69 24 0 25 -2 25 -74 0 -76 10 -93 45 -80 11 5 15 24 15 80 0 72 1 74 25 74 25 0 25 -1 25 -85 0 -78 -2 -86 -24 -100 -27 -18 -74 -11 -83 11 -4 11 -10 10 -30 -6 -31 -24 -42 -25 -71 -4 z M 400 -1265 c 0 95 0 95 25 95 25 0 25 0 25 -95 0 -95 0 -95 -25 -95 -25 0 -25 0 -25 95 z M 1332 -1198 c 2 15 10 23 23 23 30 0 27 -39 -3 -43 -20 -3 -23 0 -20 20 z " />
  </g>
</svg>