<?xml version="1.0" encoding="utf-8"?>
<!DOCTYPE svg PUBLIC "-//W3C//DTD SVG 20010904//EN" "http://www.w3.org/TR/2001/REC-SVG-20010904/DTD/svg10.dtd">
<svg version="1.0" width="472.5pt" height="472.5pt" viewBox="0 0 472.5 472.5" preserveAspectRatio="xMidYMid meet" xmlns="http://www.w3.org/2000/svg">
  <g transform="translate(0,472.5)scale(.075,.075)">
    <path id="path1" d="M 0 -3150 l 0 3150 3150 0 3150 0 0 -3150 0 -3150 -3150 0 -3150 0 0 3150 z m 5080 -260 c 176 45 335 145 442 277 58 72 108 146 108 162 0 5 -102 75 -227 154 l -226 145 -37 -56 c -46 -72 -118 -138 -178 -165 -66 -30 -211 -36 -283 -12 -143 48 -208 216 -138 362 43 89 125 139 488 299 454 198 648 364 736 626 50 150 58 369 19 518 -69 266 -262 456 -559 550 -132 42 -226 54 -405 54 -466 -1 -838 -199 -1044 -556 l -27 -46 236 -137 c 129 -75 239 -135 244 -133 4 1 37 41 72 87 144 189 326 273 560 258 155 -10 267 -68 323 -167 40 -71 43 -169 7 -242 -47 -98 -132 -152 -458 -294 -318 -139 -425 -201 -549 -316 -116 -109 -190 -232 -230 -383 -14 -54 -19 -106 -19 -225 0 -135 3 -165 23 -230 94 -297 313 -483 645 -546 110 -21 368 -12 477 16 z m -1652 1112 l -3 1113 -27 96 c -98 359 -337 549 -739 590 -316 31 -608 -64 -808 -263 -90 -89 -204 -261 -184 -278 18 -15 462 -280 470 -280 5 0 25 28 45 63 46 79 118 161 172 192 114 66 312 50 398 -32 35 -33 64 -104 77 -184 7 -41 11 -427 11 -1097 l 0 -1032 295 0 296 0 -3 1112 z " />
  </g>
</svg>