<?xml version="1.0" encoding="utf-8"?>
<!DOCTYPE svg PUBLIC "-//W3C//DTD SVG 20010904//EN" "http://www.w3.org/TR/2001/REC-SVG-20010904/DTD/svg10.dtd">
<svg version="1.0" width="334.596pt" height="63pt" viewBox="0 0 334.596 63" preserveAspectRatio="xMidYMid meet" xmlns="http://www.w3.org/2000/svg">
  <g transform="translate(-23.955,229.5)scale(.075,.075)">
    <path id="path1" d="M 2990 -2980 l 0 80 -45 0 -45 0 0 70 0 70 45 0 45 0 0 188 c 0 206 7 246 51 296 35 40 88 56 188 56 l 71 0 0 -69 c 0 -67 0 -68 -25 -63 -36 6 -85 -17 -96 -45 -5 -13 -9 -101 -9 -194 l 0 -169 65 0 65 0 0 -70 0 -70 -65 0 -65 0 0 -80 0 -80 -90 0 -90 0 0 80 z M 4120 -2836 l 0 81 247 80 247 80 -247 80 -247 80 0 77 c 0 43 3 78 8 78 4 -1 151 -52 327 -113 l 320 -113 3 -90 3 -89 -331 -116 -330 -116 0 81 z M 637 -2797 l -318 112 3 89 3 89 305 107 c 168 59 315 110 328 114 22 7 22 6 22 -72 l 0 -80 -240 -78 c -132 -43 -237 -80 -234 -83 3 -3 109 -40 237 -82 l 232 -75 3 -77 c 2 -58 0 -77 -10 -76 -7 0 -156 50 -331 112 z M 1413 -2891 c -24 11 -55 38 -72 62 l -31 42 0 -56 0 -57 -90 0 -90 0 0 335 0 335 89 0 90 0 3 -236 3 -236 33 -29 c 45 -40 117 -41 155 -3 35 35 40 74 35 308 l -3 196 87 0 87 0 3 -236 3 -236 33 -29 c 26 -23 41 -29 80 -29 41 0 53 5 78 31 l 29 30 0 235 0 234 93 0 94 0 -4 -258 c -3 -253 -3 -258 -29 -307 -65 -128 -243 -156 -347 -54 -17 17 -34 39 -37 50 -9 28 -19 24 -38 -15 -8 -19 -32 -46 -51 -61 -49 -37 -142 -45 -203 -16 z M 2414 -2892 c -28 10 -64 29 -81 42 -123 100 -160 322 -80 477 24 45 81 98 133 124 61 29 182 37 255 16 91 -27 171 -99 194 -175 6 -22 5 -22 -75 -22 -78 0 -82 1 -106 29 -46 55 -150 65 -207 21 -29 -23 -57 -78 -57 -114 l 0 -26 231 0 232 0 -6 -72 c -12 -164 -83 -265 -213 -304 -64 -19 -158 -17 -220 4 z m 185 130 c 35 19 71 72 71 104 0 16 -13 18 -141 18 l -141 0 7 -27 c 23 -93 122 -139 204 -95 z M 3563 -2891 c -28 9 -67 29 -86 44 -38 28 -77 99 -77 137 0 23 1 23 77 16 69 -5 79 -9 102 -37 48 -56 158 -60 196 -6 8 12 15 38 15 59 0 44 1 44 -137 53 -202 13 -294 87 -281 225 10 97 84 165 195 176 72 8 147 -20 193 -73 l 30 -34 0 51 0 50 90 0 90 0 0 -256 c 0 -287 -2 -296 -70 -358 -71 -64 -226 -86 -337 -47 z m 227 415 c 0 33 -7 52 -26 75 -65 77 -214 59 -216 -27 -2 -63 47 -90 170 -91 l 72 -1 0 44 z " />
  </g>
</svg>