<?xml version="1.0" encoding="utf-8"?>
<!DOCTYPE svg PUBLIC "-//W3C//DTD SVG 20010904//EN" "http://www.w3.org/TR/2001/REC-SVG-20010904/DTD/svg10.dtd">
<svg version="1.0" width="212.105pt" height="314.119pt" viewBox="0 0 212.105 314.119" preserveAspectRatio="xMidYMid meet" xmlns="http://www.w3.org/2000/svg">
  <g transform="translate(-77.25,359.967)scale(.075,.075)">
    <path id="path1" d="M 1277 -4780 c -115 36 -192 114 -227 228 -20 63 -20 94 -20 1507 0 1413 0 1444 20 1507 33 107 108 187 212 226 36 14 94 17 350 20 l 308 3 0 -100 0 -101 -292 0 c -275 0 -295 -1 -326 -20 -17 -11 -41 -34 -52 -52 -20 -33 -20 -53 -20 -1483 0 -1429 0 -1450 20 -1483 11 -18 34 -41 52 -52 32 -19 52 -20 708 -20 656 0 676 1 708 20 18 11 41 34 52 52 19 32 20 52 20 510 l 0 478 100 0 101 0 -3 -492 c -3 -430 -5 -499 -20 -536 -40 -104 -119 -179 -226 -212 -61 -19 -92 -20 -736 -19 -626 0 -675 1 -729 19 z M 1788 -4484 c -51 27 -46 104 8 124 14 6 112 10 219 10 107 0 205 -4 219 -10 55 -21 59 -98 6 -125 -42 -22 -412 -21 -452 1 z M 2815 -3350 c -422 45 -710 317 -748 708 l -7 62 254 0 253 0 7 -49 c 9 -67 60 -164 108 -205 144 -124 379 -124 516 -1 70 63 95 120 96 220 1 166 -52 239 -281 392 -80 53 -169 118 -198 145 -128 117 -184 275 -170 476 l 7 92 242 0 243 0 6 -90 c 11 -167 70 -246 278 -375 194 -120 280 -198 356 -323 51 -85 74 -170 80 -297 6 -139 -11 -229 -68 -345 -34 -69 -59 -102 -129 -172 -75 -74 -102 -94 -191 -137 -192 -94 -408 -127 -654 -101 z M 2761 -1159 c -112 56 -169 156 -159 282 7 80 34 132 99 191 64 58 135 81 226 73 164 -13 277 -131 277 -292 0 -88 -26 -147 -95 -209 -61 -55 -121 -76 -214 -76 -60 0 -82 5 -134 31 z " />
  </g>
</svg>