<?xml version="1.0" encoding="utf-8"?>
<!DOCTYPE svg PUBLIC "-//W3C//DTD SVG 20010904//EN" "http://www.w3.org/TR/2001/REC-SVG-20010904/DTD/svg10.dtd">
<svg version="1.0" width="87.005pt" height="79.545pt" viewBox="0 0 87.005 79.545" preserveAspectRatio="xMidYMid meet" xmlns="http://www.w3.org/2000/svg">
  <g transform="translate(-23.245,111.795)scale(.075,.075)">
    <path id="path1" d="M 472 -968 c -89 288 -162 527 -162 531 0 4 30 7 66 5 l 66 -3 152 -490 c 84 -269 157 -503 163 -520 9 -23 12 97 12 493 l 1 522 128 0 127 0 160 -518 160 -519 3 519 2 518 60 0 60 0 0 -530 0 -531 -127 3 -128 3 -160 517 -160 517 -3 -520 -2 -519 -128 0 -129 0 -161 522 z " />
  </g>
</svg>