<?xml version="1.0" encoding="utf-8"?>
<!DOCTYPE svg PUBLIC "-//W3C//DTD SVG 20010904//EN" "http://www.w3.org/TR/2001/REC-SVG-20010904/DTD/svg10.dtd">
<svg version="1.0" width="192.004pt" height="192pt" viewBox="0 0 192.004 192" preserveAspectRatio="xMidYMid meet" xmlns="http://www.w3.org/2000/svg">
  <g transform="translate(.004,192)scale(.075,.075)">
    <path id="path1" d="M 0 -1925 c 0 690 -4 647 54 625 24 -9 27 -6 51 45 14 30 44 76 65 102 22 26 40 51 40 55 0 4 -16 19 -35 34 -19 14 -67 63 -105 107 l -70 80 0 439 0 438 1280 0 1280 0 0 -382 0 -383 -58 -77 c -31 -42 -78 -101 -105 -131 l -47 -55 35 -52 c 99 -147 79 -352 -46 -465 -71 -64 -140 -90 -239 -90 -99 0 -157 18 -228 73 -27 21 -48 30 -50 23 -2 -6 -23 -38 -47 -70 -106 -143 -280 -231 -460 -231 -118 0 -244 40 -331 105 l -30 23 -36 -43 c -50 -63 -111 -111 -179 -142 -44 -20 -58 -31 -54 -44 17 -53 35 -182 35 -250 0 -67 3 -81 18 -85 56 -19 144 -66 188 -102 46 -36 134 -150 134 -173 0 -5 -229 -9 -530 -9 l -530 0 0 635 z m 280 572 l 45 67 3 -67 c 3 -64 4 -67 27 -67 l 25 0 0 110 c 0 102 -1 110 -19 110 -13 0 -37 -25 -70 -72 l -51 -72 0 72 c 0 70 -1 72 -25 72 l -25 0 0 -110 c 0 -108 1 -110 22 -110 17 1 35 19 68 67 z m 430 23 l 0 90 50 0 c 43 0 50 3 50 20 0 18 -7 20 -75 20 l -75 0 0 -110 0 -110 25 0 c 25 0 25 1 25 90 z m 890 -75 c 0 11 -12 15 -50 15 -49 0 -50 1 -50 30 0 29 2 30 45 30 38 0 45 3 45 20 0 17 -7 20 -45 20 l -45 0 0 45 c 0 38 -3 45 -20 45 -19 0 -20 -7 -20 -110 l 0 -110 70 0 c 56 0 70 3 70 15 z m 730 95 c 0 103 -1 110 -20 110 -12 0 -20 -7 -20 -16 0 -14 -1 -14 -16 0 -39 40 -94 10 -101 -55 -8 -76 51 -126 99 -82 17 15 18 14 18 -25 0 -35 3 -42 20 -42 19 0 20 7 20 110 z m -1785 -35 c 31 30 33 82 4 119 -45 57 -139 17 -139 -59 0 -46 36 -85 80 -85 19 0 40 9 55 25 z m 415 -7 c 13 10 23 33 27 59 5 35 2 45 -20 67 -54 54 -137 20 -137 -56 0 -73 76 -114 130 -70 z m 152 -1 c 17 15 18 15 18 0 0 -10 8 -17 20 -17 19 0 20 7 20 92 0 51 -4 98 -8 105 -21 33 -108 37 -133 7 -18 -22 -2 -29 37 -15 39 14 64 3 64 -30 0 -16 -3 -16 -26 -5 -71 37 -127 -60 -73 -128 23 -30 54 -33 81 -9 z m 223 8 c 33 32 34 89 3 122 -30 32 -81 31 -113 -2 -52 -51 -16 -145 55 -145 19 0 40 9 55 25 z m 420 0 c 76 75 -34 196 -112 123 -52 -49 -14 -148 57 -148 19 0 40 9 55 25 z m 95 34 c 0 61 14 86 43 75 20 -7 29 -45 21 -94 -6 -38 -5 -40 20 -40 l 26 0 0 85 c 0 84 0 85 -25 85 -14 0 -25 -5 -25 -12 0 -9 -3 -9 -12 0 -15 15 -61 15 -76 0 -7 -7 -12 -42 -12 -85 0 -66 2 -73 20 -73 18 0 20 7 20 59 z m 180 -43 c 0 14 2 14 22 0 57 -40 88 -9 88 85 0 62 -2 69 -20 69 -16 0 -19 -8 -22 -62 -3 -53 -6 -63 -22 -66 -28 -6 -46 25 -46 80 0 41 -3 48 -20 48 -18 0 -20 -7 -20 -85 0 -78 2 -85 20 -85 11 0 20 7 20 16 z M 2218 -1305 c -9 19 -8 29 6 50 9 14 21 25 26 25 16 0 40 -31 40 -54 0 -47 -53 -63 -72 -21 z M 460 -1311 c -21 41 8 89 45 75 20 -8 31 -53 18 -73 -15 -24 -50 -25 -63 -2 z M 885 -1324 c -19 20 -19 58 1 78 21 22 31 20 49 -8 29 -43 -15 -105 -50 -70 z M 1061 -1308 c -11 29 -3 56 20 68 33 18 60 -29 43 -74 -9 -24 -53 -20 -63 6 z M 1265 -1326 c -36 26 -11 105 28 90 32 -12 34 -85 3 -97 -8 -3 -22 0 -31 7 z M 1676 -1324 c -20 20 -20 58 0 78 21 22 31 20 50 -9 29 -44 -15 -105 -50 -69 z M 1890 -2544 c 0 35 33 142 66 212 93 204 268 360 480 431 51 17 99 31 108 31 14 0 16 -35 16 -345 l 0 -345 -335 0 c -301 0 -335 2 -335 16 z " />
  </g>
</svg>