<?xml version="1.0" encoding="utf-8"?>
<!DOCTYPE svg PUBLIC "-//W3C//DTD SVG 20010904//EN" "http://www.w3.org/TR/2001/REC-SVG-20010904/DTD/svg10.dtd">
<svg version="1.0" width="374.501pt" height="249.68pt" viewBox="0 0 374.501 249.68" preserveAspectRatio="xMidYMid meet" xmlns="http://www.w3.org/2000/svg">
  <g transform="translate(-6.849,319.499)scale(.075,.075)">
    <path id="path1" d="M 4300 -4240 c -30 30 -28 103 5 135 24 25 27 25 190 25 181 0 219 9 231 54 9 37 -2 60 -60 129 -29 34 -67 83 -86 109 -18 27 -37 48 -42 48 -20 0 -48 67 -48 116 0 72 17 85 127 94 110 9 145 25 210 92 59 61 73 90 73 157 0 40 -7 59 -42 111 -49 72 -67 86 -140 106 -112 30 -231 8 -357 -65 -43 -25 -62 -16 -90 43 -24 50 -20 72 24 124 35 42 63 56 161 81 130 33 196 36 302 12 52 -12 106 -28 120 -35 32 -16 142 -130 142 -145 0 -6 13 -25 28 -41 26 -27 30 -38 35 -124 8 -124 -17 -230 -74 -317 -34 -51 -49 -64 -112 -93 -58 -28 -77 -43 -95 -74 -36 -64 -23 -129 33 -166 14 -9 36 -33 49 -54 13 -20 44 -61 69 -91 26 -30 61 -83 79 -117 37 -72 35 -87 -23 -116 -30 -16 -69 -18 -361 -18 -315 0 -329 1 -348 20 z M 116 -3788 c -26 10 -28 13 -22 49 10 61 44 144 76 184 16 20 41 68 55 106 15 39 38 83 52 100 14 16 38 61 53 98 16 38 42 88 59 111 17 23 40 67 51 97 11 31 34 74 50 97 16 23 41 69 55 104 14 34 40 84 58 110 19 26 42 69 52 97 10 27 33 70 51 95 18 25 42 70 53 100 11 30 34 73 51 97 17 23 43 74 60 114 16 39 38 82 50 94 12 12 35 56 51 96 16 40 41 88 55 106 14 18 38 65 54 104 16 39 40 83 53 99 13 15 36 59 51 97 15 37 41 85 57 105 16 20 38 61 50 92 11 31 36 78 55 105 18 28 43 73 53 102 11 28 32 70 47 93 15 22 42 75 59 116 28 69 33 75 62 78 48 5 94 -42 126 -128 14 -39 40 -88 56 -109 17 -21 40 -64 52 -97 12 -32 37 -79 55 -105 18 -25 42 -70 54 -101 11 -31 34 -74 50 -96 16 -23 41 -69 55 -103 14 -35 40 -85 59 -113 19 -28 39 -68 46 -89 6 -20 28 -60 47 -89 20 -29 46 -77 58 -108 12 -31 38 -79 58 -108 19 -28 43 -74 52 -101 9 -27 29 -66 44 -85 16 -20 41 -66 57 -103 16 -38 43 -89 60 -115 18 -26 44 -79 59 -117 45 -120 151 -196 198 -143 8 9 27 46 41 81 14 36 35 75 47 87 11 12 34 55 50 95 16 40 41 88 55 106 14 18 38 65 54 103 16 38 40 85 55 103 14 19 37 63 51 98 14 35 41 84 58 109 18 25 40 65 49 90 9 25 33 70 52 100 20 30 45 79 56 109 11 30 33 71 49 91 17 21 40 64 52 96 12 33 36 80 55 106 18 27 44 76 58 109 14 34 36 77 50 95 15 19 39 65 55 103 15 38 38 82 49 98 11 15 33 53 48 83 37 74 62 78 97 16 14 -25 37 -61 50 -79 14 -19 36 -63 50 -98 15 -35 40 -82 56 -105 16 -22 38 -64 49 -93 11 -29 38 -80 59 -114 22 -34 45 -78 51 -98 6 -20 31 -65 55 -102 24 -37 51 -95 61 -131 18 -64 17 -65 -6 -137 -13 -40 -36 -87 -50 -105 -15 -19 -39 -64 -55 -101 -15 -38 -42 -88 -59 -113 -18 -25 -41 -71 -53 -102 -12 -32 -35 -75 -51 -96 -16 -20 -41 -66 -55 -102 -15 -36 -40 -83 -56 -106 -15 -22 -41 -71 -56 -108 -15 -37 -38 -81 -51 -96 -13 -16 -37 -60 -53 -99 -16 -39 -40 -86 -54 -104 -14 -18 -39 -66 -55 -106 -16 -40 -39 -83 -50 -95 -11 -11 -35 -56 -55 -98 -19 -43 -46 -93 -60 -111 -15 -19 -34 -56 -43 -83 -19 -56 -127 -220 -154 -234 -11 -6 -228 -10 -544 -10 -469 0 -531 2 -562 16 -48 24 -89 67 -103 111 -7 21 -30 66 -52 100 -22 34 -48 84 -59 112 -10 28 -32 69 -48 92 -17 22 -42 71 -56 109 -14 38 -33 74 -41 81 -20 16 -61 97 -76 149 -14 49 -62 95 -115 109 -53 15 -82 -8 -110 -87 -12 -33 -37 -82 -56 -109 -19 -26 -42 -71 -52 -98 -10 -27 -33 -70 -51 -95 -17 -25 -46 -79 -63 -121 -18 -42 -41 -85 -51 -94 -11 -10 -31 -49 -46 -89 -21 -55 -40 -84 -84 -128 l -57 -58 -439 1 c -277 0 -450 4 -468 11 z " />
  </g>
</svg>