<?xml version="1.0" encoding="utf-8"?>
<!DOCTYPE svg PUBLIC "-//W3C//DTD SVG 20010904//EN" "http://www.w3.org/TR/2001/REC-SVG-20010904/DTD/svg10.dtd">
<svg version="1.0" width="309pt" height="289.5pt" viewBox="0 0 309 289.5" preserveAspectRatio="xMidYMid meet" xmlns="http://www.w3.org/2000/svg">
  <g transform="translate(-36,343.5)scale(.075,.075)">
    <path id="path1" d="M 480 -4561 c 0 26 147 1643 159 1751 5 45 13 85 18 89 9 9 -8 4 411 120 l 320 89 98 -27 c 95 -26 99 -29 102 -57 2 -16 -9 -83 -23 -149 -14 -66 -29 -137 -32 -157 -6 -43 -12 -45 -89 -22 l -54 15 -223 -62 c -122 -34 -227 -66 -233 -70 -6 -5 -16 -73 -23 -151 -7 -79 -14 -155 -17 -170 l -6 -28 115 0 114 0 7 82 c 4 46 11 87 15 91 13 13 211 67 245 67 24 0 146 -27 154 -34 1 -2 -7 -45 -17 -97 -11 -52 -23 -124 -26 -161 l -7 -67 -298 -3 c -164 -2 -301 -6 -304 -9 -10 -9 -66 -663 -58 -670 4 -4 258 -4 564 -1 l 558 5 0 51 c 0 28 -3 74 -6 103 l -7 52 -433 3 c -238 2 -434 5 -436 8 -3 3 0 56 5 118 l 10 112 573 0 574 0 0 -25 c 0 -14 16 -201 35 -416 19 -216 35 -393 35 -395 0 -2 -410 -4 -910 -4 -894 0 -910 0 -910 19 z M 1520 -3669 c 0 7 18 208 40 448 21 240 46 519 55 621 23 269 86 954 88 956 2 1 102 29 445 123 315 87 343 93 397 86 84 -10 80 2 80 -235 0 -115 -3 -210 -7 -210 -3 0 -29 5 -56 11 -41 10 -62 9 -118 -5 -119 -29 -429 -118 -436 -125 -5 -5 -38 -318 -38 -365 0 -14 18 -16 124 -16 l 123 0 7 89 c 4 50 13 94 19 99 7 5 69 26 139 46 l 126 37 56 -16 56 -16 0 -48 c 0 -26 3 -109 7 -184 l 6 -137 -335 0 -336 0 -5 -22 c -3 -13 -9 -69 -13 -126 l -7 -102 451 0 450 0 6 -52 c 3 -29 8 -88 12 -130 l 6 -78 -475 0 -475 0 -7 -78 c -4 -42 -7 -97 -8 -122 l -2 -45 613 -3 c 520 -2 613 0 618 12 3 8 -6 137 -20 287 -14 150 -24 274 -23 275 1 2 77 0 168 -3 l 165 -6 22 -236 c 37 -396 62 -679 62 -711 l 0 -30 -990 0 c -737 0 -990 3 -990 11 z M 2660 -1690 l 0 970 970 0 970 0 0 -970 0 -970 -970 0 -970 0 0 970 z m 1620 -55 c 42 21 110 87 110 106 0 4 -29 26 -65 49 l -65 42 -40 -36 c -32 -29 -48 -36 -80 -36 -74 0 -114 71 -74 129 9 12 70 48 139 80 190 91 241 152 239 291 -1 76 -25 132 -76 175 -95 81 -272 93 -405 29 -47 -23 -143 -113 -143 -135 0 -4 31 -26 69 -48 l 69 -41 44 44 c 73 74 180 85 240 26 63 -63 28 -112 -137 -190 -147 -69 -197 -114 -221 -198 -36 -122 20 -252 125 -294 86 -35 194 -32 271 7 z m -570 323 c 0 400 -2 414 -75 481 -70 65 -195 84 -305 47 -58 -20 -150 -102 -150 -134 0 -15 115 -92 137 -92 4 0 16 14 25 30 25 44 81 65 130 51 21 -7 43 -22 50 -34 9 -16 13 -119 16 -359 l 4 -338 84 0 84 0 0 348 z " />
  </g>
</svg>