<?xml version="1.0" encoding="UTF-8" standalone="no"?><svg version="1.1" viewBox="0 0 1024 1024" xml:space="preserve" xmlns:xlink="http://www.w3.org/1999/xlink" xmlns="http://www.w3.org/2000/svg" xmlns:svg="http://www.w3.org/2000/svg"><defs><linearGradient id="c"><stop offset="0" stop-color="#e5e5e5"/><stop offset=".28" stop-color="#e5e5e5"/><stop offset=".5" stop-color="#ededed"/><stop offset=".625" stop-color="#f1f1f1"/><stop offset=".66750002" stop-color="#f2f2f2"/><stop offset=".68875003" stop-color="#f5f5f5"/><stop offset=".70999998" stop-color="#ededed"/></linearGradient><linearGradient id="b"><stop offset="0" stop-color="#8f8f8e"/><stop offset=".25" stop-color="#aeaeae"/><stop offset=".5" stop-color="#cbcccc"/><stop offset=".75" stop-color="#e1e1e1"/><stop offset="1" stop-color="#eee"/></linearGradient><linearGradient id="a"><stop offset="0" stop-color="#ffdf60"/><stop offset=".5" stop-color="#ffd530"/><stop offset="1" stop-color="#fc0"/></linearGradient><linearGradient xlink:href="#a" id="f" x1="511.97769" y1="0" x2="512" y2="256" gradientUnits="userSpaceOnUse"/><linearGradient xlink:href="#b" id="g" gradientUnits="userSpaceOnUse" x1="511.97769" y1="0" x2="512" y2="256" gradientTransform="matrix(1 0 0 .18749999 0 255.99998)"/><linearGradient xlink:href="#c" id="e" x1="512" y1="1024" x2="511.97769" y2="0" gradientUnits="userSpaceOnUse"/><clipPath clipPathUnits="userSpaceOnUse" id="d"><path d="M1023.9999 703.6703c0 12.24394 0 24.46578-.0923 36.68749-.0607 10.3073-.1779 20.61447-.4453 30.89954-.2837 22.5344-2.2629 45.01565-5.9213 67.25295-3.8067 22.26183-10.9078 43.8113-21.08088 63.9583-20.61945 40.48081-53.52839 73.39129-94.0071 94.01169-20.13757 10.15963-41.67821 17.25773-63.91054 21.05973-22.26075 3.6732-44.74408 5.6545-67.27194 5.9217-10.29726.2661-20.59722.4218-30.89785.4669-12.2434.0714-24.46445.0714-36.68562.0714H320.3129c-12.22115 0-24.44231 0-36.68569-.0606-10.30054-.0405-20.60048-.1866-30.89786-.4453-22.54148-.2877-45.0292-2.2745-67.27197-5.944-22.23846-3.7846-43.78676-10.9085-63.91051-21.05986-40.474453-20.61649-73.382628-53.51855-94.007081-93.99013-10.169994-20.15946-17.275178-41.72376-21.0808488-63.98053C2.8006217 816.28975.82124261 793.81592.53759651 771.28886c-.26726224-10.3073-.40038136-20.61447-.44543709-30.9217C0 728.12315 0 715.9236 0 703.67966V320.33072c0-12.24407 0-24.48805.09215942-36.73201.04096-10.28505.17817485-20.59224.44543709-30.87719.2836461-22.52708 2.26333229-45.00092 5.92134369-67.23084 3.8065928-22.26176 10.9077838-43.81123 21.0808488-63.98046 20.619436-40.480777 53.52833-73.391427 94.007081-94.011821 20.13183-10.154396 41.66437-17.252253 63.8883-21.0596905C207.69585 2.7877383 230.17916.80650253 252.70702.51712013 263.01382.24985607 273.32052.11673607 283.60489.07168 295.84836 0 308.09175 0 320.29058 0h383.3742c12.24346 0 24.48687 0 36.70798.07168 10.30056.04096 20.60038.18636807 30.89785.44544013 22.52786.289792 45.01119 2.27061817 67.24964 5.92158837 22.26069 3.8068235 43.78692 10.9083665 63.93283 21.0596905 40.48882 20.614147 73.40659 53.525823 94.02934 94.011821 10.16138 20.15325 17.25908 41.71 21.05858 63.95824 3.6587 22.23729 5.638 44.7185 5.9214 67.25306.2674 10.30717.4002 20.61446.4453 30.89941.0923 12.24398.0923 24.46572.0923 36.68746Z"/></clipPath></defs><g clip-path="url(#d)"><path d="M0 0h1024v1024H0Z" fill="url(#e)"/><path fill="url(#f)" d="M0 0h1024v256H0z"/><path fill="#b7b7b7" d="M0 762.7h1024v10.5H0z"/><path fill="#c1c1c1" d="M0 506.70001h1024v10.5H0z"/><path fill="url(#g)" d="M0 256h1024v48H0z"/><ellipse cx=".00248478" cy="309.31628" rx="10.549764" ry="10.549803" fill="#c1c1c1"/><ellipse cx="42.668945" cy="309.31628" rx="10.549764" ry="10.549803" fill="#c1c1c1"/><ellipse cx="85.335411" cy="309.31628" rx="10.549764" ry="10.549803" fill="#c1c1c1"/><ellipse cx="128.00186" cy="309.31628" rx="10.549764" ry="10.549803" fill="#c1c1c1"/><ellipse cx="170.66832" cy="309.31628" rx="10.549764" ry="10.549803" fill="#c1c1c1"/><ellipse cx="213.33478" cy="309.31628" rx="10.549764" ry="10.549803" fill="#c1c1c1"/><ellipse cx="256.00125" cy="309.31628" rx="10.549764" ry="10.549803" fill="#c1c1c1"/><ellipse cx="298.66772" cy="309.31628" rx="10.549764" ry="10.549803" fill="#c1c1c1"/><ellipse cx="341.33417" cy="309.31628" rx="10.549764" ry="10.549803" fill="#c1c1c1"/><ellipse cx="384.00064" cy="309.31628" rx="10.549764" ry="10.549803" fill="#c1c1c1"/><ellipse cx="426.66708" cy="309.31628" rx="10.549764" ry="10.549803" fill="#c1c1c1"/><ellipse cx="469.33353" cy="309.31628" rx="10.549764" ry="10.549803" fill="#c1c1c1"/><ellipse cx="512" cy="309.31628" rx="10.549764" ry="10.549803" fill="#c1c1c1"/><ellipse cx="554.66644" cy="309.31628" rx="10.549764" ry="10.549803" fill="#c1c1c1"/><ellipse cx="597.33295" cy="309.31628" rx="10.549764" ry="10.549803" fill="#c1c1c1"/><ellipse cx="639.99939" cy="309.31628" rx="10.549764" ry="10.549803" fill="#c1c1c1"/><ellipse cx="682.66589" cy="309.31628" rx="10.549764" ry="10.549803" fill="#c1c1c1"/><ellipse cx="725.33228" cy="309.31628" rx="10.549764" ry="10.549803" fill="#c1c1c1"/><ellipse cx="767.99878" cy="309.31628" rx="10.549764" ry="10.549803" fill="#c1c1c1"/><ellipse cx="810.66522" cy="309.31628" rx="10.549764" ry="10.549803" fill="#c1c1c1"/><ellipse cx="853.33167" cy="309.31628" rx="10.549764" ry="10.549803" fill="#c1c1c1"/><ellipse cx="895.99817" cy="309.31628" rx="10.549764" ry="10.549803" fill="#c1c1c1"/><ellipse cx="938.66461" cy="309.31628" rx="10.549764" ry="10.549803" fill="#c1c1c1"/><ellipse cx="981.33105" cy="309.31628" rx="10.549764" ry="10.549803" fill="#c1c1c1"/><ellipse cx="1023.9976" cy="309.31628" rx="10.549764" ry="10.549803" fill="#c1c1c1"/></g></svg>