<?xml version="1.0" encoding="UTF-8" standalone="no"?><svg version="1.1" viewBox="0 0 1024 1024" xml:space="preserve" xmlns:xlink="http://www.w3.org/1999/xlink" xmlns="http://www.w3.org/2000/svg" xmlns:svg="http://www.w3.org/2000/svg"><path d="M1023.9999 703.6703c0 12.24394 0 24.46578-.0923 36.68749-.0607 10.3073-.1779 20.61447-.4453 30.89954-.2837 22.5344-2.2629 45.01565-5.9213 67.25295-3.8067 22.26183-10.9078 43.8113-21.08088 63.9583-20.61945 40.48081-53.52839 73.39129-94.0071 94.01169-20.13757 10.15963-41.67821 17.25773-63.91054 21.05973-22.26075 3.6732-44.74408 5.6545-67.27194 5.9217-10.29726.2661-20.59722.4218-30.89785.4669-12.2434.0714-24.46445.0714-36.68562.0714H320.3129c-12.22115 0-24.44231 0-36.68569-.0606-10.30054-.0405-20.60048-.1866-30.89786-.4453-22.54148-.2877-45.0292-2.2745-67.27197-5.944-22.23846-3.7846-43.78676-10.9085-63.91051-21.05986-40.474453-20.61649-73.382628-53.51855-94.007081-93.99013-10.169994-20.15946-17.275178-41.72376-21.0808488-63.98053C2.8006217 816.28975.82124261 793.81592.53759651 771.28886c-.26726224-10.3073-.40038136-20.61447-.44543709-30.9217C0 728.12315 0 715.9236 0 703.67966V320.33072c0-12.24407 0-24.48805.09215942-36.73201.04096-10.28505.17817485-20.59224.44543709-30.87719.2836461-22.52708 2.26333229-45.00092 5.92134369-67.23084 3.8065928-22.26176 10.9077838-43.81123 21.0808488-63.98046 20.619436-40.480777 53.52833-73.391427 94.007081-94.011821 20.13183-10.154396 41.66437-17.252253 63.8883-21.0596905C207.69585 2.7877383 230.17916.80650253 252.70702.51712013 263.01382.24985607 273.32052.11673607 283.60489.07168 295.84836 0 308.09175 0 320.29058 0h383.3742c12.24346 0 24.48687 0 36.70798.07168 10.30056.04096 20.60038.18636807 30.89785.44544013 22.52786.289792 45.01119 2.27061817 67.24964 5.92158837 22.26069 3.8068235 43.78692 10.9083665 63.93283 21.0596905 40.48882 20.614147 73.40659 53.525823 94.02934 94.011821 10.16138 20.15325 17.25908 41.71 21.05858 63.95824 3.6587 22.23729 5.638 44.7185 5.9214 67.25306.2674 10.30717.4002 20.61446.4453 30.89941.0923 12.24398.0923 24.46572.0923 36.68746Z" fill="#fff"/><path d="M215.99023 429.09961a81.858551 81.858551 0 0 0-81.85937 81.85937 81.858551 81.858551 0 0 0 81.85742 81.85743 81.858551 81.858551 0 0 0 81.85938-81.85743 81.858551 81.858551 0 0 0-81.85743-81.85937zm-.00195 15.74805a66.110703 66.110703 0 0 1 66.11133 66.11132 66.110703 66.110703 0 0 1-66.11133 66.10938 66.110703 66.110703 0 0 1-66.10937-66.10938 66.110703 66.110703 0 0 1 66.10937-66.11132zm0 17.24414a48.866772 48.866772 0 0 0-48.86523 48.86718 48.866772 48.866772 0 0 0 48.86523 48.86719 48.866772 48.866772 0 0 0 48.86719-48.86719 48.866772 48.866772 0 0 0-48.86719-48.86718z" fill="#ff3a2e"/><path d="M215.99023 669.12a81.858551 81.858551 0 0 0-81.85937 81.85937 81.858551 81.858551 0 0 0 81.85742 81.85743 81.858551 81.858551 0 0 0 81.85938-81.85743A81.858551 81.858551 0 0 0 215.99023 669.12Zm-.00195 15.74805a66.110703 66.110703 0 0 1 66.11133 66.11132 66.110703 66.110703 0 0 1-66.11133 66.10938 66.110703 66.110703 0 0 1-66.10937-66.10938 66.110703 66.110703 0 0 1 66.10937-66.11132Zm0 17.24414a48.866772 48.866772 0 0 0-48.86523 48.86718 48.866772 48.866772 0 0 0 48.86523 48.86719 48.866772 48.866772 0 0 0 48.86719-48.86719 48.866772 48.866772 0 0 0-48.86719-48.86718Z" fill="#ff9503"/><path d="M215.99023 189.129a81.858551 81.858551 0 0 0-81.85937 81.85937 81.858551 81.858551 0 0 0 81.85742 81.85743 81.858551 81.858551 0 0 0 81.85938-81.85743 81.858551 81.858551 0 0 0-81.85743-81.85937Zm-.00195 15.74805a66.110703 66.110703 0 0 1 66.11133 66.11132 66.110703 66.110703 0 0 1-66.11133 66.10938 66.110703 66.110703 0 0 1-66.10937-66.10938 66.110703 66.110703 0 0 1 66.10937-66.11132Zm0 17.24414a48.866772 48.866772 0 0 0-48.86523 48.86718 48.866772 48.866772 0 0 0 48.86523 48.86719 48.866772 48.866772 0 0 0 48.86719-48.86719 48.866772 48.866772 0 0 0-48.86719-48.86718Z" fill="#017aff"/><path d="M404.409 497.00781c-7.70376.00044-14.24841 6.24546-14.24884 13.94922-.00065 7.70452 6.34432 13.95073 14.04884 13.95117h471.507c7.70529.00065 14.15165-6.24588 14.151-13.95117-.00043-7.70452-6.54648-13.94987-14.251-13.94922Z" fill="#c7c7cb"/><path d="M404.409 257.03721c-7.70376.00044-14.24841 6.24546-14.24884 13.94922-.00065 7.70452 6.34432 13.95073 14.04884 13.95117h471.507c7.70529.00065 14.15165-6.24588 14.151-13.95117-.00043-7.70452-6.54648-13.94987-14.251-13.94922Z" fill="#c7c7cb"/><path d="M404.409 737.02821c-7.70376.00044-14.24841 6.24546-14.24884 13.94922-.00065 7.70452 6.34432 13.95073 14.04884 13.95117h471.507c7.70529.00065 14.15165-6.24588 14.151-13.95117-.00043-7.70452-6.54648-13.94987-14.251-13.94922Z" fill="#c7c7cb"/></svg>